# Blender v2.80 (sub 75) OBJ File: ''
# www.blender.org
mtllib a.mtl
o a
v -0.212384 0.550000 0.100000
v 0.212384 0.550000 0.100000
v -0.250000 0.600000 0.050000
v 0.250000 0.600000 0.050000
v 0.450000 -0.273734 0.100000
v 0.500000 -0.266667 0.050000
v 0.450000 -0.550000 0.100000
v 0.500000 -0.600000 0.050000
v 0.300000 -0.550000 0.100000
v 0.250000 -0.600000 0.050000
v 0.300000 -0.300000 0.100000
v 0.250000 -0.350000 0.050000
v -0.300000 -0.300000 0.100000
v -0.250000 -0.350000 0.050000
v -0.250000 -0.600000 0.050000
v -0.300000 -0.550000 0.100000
v -0.500000 -0.600000 0.050000
v -0.450000 -0.550000 0.100000
v -0.500000 -0.266667 0.050000
v -0.450000 -0.273734 0.100000
v -0.250000 -0.350000 -0.100000
v -0.250000 -0.600000 -0.100000
v -0.500000 -0.600000 -0.100000
v -0.500000 -0.266667 -0.100000
v -0.250000 0.600000 -0.100000
v 0.250000 0.600000 -0.100000
v 0.258191 -0.150000 0.100000
v 0.099538 0.400000 0.100000
v -0.099538 0.400000 0.100000
v -0.258191 -0.150000 0.100000
v 0.191730 -0.100000 0.050000
v 0.061922 0.350000 0.050000
v -0.061922 0.350000 0.050000
v -0.191730 -0.100000 0.050000
v -0.191730 -0.100000 -0.100000
v 0.191730 -0.100000 -0.100000
v 0.061922 0.350000 -0.100000
v -0.061922 0.350000 -0.100000
v 0.500000 -0.266667 -0.100000
v 0.500000 -0.600000 -0.100000
v 0.250000 -0.600000 -0.100000
v 0.250000 -0.350000 -0.100000
vt 0.133445 0.611111
vt 0.301338 0.611111
vt 0.118577 0.636364
vt 0.316206 0.636364
vt 0.395257 0.195084
vt 0.415020 0.198653
vt 0.395257 0.055556
vt 0.415020 0.030303
vt 0.335968 0.055556
vt 0.316206 0.030303
vt 0.335968 0.181818
vt 0.316206 0.156566
vt 0.003953 0.984848
vt 0.003953 0.681818
vt 0.023715 0.959596
vt 0.023715 0.707071
vt 0.118577 0.030303
vt 0.118577 0.156566
vt 0.098814 0.055556
vt 0.098814 0.181818
vt 0.019763 0.030303
vt 0.039526 0.055556
vt 0.019763 0.198653
vt 0.039526 0.195084
vt 0.350791 0.799242
vt 0.350791 0.672980
vt 0.410079 0.799242
vt 0.410079 0.672980
vt 0.540514 0.672980
vt 0.540514 0.799242
vt 0.481226 0.672980
vt 0.481226 0.799242
vt 0.872530 0.636364
vt 0.872530 0.468014
vt 0.931818 0.636364
vt 0.931818 0.468014
vt 0.872530 0.030303
vt 0.931818 0.030303
vt 0.149210 0.679293
vt 0.149210 0.931818
vt 0.089921 0.679293
vt 0.089921 0.931818
vt 0.319443 0.257576
vt 0.256734 0.535354
vt 0.178048 0.535354
vt 0.115340 0.257576
vt 0.293174 0.282828
vt 0.241866 0.510101
vt 0.192916 0.510101
vt 0.141609 0.282828
vt 0.629447 0.940506
vt 0.609684 0.713273
vt 0.629447 0.679707
vt 0.285573 0.870017
vt 0.285573 0.676350
vt 0.344862 0.870017
vt 0.344862 0.676350
vt 0.220356 0.905303
vt 0.220356 0.678030
vt 0.279644 0.905303
vt 0.279644 0.678030
vt 0.155138 0.905303
vt 0.155138 0.678030
vt 0.214427 0.905303
vt 0.214427 0.678030
vt 0.632883 0.670455
vt 0.681833 0.670455
vt 0.632883 0.746212
vt 0.681833 0.746212
vt 0.997036 0.030303
vt 0.997036 0.468014
vt 0.937747 0.030303
vt 0.937747 0.468014
vt 0.997036 0.636364
vt 0.937747 0.636364
vt 0.475297 0.672980
vt 0.475297 0.799242
vt 0.416008 0.672980
vt 0.416008 0.799242
vt 0.546443 0.799242
vt 0.546443 0.672980
vt 0.605731 0.799242
vt 0.605731 0.672980
vt 0.083004 0.959596
vt 0.083004 0.707071
vt 0.727956 0.383838
vt 0.676649 0.156566
vt 0.750988 0.030303
vt 0.627699 0.156566
vt 0.553360 0.030303
vt 0.576391 0.383838
vt 0.454545 0.468014
vt 0.553360 0.510101
vt 0.454545 0.636364
vt 0.553360 0.636364
vt 0.750988 0.510101
vt 0.849802 0.468014
vt 0.849802 0.636364
vt 0.750988 0.636364
vn 0.0000 0.7071 0.7071
vn 0.6794 0.1960 0.7071
vn 0.7071 0.0000 0.7071
vn 0.0000 -0.7071 0.7071
vn -0.7071 -0.0000 0.7071
vn -0.6794 0.1960 0.7071
vn 1.0000 0.0000 0.0000
vn 0.0000 -1.0000 0.0000
vn -1.0000 0.0000 0.0000
vn -0.9608 0.2772 0.0000
vn 0.0000 1.0000 0.0000
vn 0.0000 -0.0000 1.0000
vn -0.6794 -0.1960 0.7071
vn 0.6794 -0.1960 0.7071
vn -0.9608 -0.2772 -0.0000
vn 0.9608 -0.2772 -0.0000
vn 0.9608 0.2772 0.0000
vn -0.0000 0.0000 -1.0000
usemtl Steel_-_Satin
s 1
f 1/1/1 2/2/1 3/3/1
f 3/3/1 2/2/1 4/4/1
f 5/5/2 6/6/2 2/2/2
f 2/2/2 6/6/2 4/4/2
f 5/5/3 7/7/3 6/6/3
f 6/6/3 7/7/3 8/8/3
f 7/7/4 9/9/4 8/8/4
f 8/8/4 9/9/4 10/10/4
f 11/11/5 12/12/5 9/9/5
f 9/9/5 12/12/5 10/10/5
f 11/13/4 13/14/4 12/15/4
f 12/15/4 13/14/4 14/16/4
f 15/17/3 14/18/3 16/19/3
f 16/19/3 14/18/3 13/20/3
f 17/21/4 15/17/4 18/22/4
f 18/22/4 15/17/4 16/19/4
f 17/21/5 18/22/5 19/23/5
f 19/23/5 18/22/5 20/24/5
f 3/3/6 19/23/6 1/1/6
f 1/1/6 19/23/6 20/24/6
f 14/25/7 15/26/7 21/27/7
f 21/27/7 15/26/7 22/28/7
f 15/29/8 17/30/8 22/31/8
f 22/31/8 17/30/8 23/32/8
f 17/33/9 19/34/9 23/35/9
f 23/35/9 19/34/9 24/36/9
f 19/34/10 3/37/10 24/36/10
f 24/36/10 3/37/10 25/38/10
f 3/39/11 4/40/11 25/41/11
f 25/41/11 4/40/11 26/42/11
f 27/43/12 2/2/12 28/44/12
f 28/44/12 2/2/12 1/1/12
f 28/44/12 1/1/12 29/45/12
f 29/45/12 1/1/12 30/46/12
f 30/46/12 1/1/12 20/24/12
f 30/46/12 20/24/12 13/20/12
f 13/20/12 20/24/12 18/22/12
f 13/20/12 18/22/12 16/19/12
f 30/46/12 11/11/12 27/43/12
f 27/43/12 11/11/12 5/5/12
f 27/43/12 5/5/12 2/2/12
f 13/20/12 11/11/12 30/46/12
f 9/9/12 7/7/12 11/11/12
f 11/11/12 7/7/12 5/5/12
f 27/43/13 28/44/13 31/47/13
f 31/47/13 28/44/13 32/48/13
f 28/44/4 29/45/4 32/48/4
f 32/48/4 29/45/4 33/49/4
f 30/46/14 34/50/14 29/45/14
f 29/45/14 34/50/14 33/49/14
f 31/47/1 34/50/1 27/43/1
f 27/51/1 34/52/1 30/53/1
f 34/54/11 31/55/11 35/56/11
f 35/56/11 31/55/11 36/57/11
f 31/58/15 32/59/15 36/60/15
f 36/60/15 32/59/15 37/61/15
f 33/62/16 34/63/16 38/64/16
f 38/64/16 34/63/16 35/65/16
f 32/66/8 33/67/8 37/68/8
f 37/68/8 33/67/8 38/69/8
f 4/70/17 6/71/17 26/72/17
f 26/72/17 6/71/17 39/73/17
f 6/71/7 8/74/7 39/73/7
f 39/73/7 8/74/7 40/75/7
f 8/76/8 10/77/8 40/78/8
f 40/78/8 10/77/8 41/79/8
f 10/80/9 12/81/9 41/82/9
f 41/82/9 12/81/9 42/83/9
f 12/15/8 14/16/8 42/84/8
f 42/84/8 14/16/8 21/85/8
f 36/86/18 37/87/18 26/88/18
f 26/88/18 37/87/18 38/89/18
f 26/88/18 38/89/18 25/90/18
f 25/90/18 38/89/18 35/91/18
f 25/90/18 35/91/18 24/92/18
f 24/92/18 35/91/18 21/93/18
f 24/92/18 21/93/18 23/94/18
f 23/94/18 21/93/18 22/95/18
f 35/91/18 36/86/18 21/93/18
f 21/93/18 36/86/18 42/96/18
f 42/96/18 36/86/18 39/97/18
f 42/96/18 39/97/18 40/98/18
f 39/97/18 36/86/18 26/88/18
f 40/98/18 41/99/18 42/96/18
