# Blender v2.80 (sub 75) OBJ File: ''
# www.blender.org
mtllib f.mtl
o f
v 0.200000 -0.050000 0.100000
v 0.250000 -0.100000 0.050000
v 0.200000 0.100000 0.100000
v 0.250000 0.150000 0.050000
v -0.300000 -0.050000 0.100000
v -0.250000 -0.100000 0.050000
v -0.300000 -0.550000 0.100000
v -0.250000 -0.600000 0.050000
v -0.450000 -0.550000 0.100000
v -0.500000 -0.600000 0.050000
v -0.450000 0.550000 0.100000
v -0.500000 0.600000 0.050000
v 0.450000 0.550000 0.100000
v 0.500000 0.600000 0.050000
v 0.500000 0.350000 0.050000
v 0.450000 0.400000 0.100000
v -0.250000 0.350000 0.050000
v -0.300000 0.400000 0.100000
v -0.250000 0.150000 0.050000
v -0.300000 0.100000 0.100000
v 0.500000 0.600000 -0.100000
v 0.500000 0.350000 -0.100000
v -0.250000 0.350000 -0.100000
v -0.250000 0.150000 -0.100000
v 0.250000 0.150000 -0.100000
v 0.250000 -0.100000 -0.100000
v -0.500000 -0.600000 -0.100000
v -0.500000 0.600000 -0.100000
v -0.250000 -0.100000 -0.100000
v -0.250000 -0.600000 -0.100000
vt 0.399577 0.571281
vt 0.420719 0.550620
vt 0.399577 0.633264
vt 0.420719 0.653926
vt 0.236787 0.556818
vt 0.257928 0.577479
vt 0.236787 0.763430
vt 0.257928 0.784091
vt 0.824524 0.293388
vt 0.824524 0.500000
vt 0.803383 0.314050
vt 0.803383 0.520661
vt 0.887949 0.500000
vt 0.909091 0.520661
vt 0.887949 0.045455
vt 0.909091 0.024793
vt 0.507399 0.045455
vt 0.486258 0.024793
vt 0.486258 0.128099
vt 0.507399 0.107438
vt 0.803383 0.128099
vt 0.824524 0.107438
vt 0.803383 0.210744
vt 0.824524 0.231405
vt 0.164905 0.556818
vt 0.164905 0.763430
vt 0.143763 0.577479
vt 0.143763 0.784091
vt 0.624736 0.550620
vt 0.624736 0.653926
vt 0.561311 0.550620
vt 0.561311 0.653926
vt 0.136364 0.560950
vt 0.136364 0.870868
vt 0.072939 0.560950
vt 0.072939 0.870868
vt 0.694504 0.549587
vt 0.694504 0.632231
vt 0.631079 0.549587
vt 0.631079 0.632231
vt 0.228330 0.763430
vt 0.228330 0.556818
vt 0.484144 0.653926
vt 0.484144 0.550620
vt 0.613108 0.231405
vt 0.613108 0.293388
vt 0.933404 0.520661
vt 0.933404 0.024793
vt 0.996829 0.520661
vt 0.996829 0.024793
vt 0.003171 0.979339
vt 0.003171 0.566116
vt 0.066596 0.979339
vt 0.066596 0.566116
vt 0.321353 0.784091
vt 0.321353 0.577479
vt 0.328753 0.762397
vt 0.328753 0.555785
vt 0.392178 0.762397
vt 0.392178 0.555785
vt 0.554969 0.550620
vt 0.554969 0.653926
vt 0.491544 0.550620
vt 0.491544 0.653926
vt 0.126850 0.520661
vt 0.021142 0.520661
vt 0.126850 0.314050
vt 0.021142 0.024793
vt 0.126850 0.210744
vt 0.126850 0.128099
vt 0.443975 0.024793
vt 0.443975 0.128099
vt 0.338266 0.210744
vt 0.338266 0.314050
vn 0.7071 -0.0000 0.7071
vn 0.0000 -0.7071 0.7071
vn -0.7071 -0.0000 0.7071
vn 0.0000 0.7071 0.7071
vn 1.0000 0.0000 0.0000
vn 0.0000 -1.0000 -0.0000
vn 0.0000 1.0000 0.0000
vn 0.0000 -0.0000 1.0000
vn -1.0000 0.0000 0.0000
vn 0.0000 0.0000 -1.0000
usemtl Steel_-_Satin.006
s 1
f 1/1/1 2/2/1 3/3/1
f 3/3/1 2/2/1 4/4/1
f 5/5/2 6/6/2 1/7/2
f 1/7/2 6/6/2 2/8/2
f 5/9/1 7/10/1 6/11/1
f 6/11/1 7/10/1 8/12/1
f 7/10/2 9/13/2 8/12/2
f 8/12/2 9/13/2 10/14/2
f 9/13/3 11/15/3 10/14/3
f 10/14/3 11/15/3 12/16/3
f 11/15/4 13/17/4 12/16/4
f 12/16/4 13/17/4 14/18/4
f 14/18/1 13/17/1 15/19/1
f 15/19/1 13/17/1 16/20/1
f 15/19/2 16/20/2 17/21/2
f 17/21/2 16/20/2 18/22/2
f 19/23/1 17/21/1 20/24/1
f 20/24/1 17/21/1 18/22/1
f 4/25/4 19/26/4 3/27/4
f 3/27/4 19/26/4 20/28/4
f 14/29/5 15/30/5 21/31/5
f 21/31/5 15/30/5 22/32/5
f 15/33/6 17/34/6 22/35/6
f 22/35/6 17/34/6 23/36/6
f 17/37/5 19/38/5 23/39/5
f 23/39/5 19/38/5 24/40/5
f 19/26/7 4/25/7 24/41/7
f 24/41/7 4/25/7 25/42/7
f 4/4/5 2/2/5 25/43/5
f 25/43/5 2/2/5 26/44/5
f 3/45/8 20/24/8 1/46/8
f 1/46/8 20/24/8 5/9/8
f 5/9/8 20/24/8 11/15/8
f 5/9/8 11/15/8 9/13/8
f 20/24/8 18/22/8 11/15/8
f 11/15/8 18/22/8 13/17/8
f 13/17/8 18/22/8 16/20/8
f 9/13/8 7/10/8 5/9/8
f 10/47/9 12/48/9 27/49/9
f 27/49/9 12/48/9 28/50/9
f 12/51/7 14/52/7 28/53/7
f 28/53/7 14/52/7 21/54/7
f 2/8/6 6/6/6 26/55/6
f 26/55/6 6/6/6 29/56/6
f 6/57/5 8/58/5 29/59/5
f 29/59/5 8/58/5 30/60/5
f 8/61/6 10/62/6 30/63/6
f 30/63/6 10/62/6 27/64/6
f 30/65/10 27/66/10 29/67/10
f 29/67/10 27/66/10 28/68/10
f 29/67/10 28/68/10 24/69/10
f 24/69/10 28/68/10 23/70/10
f 23/70/10 28/68/10 21/71/10
f 23/70/10 21/71/10 22/72/10
f 24/69/10 25/73/10 29/67/10
f 29/67/10 25/73/10 26/74/10
