# Blender v2.80 (sub 75) OBJ File: ''
# www.blender.org
mtllib h.mtl
o h
v 0.300000 -0.050000 0.100000
v 0.250000 -0.100000 0.050000
v 0.300000 -0.550000 0.100000
v 0.250000 -0.600000 0.050000
v -0.300000 -0.050000 0.100000
v -0.250000 -0.100000 0.050000
v -0.300000 -0.550000 0.100000
v -0.250000 -0.600000 0.050000
v -0.450000 -0.550000 0.100000
v -0.500000 -0.600000 0.050000
v -0.450000 0.550000 0.100000
v -0.500000 0.600000 0.050000
v -0.300000 0.550000 0.100000
v -0.250000 0.600000 0.050000
v -0.300000 0.100000 0.100000
v -0.250000 0.150000 0.050000
v 0.250000 0.150000 0.050000
v 0.300000 0.100000 0.100000
v 0.250000 0.600000 0.050000
v 0.300000 0.550000 0.100000
v 0.500000 0.600000 0.050000
v 0.450000 0.550000 0.100000
v 0.500000 -0.600000 0.050000
v 0.450000 -0.550000 0.100000
v -0.250000 0.150000 -0.100000
v 0.250000 0.150000 -0.100000
v 0.250000 0.600000 -0.100000
v 0.500000 0.600000 -0.100000
v 0.500000 -0.600000 -0.100000
v 0.250000 -0.600000 -0.100000
v 0.250000 -0.100000 -0.100000
v -0.500000 -0.600000 -0.100000
v -0.500000 0.600000 -0.100000
v -0.250000 0.600000 -0.100000
v -0.250000 -0.100000 -0.100000
v -0.250000 -0.600000 -0.100000
vt 0.335968 0.308081
vt 0.316205 0.282828
vt 0.335968 0.055556
vt 0.316205 0.030303
vt 0.003953 0.984848
vt 0.003953 0.681818
vt 0.023715 0.959596
vt 0.023715 0.707071
vt 0.098814 0.308081
vt 0.098814 0.055556
vt 0.118577 0.282828
vt 0.118577 0.030303
vt 0.039526 0.055556
vt 0.019763 0.030303
vt 0.039526 0.611111
vt 0.019763 0.636364
vt 0.098814 0.611111
vt 0.118577 0.636364
vt 0.098814 0.383838
vt 0.118577 0.409091
vt 0.110672 0.705808
vt 0.110672 0.958333
vt 0.090909 0.680556
vt 0.335968 0.383838
vt 0.316205 0.636364
vt 0.316205 0.409091
vt 0.335968 0.611111
vt 0.415020 0.636364
vt 0.395257 0.611111
vt 0.415020 0.030303
vt 0.395257 0.055556
vt 0.169960 0.958333
vt 0.169960 0.705808
vt 0.372530 0.905303
vt 0.372530 0.678030
vt 0.431818 0.905303
vt 0.431818 0.678030
vt 0.633399 0.799242
vt 0.633399 0.672980
vt 0.692688 0.799242
vt 0.692688 0.672980
vt 0.872530 0.636364
vt 0.872529 0.030303
vt 0.931818 0.636364
vt 0.931818 0.030303
vt 0.562253 0.672980
vt 0.562253 0.799242
vt 0.502964 0.672980
vt 0.502965 0.799242
vt 0.242095 0.931818
vt 0.242095 0.679293
vt 0.301383 0.931818
vt 0.301383 0.679293
vt 0.937747 0.636364
vt 0.937747 0.030303
vt 0.997036 0.636364
vt 0.997036 0.030303
vt 0.437747 0.799242
vt 0.437747 0.672980
vt 0.497036 0.799242
vt 0.497036 0.672980
vt 0.307312 0.905303
vt 0.307312 0.678030
vt 0.366601 0.905303
vt 0.366601 0.678030
vt 0.083004 0.959596
vt 0.083004 0.707071
vt 0.176878 0.931818
vt 0.176877 0.679293
vt 0.236166 0.931818
vt 0.236166 0.679293
vt 0.627470 0.672980
vt 0.627470 0.799242
vt 0.568182 0.672980
vt 0.568182 0.799242
vt 0.553360 0.636364
vt 0.454545 0.636364
vt 0.553360 0.383838
vt 0.454545 0.030303
vt 0.553360 0.257576
vt 0.553360 0.030303
vt 0.750988 0.257576
vt 0.750988 0.383838
vt 0.849802 0.030303
vt 0.849802 0.636364
vt 0.750988 0.030303
vt 0.750988 0.636364
vn -0.7071 -0.0000 0.7071
vn 0.0000 -0.7071 0.7071
vn 0.7071 -0.0000 0.7071
vn 0.0000 0.7071 0.7071
vn 0.0000 1.0000 0.0000
vn -1.0000 0.0000 0.0000
vn 1.0000 0.0000 0.0000
vn 0.0000 -1.0000 0.0000
vn 0.0000 -0.0000 1.0000
vn 0.0000 0.0000 -1.0000
usemtl Steel_-_Satin.008
s 1
f 1/1/1 2/2/1 3/3/1
f 3/3/1 2/2/1 4/4/1
f 1/5/2 5/6/2 2/7/2
f 2/7/2 5/6/2 6/8/2
f 5/9/3 7/10/3 6/11/3
f 6/11/3 7/10/3 8/12/3
f 7/10/2 9/13/2 8/12/2
f 8/12/2 9/13/2 10/14/2
f 9/13/1 11/15/1 10/14/1
f 10/14/1 11/15/1 12/16/1
f 11/15/4 13/17/4 12/16/4
f 12/16/4 13/17/4 14/18/4
f 15/19/3 16/20/3 13/17/3
f 13/17/3 16/20/3 14/18/3
f 17/21/4 16/22/4 18/23/4
f 18/24/4 16/20/4 15/19/4
f 19/25/1 17/26/1 20/27/1
f 20/27/1 17/26/1 18/24/1
f 21/28/4 19/25/4 22/29/4
f 22/29/4 19/25/4 20/27/4
f 21/28/3 22/29/3 23/30/3
f 23/30/3 22/29/3 24/31/3
f 4/4/2 23/30/2 3/3/2
f 3/3/2 23/30/2 24/31/2
f 16/22/5 17/21/5 25/32/5
f 25/32/5 17/21/5 26/33/5
f 17/34/6 19/35/6 26/36/6
f 26/36/6 19/35/6 27/37/6
f 19/38/5 21/39/5 27/40/5
f 27/40/5 21/39/5 28/41/5
f 21/42/7 23/43/7 28/44/7
f 28/44/7 23/43/7 29/45/7
f 23/46/8 4/47/8 29/48/8
f 29/48/8 4/47/8 30/49/8
f 4/50/6 2/51/6 30/52/6
f 30/52/6 2/51/6 31/53/6
f 3/3/9 24/31/9 1/1/9
f 1/1/9 24/31/9 22/29/9
f 1/1/9 22/29/9 18/24/9
f 18/24/9 22/29/9 20/27/9
f 18/24/9 15/19/9 1/1/9
f 1/1/9 15/19/9 5/9/9
f 5/9/9 15/19/9 11/15/9
f 5/9/9 11/15/9 9/13/9
f 15/19/9 13/17/9 11/15/9
f 9/13/9 7/10/9 5/9/9
f 10/54/6 12/55/6 32/56/6
f 32/56/6 12/55/6 33/57/6
f 12/58/5 14/59/5 33/60/5
f 33/60/5 14/59/5 34/61/5
f 14/62/7 16/63/7 34/64/7
f 34/64/7 16/63/7 25/65/7
f 2/7/8 6/8/8 31/66/8
f 31/66/8 6/8/8 35/67/8
f 6/68/7 8/69/7 35/70/7
f 35/70/7 8/69/7 36/71/7
f 8/72/8 10/73/8 36/74/8
f 36/74/8 10/73/8 32/75/8
f 36/76/10 32/77/10 35/78/10
f 35/78/10 32/77/10 33/79/10
f 35/78/10 33/79/10 25/80/10
f 25/80/10 33/79/10 34/81/10
f 25/80/10 26/82/10 35/78/10
f 35/78/10 26/82/10 31/83/10
f 31/83/10 26/82/10 28/84/10
f 31/83/10 28/84/10 29/85/10
f 26/82/10 27/86/10 28/84/10
f 29/85/10 30/87/10 31/83/10
