# Blender v2.80 (sub 75) OBJ File: ''
# www.blender.org
mtllib i.mtl
o i
v 0.075000 -0.550000 0.100000
v -0.075000 -0.550000 0.100000
v 0.125000 -0.600000 0.050000
v -0.125000 -0.600000 0.050000
v -0.075000 0.550000 0.100000
v -0.125000 0.600000 0.050000
v 0.075000 0.550000 0.100000
v 0.125000 0.600000 0.050000
v 0.125000 0.600000 -0.100000
v 0.125000 -0.600000 -0.100000
v -0.125000 -0.600000 -0.100000
v -0.125000 0.600000 -0.100000
vt 0.183983 0.083333
vt 0.054113 0.083333
vt 0.227273 0.045455
vt 0.010823 0.045455
vt 0.675325 0.916667
vt 0.675325 0.083333
vt 0.718615 0.954545
vt 0.718615 0.045455
vt 0.054113 0.916667
vt 0.183983 0.916667
vt 0.010823 0.954545
vt 0.227273 0.954545
vt 0.528139 0.954545
vt 0.484849 0.916667
vt 0.528138 0.045455
vt 0.484848 0.083333
vt 0.658009 0.954545
vt 0.658008 0.045455
vt 0.993506 0.217803
vt 0.993507 0.407197
vt 0.863636 0.217803
vt 0.863636 0.407197
vt 0.863636 0.198864
vt 0.863636 0.009470
vt 0.993507 0.198864
vt 0.993506 0.009470
vt 0.848485 0.954545
vt 0.848485 0.045455
vt 0.248918 0.045455
vt 0.465368 0.045455
vt 0.248918 0.954545
vt 0.465368 0.954545
vn 0.0000 -0.7071 0.7071
vn -0.7071 -0.0000 0.7071
vn 0.0000 0.7071 0.7071
vn 0.7071 -0.0000 0.7071
vn 1.0000 0.0000 0.0000
vn 0.0000 -1.0000 0.0000
vn 0.0000 -0.0000 1.0000
vn 0.0000 1.0000 0.0000
vn -1.0000 0.0000 0.0000
vn 0.0000 0.0000 -1.0000
usemtl Steel_-_Satin.009
s 1
f 1/1/1 2/2/1 3/3/1
f 3/3/1 2/2/1 4/4/1
f 2/5/2 5/6/2 4/7/2
f 4/7/2 5/6/2 6/8/2
f 5/9/3 7/10/3 6/11/3
f 6/11/3 7/10/3 8/12/3
f 8/13/4 7/14/4 3/15/4
f 3/15/4 7/14/4 1/16/4
f 8/13/5 3/15/5 9/17/5
f 9/17/5 3/15/5 10/18/5
f 3/19/6 4/20/6 10/21/6
f 10/21/6 4/20/6 11/22/6
f 2/2/7 1/1/7 5/9/7
f 5/9/7 1/1/7 7/10/7
f 6/23/8 8/24/8 12/25/8
f 12/25/8 8/24/8 9/26/8
f 4/7/9 6/8/9 11/27/9
f 11/27/9 6/8/9 12/28/9
f 12/29/10 9/30/10 11/31/10
f 11/31/10 9/30/10 10/32/10
