# Blender v2.80 (sub 75) OBJ File: ''
# www.blender.org
mtllib r.mtl
o r
v 0.340519 0.018262 0.100000
v 0.411322 0.017167 0.050000
v 0.383602 0.061771 0.100000
v 0.448201 0.066763 0.050000
v 0.416954 0.113122 0.100000
v 0.475783 0.122072 0.050000
v 0.439185 0.170174 0.100000
v 0.493206 0.181371 0.050000
v 0.449369 0.230552 0.100000
v 0.499926 0.242809 0.050000
v 0.447082 0.291740 0.100000
v 0.495735 0.304472 0.050000
v 0.432419 0.351189 0.100000
v 0.480763 0.364436 0.050000
v 0.455478 0.420832 0.050000
v 0.405992 0.406423 0.100000
v 0.420666 0.471901 0.050000
v 0.368900 0.455141 0.100000
v 0.377415 0.516050 0.050000
v 0.322689 0.495313 0.100000
v 0.327072 0.551903 0.050000
v 0.269285 0.525266 0.100000
v 0.271208 0.578342 0.050000
v 0.210911 0.543751 0.100000
v 0.211564 0.594543 0.050000
v 0.150000 0.550000 0.100000
v 0.150000 0.600000 0.050000
v 0.500000 -0.600000 0.050000
v 0.500000 -0.225000 0.050000
v 0.450000 -0.550000 0.100000
v 0.450000 -0.225000 0.100000
v 0.300000 -0.550000 0.100000
v 0.250000 -0.600000 0.050000
v 0.125000 -0.100000 0.050000
v 0.125000 -0.050000 0.100000
v -0.250000 -0.100000 0.050000
v -0.300000 -0.050000 0.100000
v 0.250000 -0.225000 0.050000
v 0.300000 -0.225000 0.100000
v 0.245741 -0.192648 0.050000
v 0.294037 -0.179707 0.100000
v 0.233253 -0.162500 0.050000
v 0.276554 -0.137500 0.100000
v 0.213388 -0.136612 0.050000
v 0.248744 -0.101256 0.100000
v 0.187500 -0.116747 0.050000
v 0.212500 -0.073446 0.100000
v 0.157352 -0.104259 0.050000
v 0.170293 -0.055963 0.100000
v -0.250000 -0.600000 0.050000
v -0.300000 -0.550000 0.100000
v -0.500000 -0.600000 0.050000
v -0.450000 -0.550000 0.100000
v 0.378397 -0.021493 0.100000
v 0.449208 -0.036548 0.050000
v 0.409041 -0.067058 0.100000
v 0.477133 -0.096053 0.050000
v 0.431577 -0.117132 0.100000
v 0.494239 -0.159521 0.050000
v 0.445361 -0.170285 0.100000
v -0.500000 0.600000 0.050000
v -0.450000 0.550000 0.100000
v 0.411322 0.017167 -0.100000
v 0.449208 -0.036548 -0.100000
v 0.477133 -0.096053 -0.100000
v 0.494239 -0.159521 -0.100000
v 0.500000 -0.225000 -0.100000
v 0.500000 -0.600000 -0.100000
v 0.250000 -0.600000 -0.100000
v 0.250000 -0.225000 -0.100000
v 0.245741 -0.192648 -0.100000
v 0.233253 -0.162500 -0.100000
v 0.213388 -0.136612 -0.100000
v 0.187500 -0.116747 -0.100000
v 0.157352 -0.104259 -0.100000
v 0.125000 -0.100000 -0.100000
v -0.250000 -0.100000 -0.100000
v -0.300000 0.400000 0.100000
v -0.300000 0.100000 0.100000
v 0.150000 0.400000 0.100000
v 0.188823 0.394889 0.100000
v 0.225000 0.379904 0.100000
v 0.256066 0.356066 0.100000
v 0.279904 0.325000 0.100000
v 0.294889 0.288823 0.100000
v 0.300000 0.250000 0.100000
v 0.294889 0.211177 0.100000
v 0.279904 0.175000 0.100000
v 0.256066 0.143934 0.100000
v 0.225000 0.120096 0.100000
v 0.188823 0.105111 0.100000
v 0.150000 0.100000 0.100000
v -0.250000 0.350000 0.050000
v -0.250000 0.150000 0.050000
v 0.150000 0.350000 0.050000
v 0.150000 0.150000 0.050000
v 0.175882 0.153407 0.050000
v 0.200000 0.163397 0.050000
v 0.220711 0.179289 0.050000
v 0.236602 0.200000 0.050000
v 0.246593 0.224118 0.050000
v 0.250000 0.250000 0.050000
v 0.246593 0.275882 0.050000
v 0.236602 0.300000 0.050000
v 0.220711 0.320711 0.050000
v 0.200000 0.336603 0.050000
v 0.175882 0.346593 0.050000
v 0.150000 0.350000 -0.100000
v -0.250000 0.350000 -0.100000
v -0.250000 0.150000 -0.100000
v 0.150000 0.150000 -0.100000
v 0.175882 0.153407 -0.100000
v 0.200000 0.163397 -0.100000
v 0.220711 0.179289 -0.100000
v 0.236602 0.200000 -0.100000
v 0.246593 0.224118 -0.100000
v 0.250000 0.250000 -0.100000
v 0.246593 0.275882 -0.100000
v 0.236602 0.300000 -0.100000
v 0.220711 0.320711 -0.100000
v 0.200000 0.336603 -0.100000
v 0.175882 0.346593 -0.100000
v -0.250000 -0.600000 -0.100000
v -0.500000 -0.600000 -0.100000
v -0.500000 0.600000 -0.100000
v 0.150000 0.600000 -0.100000
v 0.211564 0.594543 -0.100000
v 0.271208 0.578342 -0.100000
v 0.327072 0.551903 -0.100000
v 0.377415 0.516050 -0.100000
v 0.420666 0.471901 -0.100000
v 0.455478 0.420832 -0.100000
v 0.480763 0.364436 -0.100000
v 0.495735 0.304472 -0.100000
v 0.499926 0.242809 -0.100000
v 0.493206 0.181371 -0.100000
v 0.475783 0.122072 -0.100000
v 0.448201 0.066763 -0.100000
vt 0.367983 0.277645
vt 0.397240 0.277197
vt 0.385786 0.295455
vt 0.412480 0.297499
vt 0.399568 0.316476
vt 0.423877 0.320139
vt 0.408754 0.339830
vt 0.431077 0.344413
vt 0.412962 0.364545
vt 0.995868 0.139859
vt 0.975207 0.160075
vt 0.975207 0.134939
vt 0.433854 0.369563
vt 0.412017 0.389592
vt 0.995868 0.114808
vt 0.975207 0.109690
vt 0.432122 0.394804
vt 0.405958 0.413928
vt 0.425935 0.419350
vt 0.415487 0.442436
vt 0.395038 0.436538
vt 0.401102 0.463341
vt 0.379711 0.456480
vt 0.383229 0.481413
vt 0.360615 0.472925
vt 0.362426 0.496090
vt 0.338548 0.485186
vt 0.339342 0.506912
vt 0.314426 0.492753
vt 0.314696 0.513544
vt 0.289256 0.495311
vt 0.289256 0.515778
vt 0.433884 0.024561
vt 0.433884 0.178066
vt 0.413223 0.045028
vt 0.413223 0.178066
vt 0.351240 0.045028
vt 0.330578 0.024561
vt 0.278926 0.229235
vt 0.278926 0.249702
vt 0.123967 0.229235
vt 0.103306 0.249702
vt 0.330579 0.178066
vt 0.351240 0.178066
vt 0.328819 0.191309
vt 0.348776 0.196607
vt 0.323658 0.203650
vt 0.341551 0.213884
vt 0.066116 0.766356
vt 0.086777 0.763685
vt 0.066116 0.779714
vt 0.086777 0.782385
vt 0.315450 0.214248
vt 0.330059 0.228721
vt 0.304752 0.222379
vt 0.315083 0.240105
vt 0.292294 0.227491
vt 0.297642 0.247261
vt 0.123967 0.024561
vt 0.103306 0.045028
vt 0.020661 0.024561
vt 0.041322 0.045028
vt 0.383635 0.261371
vt 0.412896 0.255209
vt 0.396298 0.242719
vt 0.424435 0.230850
vt 0.405610 0.222222
vt 0.431504 0.204870
vt 0.411306 0.200464
vt 0.975207 0.299619
vt 0.995868 0.303931
vt 0.975207 0.326434
vt 0.995868 0.326337
vt 0.020661 0.515778
vt 0.041322 0.495311
vt 0.975207 0.227134
vt 0.975207 0.249194
vt 0.913223 0.227134
vt 0.913223 0.249194
vt 0.975207 0.273606
vt 0.913223 0.273606
vt 0.913223 0.299619
vt 0.913223 0.326434
vt 0.975207 0.479937
vt 0.913223 0.479937
vt 0.066116 0.557803
vt 0.066116 0.620101
vt 0.004132 0.557803
vt 0.004132 0.620101
vt 0.066116 0.741885
vt 0.004132 0.741885
vt 0.004132 0.753453
vt 0.066116 0.753453
vt 0.004132 0.766356
vt 0.004132 0.779714
vt 0.004132 0.792616
vt 0.066116 0.792616
vt 0.004132 0.804184
vt 0.066116 0.804184
vt 0.004132 0.813629
vt 0.066116 0.813629
vt 0.066116 0.907077
vt 0.004132 0.907077
vt 0.103306 0.433909
vt 0.103306 0.311104
vt 0.289256 0.433909
vt 0.305299 0.431816
vt 0.320248 0.425682
vt 0.333085 0.415924
vt 0.342936 0.403207
vt 0.349128 0.388398
vt 0.351240 0.372506
vt 0.349128 0.356614
vt 0.342936 0.341805
vt 0.333085 0.329088
vt 0.320248 0.319330
vt 0.305299 0.313196
vt 0.289256 0.311104
vt 0.123967 0.413441
vt 0.123967 0.331572
vt 0.289256 0.413441
vt 0.289256 0.331572
vt 0.299951 0.332966
vt 0.183884 0.586375
vt 0.163223 0.586782
vt 0.183884 0.575754
vt 0.163223 0.570851
vt 0.309917 0.337056
vt 0.318476 0.343561
vt 0.325042 0.352039
vt 0.329171 0.361912
vt 0.330579 0.372506
vt 0.329171 0.383101
vt 0.325042 0.392974
vt 0.274793 0.686067
vt 0.254132 0.688739
vt 0.274793 0.675381
vt 0.254132 0.672709
vt 0.318476 0.401452
vt 0.309917 0.407957
vt 0.299951 0.412046
vt 0.274793 0.648248
vt 0.274793 0.548570
vt 0.336777 0.648248
vt 0.336777 0.548570
vt 0.412190 0.626301
vt 0.412190 0.544432
vt 0.474174 0.626301
vt 0.474174 0.544432
vt 0.183884 0.754225
vt 0.183884 0.596940
vt 0.245868 0.754225
vt 0.245868 0.596940
vt 0.245868 0.586375
vt 0.245868 0.575754
vt 0.245868 0.565802
vt 0.183884 0.565802
vt 0.245868 0.557197
vt 0.183884 0.557197
vt 0.245868 0.550524
vt 0.183884 0.550524
vt 0.336777 0.713200
vt 0.274793 0.713200
vt 0.336777 0.705643
vt 0.274793 0.705643
vt 0.336777 0.696389
vt 0.274793 0.696389
vt 0.336777 0.686067
vt 0.336777 0.675381
vt 0.336777 0.665059
vt 0.274793 0.665059
vt 0.336777 0.655804
vt 0.274793 0.655804
vt 0.344008 0.755244
vt 0.344008 0.550573
vt 0.405992 0.755244
vt 0.405992 0.550573
vt 0.974174 0.525392
vt 0.974174 0.587690
vt 0.912190 0.525392
vt 0.912190 0.587690
vt 0.974174 0.977400
vt 0.912190 0.977400
vt 0.155992 0.557112
vt 0.155992 0.812701
vt 0.094008 0.557112
vt 0.094008 0.812701
vt 0.155992 0.836288
vt 0.094008 0.836288
vt 0.155992 0.857897
vt 0.094008 0.857897
vt 0.155992 0.876855
vt 0.094008 0.876855
vt 0.155992 0.892571
vt 0.094008 0.892571
vt 0.913223 0.022854
vt 0.975207 0.022854
vt 0.975207 0.041009
vt 0.913223 0.041009
vt 0.975207 0.061981
vt 0.913223 0.061981
vt 0.975207 0.085115
vt 0.913223 0.085115
vt 0.913223 0.109690
vt 0.913223 0.134939
vt 0.913223 0.160075
vt 0.975207 0.184316
vt 0.913223 0.184316
vt 0.975207 0.206903
vt 0.913223 0.206903
vt 0.754497 0.207373
vt 0.746840 0.312848
vt 0.743802 0.208767
vt 0.733471 0.311104
vt 0.578512 0.208767
vt 0.578512 0.311104
vt 0.475207 0.024561
vt 0.475207 0.515778
vt 0.578512 0.515778
vt 0.759297 0.317960
vt 0.764463 0.203283
vt 0.851786 0.263142
vt 0.773021 0.196778
vt 0.779588 0.188300
vt 0.783716 0.178427
vt 0.878423 0.220200
vt 0.867025 0.242840
vt 0.885622 0.195926
vt 0.785124 0.167833
vt 0.888399 0.170776
vt 0.886667 0.145535
vt 0.783716 0.157238
vt 0.880480 0.120988
vt 0.870032 0.097903
vt 0.779588 0.147365
vt 0.855647 0.076998
vt 0.773021 0.138887
vt 0.837775 0.058926
vt 0.816972 0.044249
vt 0.764463 0.132382
vt 0.793887 0.033427
vt 0.754497 0.128292
vt 0.769241 0.026795
vt 0.743802 0.126898
vt 0.743802 0.024561
vt 0.578512 0.126898
vt 0.888430 0.515778
vt 0.785124 0.515778
vt 0.888430 0.362273
vt 0.785124 0.362273
vt 0.886049 0.335469
vt 0.783364 0.349029
vt 0.878981 0.309488
vt 0.867441 0.285130
vt 0.778204 0.336688
vt 0.769995 0.326091
vn 0.4491 -0.5462 0.7071
vn 0.5279 -0.4704 0.7071
vn 0.5506 -0.4437 0.7071
vn 0.6025 -0.3702 0.7071
vn 0.6292 -0.3226 0.7071
vn 0.6582 -0.2585 0.7071
vn 0.6816 -0.1882 0.7071
vn 0.6934 -0.1386 0.7071
vn 0.7056 -0.0458 0.7071
vn 0.7070 -0.0145 0.7071
vn 0.7002 0.0984 0.7071
vn 0.6985 0.1101 0.7071
vn 0.6657 0.2385 0.7071
vn 0.6682 0.2311 0.7071
vn 0.6172 0.3451 0.7071
vn 0.6034 0.3687 0.7071
vn 0.5469 0.4483 0.7071
vn 0.5160 0.4835 0.7071
vn 0.4595 0.5375 0.7071
vn 0.4070 0.5782 0.7071
vn 0.3577 0.6100 0.7071
vn 0.2812 0.6488 0.7071
vn 0.2449 0.6634 0.7071
vn 0.1436 0.6924 0.7071
vn 0.1244 0.6961 0.7071
vn 0.0000 0.7071 0.7071
vn 0.7071 -0.0000 0.7071
vn 0.0000 -0.7071 0.7071
vn -0.7071 -0.0000 0.7071
vn -0.6830 -0.1830 0.7071
vn -0.6124 -0.3536 0.7071
vn -0.5000 -0.5000 0.7071
vn -0.3536 -0.6124 0.7071
vn -0.1830 -0.6830 0.7071
vn 0.4689 0.5293 0.7071
vn 0.5513 0.4428 0.7071
vn 0.5399 0.4567 0.7071
vn 0.6114 0.3554 0.7071
vn 0.6180 0.3437 0.7071
vn 0.6641 0.2431 0.7071
vn 0.6670 0.2346 0.7072
vn 0.6963 0.1235 0.7071
vn 0.6970 0.1191 0.7071
vn 0.7635 0.6458 -0.0000
vn 0.8646 0.5025 0.0000
vn 0.9390 0.3439 0.0000
vn 0.9846 0.1746 0.0000
vn 1.0000 0.0000 -0.0000
vn 0.0000 -1.0000 0.0000
vn -1.0000 0.0000 0.0000
vn -0.9659 -0.2588 -0.0000
vn -0.8660 -0.5000 -0.0000
vn -0.7071 -0.7071 -0.0000
vn -0.5000 -0.8660 -0.0000
vn -0.2588 -0.9659 -0.0000
vn -0.0000 -0.0000 1.0000
vn -0.1830 0.6830 0.7071
vn -0.3536 0.6124 0.7071
vn -0.5000 0.5000 0.7071
vn -0.6124 0.3536 0.7071
vn -0.6830 0.1830 0.7071
vn -0.6124 -0.3535 0.7071
vn 0.0000 1.0000 0.0000
vn -0.2588 0.9659 0.0000
vn -0.5000 0.8660 0.0000
vn -0.7071 0.7071 0.0000
vn -0.8660 0.5000 0.0000
vn -0.9659 0.2588 0.0000
vn 0.1759 0.9844 0.0000
vn 0.3463 0.9381 0.0000
vn 0.5059 0.8626 0.0000
vn 0.6498 0.7601 0.0000
vn 0.7733 0.6340 0.0000
vn 0.8728 0.4881 0.0000
vn 0.9450 0.3270 0.0000
vn 0.9878 0.1556 0.0000
vn 0.9998 -0.0205 0.0000
vn 0.9806 -0.1961 -0.0000
vn 0.9308 -0.3655 -0.0000
vn 0.8520 -0.5235 -0.0000
vn 0.7467 -0.6652 0.0000
vn 0.0000 0.0000 -1.0000
usemtl Steel_-_Satin.019
s 1
f 1/1/1 2/2/2 3/3/3
f 3/3/3 2/2/2 4/4/4
f 3/3/3 4/4/4 5/5/5
f 5/5/5 4/4/4 6/6/6
f 5/5/5 6/6/6 7/7/7
f 7/7/7 6/6/6 8/8/8
f 7/7/7 8/8/8 9/9/9
f 9/10/9 8/11/8 10/12/10
f 9/9/9 10/13/10 11/14/11
f 11/15/11 10/12/10 12/16/12
f 11/14/11 12/17/12 13/18/13
f 13/18/13 12/17/12 14/19/14
f 13/18/13 14/19/14 15/20/15
f 13/18/13 15/20/15 16/21/16
f 16/21/16 15/20/15 17/22/17
f 16/21/16 17/22/17 18/23/18
f 18/23/18 17/22/17 19/24/19
f 18/23/18 19/24/19 20/25/20
f 20/25/20 19/24/19 21/26/21
f 20/25/20 21/26/21 22/27/22
f 22/27/22 21/26/21 23/28/23
f 22/27/22 23/28/23 24/29/24
f 24/29/24 23/28/23 25/30/25
f 24/29/24 25/30/25 26/31/26
f 26/31/26 25/30/25 27/32/26
f 28/33/27 29/34/27 30/35/27
f 30/35/27 29/34/27 31/36/27
f 30/35/28 32/37/28 28/33/28
f 28/33/28 32/37/28 33/38/28
f 34/39/28 35/40/28 36/41/28
f 36/41/28 35/40/28 37/42/28
f 38/43/29 39/44/29 40/45/30
f 40/45/30 39/44/29 41/46/30
f 40/45/30 41/46/30 42/47/31
f 42/47/31 41/46/30 43/48/31
f 42/49/31 43/50/31 44/51/32
f 44/51/32 43/50/31 45/52/32
f 44/53/32 45/54/32 46/55/33
f 46/55/33 45/54/32 47/56/33
f 46/55/33 47/56/33 48/57/34
f 48/57/34 47/56/33 49/58/34
f 48/57/34 49/58/34 34/39/28
f 34/39/28 49/58/34 35/40/28
f 39/44/29 38/43/29 32/37/29
f 32/37/29 38/43/29 33/38/29
f 50/59/27 36/41/27 51/60/27
f 51/60/27 36/41/27 37/42/27
f 52/61/28 50/59/28 53/62/28
f 53/62/28 50/59/28 51/60/28
f 1/1/35 54/63/36 2/2/37
f 2/2/37 54/63/36 55/64/38
f 55/64/38 54/63/36 56/65/39
f 55/64/38 56/65/39 57/66/40
f 57/66/40 56/65/39 58/67/41
f 57/66/40 58/67/41 59/68/42
f 59/68/42 58/67/41 60/69/43
f 59/70/42 60/71/43 29/72/27
f 29/72/27 60/71/43 31/73/27
f 61/74/29 52/61/29 62/75/29
f 62/75/29 52/61/29 53/62/29
f 26/31/26 27/32/26 62/75/26
f 62/75/26 27/32/26 61/74/26
f 2/76/44 55/77/45 63/78/44
f 63/78/44 55/77/45 64/79/45
f 64/79/45 55/77/45 57/80/46
f 64/79/45 57/80/46 65/81/46
f 65/81/46 57/80/46 59/70/47
f 65/81/46 59/70/47 66/82/47
f 66/82/47 59/70/47 29/72/48
f 66/82/47 29/72/48 67/83/48
f 29/72/48 28/84/48 67/83/48
f 67/83/48 28/84/48 68/85/48
f 28/86/49 33/87/49 68/88/49
f 68/88/49 33/87/49 69/89/49
f 33/87/50 38/90/50 69/89/50
f 69/89/50 38/90/50 70/91/50
f 70/91/50 38/90/50 71/92/51
f 71/92/51 38/90/50 40/93/51
f 71/92/51 40/93/51 72/94/52
f 72/94/52 40/93/51 42/49/52
f 72/94/52 42/49/52 73/95/53
f 73/95/53 42/49/52 44/51/53
f 73/95/53 44/51/53 74/96/54
f 74/96/54 44/51/53 46/97/54
f 74/96/54 46/97/54 75/98/55
f 75/98/55 46/97/54 48/99/55
f 75/98/55 48/99/55 76/100/49
f 76/100/49 48/99/55 34/101/49
f 34/101/49 36/102/49 76/100/49
f 76/100/49 36/102/49 77/103/49
f 78/104/56 62/75/56 79/105/56
f 79/105/56 62/75/56 37/42/56
f 79/105/56 37/42/56 35/40/56
f 62/75/56 78/104/56 26/31/56
f 26/31/56 78/104/56 80/106/56
f 26/31/56 80/106/56 24/29/56
f 24/29/56 80/106/56 81/107/56
f 24/29/56 81/107/56 22/27/56
f 22/27/56 81/107/56 82/108/56
f 22/27/56 82/108/56 20/25/56
f 20/25/56 82/108/56 83/109/56
f 20/25/56 83/109/56 18/23/56
f 18/23/56 83/109/56 84/110/56
f 18/23/56 84/110/56 16/21/56
f 16/21/56 84/110/56 13/18/56
f 13/18/56 84/110/56 85/111/56
f 13/18/56 85/111/56 11/14/56
f 11/14/56 85/111/56 86/112/56
f 11/14/56 86/112/56 9/9/56
f 9/9/56 86/112/56 87/113/56
f 9/9/56 87/113/56 7/7/56
f 7/7/56 87/113/56 5/5/56
f 5/5/56 87/113/56 88/114/56
f 5/5/56 88/114/56 3/3/56
f 3/3/56 88/114/56 89/115/56
f 3/3/56 89/115/56 1/1/56
f 1/1/56 89/115/56 90/116/56
f 1/1/56 90/116/56 47/56/56
f 47/56/56 90/116/56 91/117/56
f 47/56/56 91/117/56 49/58/56
f 49/58/56 91/117/56 92/118/56
f 49/58/56 92/118/56 35/40/56
f 35/40/56 92/118/56 79/105/56
f 47/56/56 45/54/56 1/1/56
f 1/1/56 45/54/56 54/63/56
f 54/63/56 45/54/56 43/48/56
f 54/63/56 43/48/56 56/65/56
f 56/65/56 43/48/56 58/67/56
f 58/67/56 43/48/56 41/46/56
f 58/67/56 41/46/56 60/69/56
f 60/69/56 41/46/56 39/44/56
f 60/69/56 39/44/56 31/36/56
f 31/36/56 39/44/56 30/35/56
f 30/35/56 39/44/56 32/37/56
f 62/75/56 53/62/56 37/42/56
f 37/42/56 53/62/56 51/60/56
f 78/104/27 79/105/27 93/119/27
f 93/119/27 79/105/27 94/120/27
f 95/121/28 80/106/28 93/119/28
f 93/119/28 80/106/28 78/104/28
f 96/122/26 92/118/26 97/123/57
f 97/123/57 92/118/26 91/117/57
f 97/124/57 91/125/57 98/126/58
f 98/126/58 91/125/57 90/127/58
f 98/128/58 90/116/58 99/129/59
f 99/129/59 90/116/58 89/115/59
f 99/129/59 89/115/59 100/130/60
f 100/130/60 89/115/59 88/114/60
f 100/130/60 88/114/60 101/131/61
f 101/131/61 88/114/60 87/113/61
f 101/131/61 87/113/61 102/132/29
f 102/132/29 87/113/61 86/112/29
f 102/132/29 86/112/29 103/133/30
f 103/133/30 86/112/29 85/111/30
f 103/133/30 85/111/30 104/134/62
f 104/134/62 85/111/30 84/110/31
f 104/135/62 84/136/31 105/137/32
f 105/137/32 84/136/31 83/138/32
f 105/139/32 83/109/32 106/140/33
f 106/140/33 83/109/32 82/108/33
f 106/140/33 82/108/33 107/141/34
f 107/141/34 82/108/33 81/107/34
f 107/141/34 81/107/34 95/121/28
f 95/121/28 81/107/34 80/106/28
f 79/105/26 92/118/26 94/120/26
f 94/120/26 92/118/26 96/122/26
f 95/142/49 93/143/49 108/144/49
f 108/144/49 93/143/49 109/145/49
f 93/146/48 94/147/48 109/148/48
f 109/148/48 94/147/48 110/149/48
f 94/150/63 96/151/63 110/152/63
f 110/152/63 96/151/63 111/153/63
f 111/153/63 96/151/63 112/154/64
f 112/154/64 96/151/63 97/124/64
f 112/154/64 97/124/64 113/155/65
f 113/155/65 97/124/64 98/126/65
f 113/155/65 98/126/65 114/156/66
f 114/156/66 98/126/65 99/157/66
f 114/156/66 99/157/66 115/158/67
f 115/158/67 99/157/66 100/159/67
f 115/158/67 100/159/67 116/160/68
f 116/160/68 100/159/67 101/161/68
f 116/162/68 101/163/68 117/164/50
f 117/164/50 101/163/68 102/165/50
f 117/164/50 102/165/50 118/166/51
f 118/166/51 102/165/50 103/167/51
f 118/166/51 103/167/51 119/168/52
f 119/168/52 103/167/51 104/135/52
f 119/168/52 104/135/52 120/169/53
f 120/169/53 104/135/52 105/137/53
f 120/169/53 105/137/53 121/170/54
f 121/170/54 105/137/53 106/171/54
f 121/170/54 106/171/54 122/172/55
f 122/172/55 106/171/54 107/173/55
f 122/172/55 107/173/55 108/144/49
f 108/144/49 107/173/55 95/142/49
f 36/174/48 50/175/48 77/176/48
f 77/176/48 50/175/48 123/177/48
f 50/178/49 52/179/49 123/180/49
f 123/180/49 52/179/49 124/181/49
f 52/179/50 61/182/50 124/181/50
f 124/181/50 61/182/50 125/183/50
f 61/184/63 27/185/63 125/186/63
f 125/186/63 27/185/63 126/187/63
f 27/185/63 25/188/69 126/187/63
f 126/187/63 25/188/69 127/189/69
f 127/189/69 25/188/69 23/190/70
f 127/189/69 23/190/70 128/191/70
f 128/191/70 23/190/70 21/192/71
f 128/191/70 21/192/71 129/193/71
f 129/193/71 21/192/71 19/194/72
f 129/193/71 19/194/72 130/195/72
f 130/196/72 19/197/72 17/198/73
f 130/196/72 17/198/73 131/199/73
f 131/199/73 17/198/73 15/200/74
f 131/199/73 15/200/74 132/201/74
f 132/201/74 15/200/74 14/202/75
f 132/201/74 14/202/75 133/203/75
f 133/203/75 14/202/75 12/16/76
f 133/203/75 12/16/76 134/204/76
f 134/204/76 12/16/76 10/12/77
f 134/204/76 10/12/77 135/205/77
f 135/205/77 10/12/77 8/11/78
f 135/205/77 8/11/78 136/206/78
f 136/206/78 8/11/78 6/207/79
f 136/206/78 6/207/79 137/208/79
f 137/208/79 6/207/79 4/209/80
f 137/208/79 4/209/80 138/210/80
f 138/210/80 4/209/80 63/78/81
f 63/78/81 4/209/80 2/76/81
f 112/211/82 75/212/82 111/213/82
f 111/213/82 75/212/82 76/214/82
f 111/213/82 76/214/82 110/215/82
f 110/215/82 76/214/82 77/216/82
f 110/215/82 77/216/82 125/217/82
f 125/217/82 77/216/82 124/218/82
f 124/218/82 77/216/82 123/219/82
f 75/212/82 112/211/82 74/220/82
f 74/220/82 112/211/82 113/221/82
f 74/220/82 113/221/82 63/222/82
f 63/222/82 113/221/82 114/223/82
f 63/222/82 114/223/82 115/224/82
f 116/225/82 137/226/82 115/224/82
f 115/224/82 137/226/82 138/227/82
f 115/224/82 138/227/82 63/222/82
f 137/226/82 116/225/82 136/228/82
f 136/228/82 116/225/82 117/229/82
f 136/228/82 117/229/82 135/230/82
f 135/230/82 117/229/82 134/231/82
f 134/231/82 117/229/82 118/232/82
f 134/231/82 118/232/82 133/233/82
f 133/233/82 118/232/82 132/234/82
f 132/234/82 118/232/82 119/235/82
f 132/234/82 119/235/82 131/236/82
f 131/236/82 119/235/82 120/237/82
f 131/236/82 120/237/82 130/238/82
f 130/238/82 120/237/82 129/239/82
f 129/239/82 120/237/82 121/240/82
f 129/239/82 121/240/82 128/241/82
f 128/241/82 121/240/82 122/242/82
f 128/241/82 122/242/82 127/243/82
f 127/243/82 122/242/82 108/244/82
f 127/243/82 108/244/82 126/245/82
f 126/245/82 108/244/82 109/246/82
f 126/245/82 109/246/82 125/217/82
f 125/217/82 109/246/82 110/215/82
f 68/247/82 69/248/82 67/249/82
f 67/249/82 69/248/82 70/250/82
f 67/249/82 70/250/82 66/251/82
f 66/251/82 70/250/82 71/252/82
f 66/251/82 71/252/82 65/253/82
f 65/253/82 71/252/82 64/254/82
f 64/254/82 71/252/82 72/255/82
f 64/254/82 72/255/82 63/222/82
f 63/222/82 72/255/82 73/256/82
f 63/222/82 73/256/82 74/220/82
