# Blender v2.80 (sub 75) OBJ File: ''
# www.blender.org
mtllib t.mtl
o t
v 0.075000 -0.550000 0.100000
v -0.075000 -0.550000 0.100000
v 0.125000 -0.600000 0.050000
v -0.125000 -0.600000 0.050000
v -0.075000 0.400000 0.100000
v -0.125000 0.350000 0.050000
v -0.450000 0.400000 0.100000
v -0.500000 0.350000 0.050000
v -0.450000 0.550000 0.100000
v -0.500000 0.600000 0.050000
v 0.450000 0.550000 0.100000
v 0.500000 0.600000 0.050000
v 0.500000 0.350000 0.050000
v 0.450000 0.400000 0.100000
v 0.125000 0.350000 0.050000
v 0.075000 0.400000 0.100000
v 0.500000 0.600000 -0.100000
v 0.500000 0.350000 -0.100000
v 0.125000 0.350000 -0.100000
v 0.125000 -0.600000 -0.100000
v -0.125000 -0.600000 -0.100000
v -0.500000 0.600000 -0.100000
v -0.125000 0.350000 -0.100000
v -0.500000 0.350000 -0.100000
vt 0.258264 0.045455
vt 0.196281 0.045455
vt 0.278926 0.024793
vt 0.175620 0.024793
vt 0.913223 0.020661
vt 0.933884 0.041322
vt 0.913223 0.413223
vt 0.933884 0.433884
vt 0.196281 0.438016
vt 0.041322 0.438017
vt 0.175620 0.417355
vt 0.020661 0.417355
vt 0.041322 0.500000
vt 0.020661 0.520661
vt 0.413223 0.500000
vt 0.433884 0.520661
vt 0.433884 0.417355
vt 0.413223 0.438016
vt 0.278926 0.417355
vt 0.258264 0.438016
vt 0.066116 0.979339
vt 0.066116 0.586777
vt 0.086777 0.958678
vt 0.086777 0.566116
vt 0.428719 0.550620
vt 0.428719 0.653926
vt 0.366736 0.550620
vt 0.366736 0.653926
vt 0.224174 0.553202
vt 0.224174 0.708161
vt 0.162190 0.553202
vt 0.162190 0.708161
vt 0.004132 0.586777
vt 0.004132 0.979339
vt 0.292356 0.550620
vt 0.292356 0.653926
vt 0.230372 0.550620
vt 0.230372 0.653926
vt 0.912190 0.888430
vt 0.912190 0.475207
vt 0.974174 0.888430
vt 0.974174 0.475207
vt 0.995868 0.433884
vt 0.995868 0.041322
vt 0.155992 0.553202
vt 0.155992 0.708161
vt 0.094008 0.553203
vt 0.094008 0.708161
vt 0.298554 0.653926
vt 0.298554 0.550620
vt 0.360537 0.653926
vt 0.360537 0.550620
vt 0.475207 0.128099
vt 0.475207 0.024793
vt 0.630165 0.128099
vt 0.888430 0.024793
vt 0.733471 0.128099
vt 0.888430 0.128099
vt 0.733471 0.520661
vt 0.630165 0.520661
vn 0.0000 -0.7071 0.7071
vn -0.7071 -0.0000 0.7071
vn 0.0000 0.7071 0.7071
vn 0.7071 0.0000 0.7071
vn 1.0000 0.0000 0.0000
vn 0.0000 -1.0000 -0.0000
vn 0.0000 -0.0000 1.0000
vn 0.0000 1.0000 0.0000
vn -1.0000 0.0000 0.0000
vn 0.0000 0.0000 -1.0000
usemtl Steel_-_Satin.021
s 1
f 1/1/1 2/2/1 3/3/1
f 3/3/1 2/2/1 4/4/1
f 5/5/2 6/6/2 2/7/2
f 2/7/2 6/6/2 4/8/2
f 5/9/1 7/10/1 6/11/1
f 6/11/1 7/10/1 8/12/1
f 7/10/2 9/13/2 8/12/2
f 8/12/2 9/13/2 10/14/2
f 9/13/3 11/15/3 10/14/3
f 10/14/3 11/15/3 12/16/3
f 12/16/4 11/15/4 13/17/4
f 13/17/4 11/15/4 14/18/4
f 13/17/1 14/18/1 15/19/1
f 15/19/1 14/18/1 16/20/1
f 3/21/4 15/22/4 1/23/4
f 1/23/4 15/22/4 16/24/4
f 12/25/5 13/26/5 17/27/5
f 17/27/5 13/26/5 18/28/5
f 13/29/6 15/30/6 18/31/6
f 18/31/6 15/30/6 19/32/6
f 15/22/5 3/21/5 19/33/5
f 19/33/5 3/21/5 20/34/5
f 3/35/6 4/36/6 20/37/6
f 20/37/6 4/36/6 21/38/6
f 2/2/7 1/1/7 5/9/7
f 5/9/7 1/1/7 16/20/7
f 5/9/7 16/20/7 9/13/7
f 9/13/7 16/20/7 11/15/7
f 11/15/7 16/20/7 14/18/7
f 9/13/7 7/10/7 5/9/7
f 10/39/8 12/40/8 22/41/8
f 22/41/8 12/40/8 17/42/8
f 4/8/9 6/6/9 21/43/9
f 21/43/9 6/6/9 23/44/9
f 6/45/6 8/46/6 23/47/6
f 23/47/6 8/46/6 24/48/6
f 8/49/9 10/50/9 24/51/9
f 24/51/9 10/50/9 22/52/9
f 24/53/10 22/54/10 23/55/10
f 23/55/10 22/54/10 17/56/10
f 23/55/10 17/56/10 19/57/10
f 19/57/10 17/56/10 18/58/10
f 20/59/10 21/60/10 19/57/10
f 19/57/10 21/60/10 23/55/10
