# Blender v2.80 (sub 75) OBJ File: ''
# www.blender.org
mtllib u.mtl
o u
v -0.500000 0.600000 0.050000
v -0.500000 -0.100000 0.050000
v -0.450000 0.550000 0.100000
v -0.450000 -0.100000 0.100000
v -0.300000 0.550000 0.100000
v -0.250000 0.600000 0.050000
v 0.250000 0.600000 0.050000
v 0.250000 -0.100000 0.050000
v 0.300000 0.550000 0.100000
v 0.300000 -0.100000 0.100000
v -0.300000 -0.100000 0.100000
v -0.294236 -0.158527 0.100000
v -0.250000 -0.100000 0.050000
v -0.243732 -0.155630 0.050000
v -0.277164 -0.214805 0.100000
v -0.225242 -0.208471 0.050000
v -0.249441 -0.266671 0.100000
v -0.195458 -0.255873 0.050000
v -0.212132 -0.312132 0.100000
v -0.155872 -0.295458 0.050000
v -0.166671 -0.349441 0.100000
v -0.108471 -0.325242 0.050000
v -0.114805 -0.377164 0.100000
v -0.055630 -0.343732 0.050000
v -0.058527 -0.394236 0.100000
v 0.000000 -0.350000 0.050000
v 0.000000 -0.400000 0.100000
v 0.058527 -0.394236 0.100000
v 0.055630 -0.343732 0.050000
v 0.114805 -0.377164 0.100000
v 0.108471 -0.325242 0.050000
v 0.166671 -0.349441 0.100000
v 0.155873 -0.295458 0.050000
v 0.212132 -0.312132 0.100000
v 0.195458 -0.255873 0.050000
v 0.249441 -0.266671 0.100000
v 0.225242 -0.208471 0.050000
v 0.277164 -0.214805 0.100000
v 0.243732 -0.155630 0.050000
v 0.294236 -0.158527 0.100000
v 0.500000 0.600000 0.050000
v 0.450000 0.550000 0.100000
v 0.500000 -0.100000 0.050000
v 0.450000 -0.100000 0.100000
v 0.493844 -0.178217 0.050000
v 0.443863 -0.174068 0.100000
v 0.475528 -0.254509 0.050000
v 0.425618 -0.246115 0.100000
v 0.445503 -0.326995 0.050000
v 0.395763 -0.314176 0.100000
v 0.404509 -0.393893 0.050000
v 0.355113 -0.376396 0.100000
v 0.353553 -0.453553 0.050000
v 0.304777 -0.431076 0.100000
v 0.293893 -0.504509 0.050000
v 0.246127 -0.476725 0.100000
v 0.226995 -0.545503 0.050000
v 0.180763 -0.512098 0.100000
v 0.154509 -0.575528 0.050000
v 0.110469 -0.536230 0.100000
v 0.078217 -0.593844 0.050000
v 0.037161 -0.548463 0.100000
v 0.000000 -0.600000 0.050000
v -0.037161 -0.548463 0.100000
v -0.078217 -0.593844 0.050000
v -0.110469 -0.536230 0.100000
v -0.154509 -0.575528 0.050000
v -0.180763 -0.512098 0.100000
v -0.226995 -0.545503 0.050000
v -0.246127 -0.476725 0.100000
v -0.293893 -0.504509 0.050000
v -0.304777 -0.431076 0.100000
v -0.353553 -0.453553 0.050000
v -0.355113 -0.376396 0.100000
v -0.404509 -0.393893 0.050000
v -0.395763 -0.314176 0.100000
v -0.445503 -0.326995 0.050000
v -0.425618 -0.246115 0.100000
v -0.475528 -0.254509 0.050000
v -0.443863 -0.174068 0.100000
v -0.493844 -0.178217 0.050000
v -0.500000 0.600000 -0.100000
v -0.250000 0.600000 -0.100000
v -0.250000 -0.100000 -0.100000
v -0.243732 -0.155630 -0.100000
v -0.225242 -0.208471 -0.100000
v -0.195458 -0.255873 -0.100000
v -0.155872 -0.295458 -0.100000
v -0.108471 -0.325242 -0.100000
v -0.055630 -0.343732 -0.100000
v 0.000000 -0.350000 -0.100000
v 0.055630 -0.343732 -0.100000
v 0.108471 -0.325242 -0.100000
v 0.155873 -0.295458 -0.100000
v 0.195458 -0.255873 -0.100000
v 0.225242 -0.208471 -0.100000
v 0.243732 -0.155630 -0.100000
v 0.250000 -0.100000 -0.100000
v 0.250000 0.600000 -0.100000
v 0.500000 0.600000 -0.100000
v 0.500000 -0.100000 -0.100000
v 0.493844 -0.178217 -0.100000
v 0.475528 -0.254509 -0.100000
v 0.445503 -0.326995 -0.100000
v 0.404509 -0.393893 -0.100000
v 0.353553 -0.453553 -0.100000
v 0.293893 -0.504508 -0.100000
v 0.226995 -0.545503 -0.100000
v 0.154509 -0.575528 -0.100000
v 0.078217 -0.593844 -0.100000
v 0.000000 -0.600000 -0.100000
v -0.078217 -0.593844 -0.100000
v -0.154509 -0.575528 -0.100000
v -0.226995 -0.545503 -0.100000
v -0.293893 -0.504508 -0.100000
v -0.353553 -0.453553 -0.100000
v -0.404509 -0.393893 -0.100000
v -0.445503 -0.326995 -0.100000
v -0.475528 -0.254509 -0.100000
v -0.493844 -0.178217 -0.100000
v -0.500000 -0.100000 -0.100000
vt 0.021142 0.525252
vt 0.021142 0.233445
vt 0.042283 0.504408
vt 0.042283 0.233445
vt 0.105708 0.504408
vt 0.126850 0.525252
vt 0.338266 0.525252
vt 0.338266 0.233445
vt 0.359408 0.504408
vt 0.359408 0.233445
vt 0.254757 0.551487
vt 0.254757 0.575957
vt 0.233615 0.552246
vt 0.126850 0.233445
vt 0.108145 0.209047
vt 0.129500 0.210255
vt 0.115364 0.185587
vt 0.137318 0.188227
vt 0.127086 0.163966
vt 0.149912 0.168467
vt 0.142862 0.145015
vt 0.166650 0.151965
vt 0.162084 0.129462
vt 0.186693 0.139549
vt 0.184015 0.117905
vt 0.209036 0.131842
vt 0.207811 0.110788
vt 0.232558 0.129229
vt 0.232558 0.108385
vt 0.257305 0.110788
vt 0.256080 0.131842
vt 0.281101 0.117905
vt 0.278423 0.139549
vt 0.303032 0.129462
vt 0.298466 0.151965
vt 0.280624 0.564213
vt 0.301766 0.551484
vt 0.301766 0.575882
vt 0.303863 0.564815
vt 0.324667 0.551487
vt 0.324667 0.575948
vt 0.278488 0.551458
vt 0.278488 0.575345
vt 0.256894 0.563427
vt 0.315204 0.168467
vt 0.338030 0.163966
vt 0.327798 0.188227
vt 0.349752 0.185587
vt 0.335616 0.210255
vt 0.356971 0.209047
vt 0.105708 0.233445
vt 0.443975 0.525252
vt 0.422833 0.504408
vt 0.443975 0.233445
vt 0.422833 0.233445
vt 0.441372 0.200839
vt 0.420238 0.202569
vt 0.433627 0.169036
vt 0.412523 0.172535
vt 0.420931 0.138819
vt 0.399900 0.144162
vt 0.403598 0.110931
vt 0.382712 0.118225
vt 0.382052 0.086061
vt 0.361428 0.095431
vt 0.356826 0.064819
vt 0.336629 0.076401
vt 0.328539 0.047730
vt 0.308991 0.061655
vt 0.297890 0.035214
vt 0.279268 0.051596
vt 0.265631 0.027578
vt 0.248271 0.046496
vt 0.232558 0.025012
vt 0.216845 0.046496
vt 0.199485 0.027578
vt 0.185848 0.051596
vt 0.025370 0.794412
vt 0.004228 0.772800
vt 0.025370 0.762107
vt 0.167227 0.035214
vt 0.156126 0.061655
vt 0.004228 0.741877
vt 0.025370 0.729401
vt 0.136577 0.047730
vt 0.128487 0.076401
vt 0.004228 0.711060
vt 0.025370 0.697096
vt 0.108290 0.064819
vt 0.103688 0.095431
vt 0.083064 0.086061
vt 0.082405 0.118225
vt 0.061518 0.110931
vt 0.065216 0.144162
vt 0.044185 0.138819
vt 0.052593 0.172535
vt 0.031489 0.169036
vt 0.044878 0.202569
vt 0.023745 0.200839
vt 0.165962 0.639020
vt 0.165962 0.565327
vt 0.229387 0.639020
vt 0.229387 0.565327
vt 0.096195 0.957238
vt 0.096195 0.665625
vt 0.159620 0.957238
vt 0.159620 0.665625
vt 0.159620 0.642355
vt 0.096195 0.642355
vt 0.159620 0.620061
vt 0.096195 0.620061
vt 0.159620 0.599862
vt 0.096195 0.599862
vt 0.159620 0.582771
vt 0.096195 0.582771
vt 0.159620 0.569643
vt 0.096195 0.569643
vt 0.996829 0.977395
vt 0.933404 0.977395
vt 0.996829 0.967270
vt 0.933404 0.967270
vt 0.996829 0.952719
vt 0.933404 0.952719
vt 0.996829 0.934474
vt 0.933404 0.934474
vt 0.996829 0.913448
vt 0.933404 0.913448
vt 0.996829 0.890696
vt 0.933404 0.890696
vt 0.996829 0.867359
vt 0.933404 0.867359
vt 0.996829 0.844607
vt 0.933404 0.844607
vt 0.996829 0.823581
vt 0.933404 0.823581
vt 0.996829 0.805335
vt 0.933404 0.805335
vt 0.933404 0.598996
vt 0.996829 0.598996
vt 0.322254 0.145015
vt 0.933404 0.525304
vt 0.996829 0.525304
vt 0.996829 0.022850
vt 0.996829 0.314463
vt 0.933404 0.022850
vt 0.933404 0.314463
vt 0.933404 0.346954
vt 0.996829 0.346954
vt 0.933404 0.378459
vt 0.996829 0.378459
vt 0.933404 0.408200
vt 0.996829 0.408200
vt 0.933404 0.435447
vt 0.996829 0.435447
vt 0.933404 0.459527
vt 0.996829 0.459527
vt 0.933404 0.479849
vt 0.996829 0.479850
vt 0.088795 0.923473
vt 0.025370 0.923473
vt 0.088795 0.904248
vt 0.025370 0.904248
vt 0.088795 0.881121
vt 0.025370 0.881121
vt 0.088795 0.854660
vt 0.025370 0.854660
vt 0.088795 0.825518
vt 0.025370 0.825518
vt 0.088795 0.794412
vt 0.088795 0.762107
vt 0.088795 0.729401
vt 0.088795 0.697096
vt 0.088795 0.665990
vt 0.025370 0.665990
vt 0.088795 0.636848
vt 0.025370 0.636848
vt 0.088795 0.610388
vt 0.025370 0.610388
vt 0.088795 0.587260
vt 0.025370 0.587260
vt 0.088795 0.568036
vt 0.025370 0.568036
vt 0.229387 0.866599
vt 0.165962 0.866599
vt 0.229387 0.845358
vt 0.165962 0.845358
vt 0.909091 0.525252
vt 0.803383 0.525252
vt 0.909091 0.233445
vt 0.803383 0.233445
vt 0.906488 0.200839
vt 0.800732 0.210255
vt 0.898743 0.169036
vt 0.792914 0.188227
vt 0.886048 0.138819
vt 0.868714 0.110931
vt 0.780320 0.168467
vt 0.847168 0.086061
vt 0.763582 0.151965
vt 0.821942 0.064819
vt 0.793655 0.047730
vt 0.743539 0.139549
vt 0.763006 0.035214
vt 0.721197 0.131842
vt 0.730747 0.027578
vt 0.697674 0.129229
vt 0.697674 0.025012
vt 0.664602 0.027578
vt 0.674152 0.131842
vt 0.632343 0.035214
vt 0.651809 0.139549
vt 0.601693 0.047730
vt 0.631766 0.151965
vt 0.573407 0.064819
vt 0.548180 0.086061
vt 0.615028 0.168467
vt 0.526635 0.110931
vt 0.602435 0.188227
vt 0.509301 0.138819
vt 0.496605 0.169036
vt 0.594616 0.210255
vt 0.488861 0.200839
vt 0.591966 0.233445
vt 0.486258 0.233445
vt 0.486258 0.525252
vt 0.591966 0.525252
vn -0.7071 -0.0000 0.7071
vn 0.0000 0.7071 0.7071
vn 0.7071 0.0000 0.7071
vn 0.6935 0.1379 0.7071
vn 0.6894 0.1574 0.7071
vn 0.6532 0.2706 0.7071
vn 0.6371 0.3068 0.7071
vn 0.5879 0.3929 0.7071
vn 0.5528 0.4409 0.7071
vn 0.5000 0.5000 0.7071
vn 0.4409 0.5528 0.7071
vn 0.3928 0.5880 0.7071
vn 0.3068 0.6371 0.7071
vn 0.2706 0.6532 0.7071
vn 0.1574 0.6894 0.7071
vn 0.1379 0.6935 0.7071
vn -0.1379 0.6935 0.7071
vn -0.1574 0.6894 0.7071
vn -0.2706 0.6532 0.7071
vn -0.3068 0.6371 0.7071
vn -0.3928 0.5879 0.7071
vn -0.4409 0.5528 0.7071
vn -0.5000 0.5000 0.7071
vn -0.5528 0.4409 0.7071
vn -0.5879 0.3929 0.7071
vn -0.6371 0.3068 0.7071
vn -0.6532 0.2706 0.7071
vn -0.6894 0.1574 0.7071
vn -0.6935 0.1380 0.7071
vn 0.6985 -0.1103 0.7070
vn 0.6975 -0.1164 0.7071
vn 0.6726 -0.2185 0.7070
vn 0.6688 -0.2296 0.7071
vn 0.6301 -0.3210 0.7071
vn 0.6219 -0.3365 0.7071
vn 0.5721 -0.4156 0.7071
vn 0.5580 -0.4343 0.7071
vn 0.5000 -0.5000 0.7071
vn 0.4789 -0.5202 0.7071
vn 0.4156 -0.5721 0.7071
vn 0.3868 -0.5920 0.7071
vn 0.3210 -0.6301 0.7071
vn 0.2840 -0.6475 0.7072
vn 0.2185 -0.6725 0.7071
vn 0.1736 -0.6855 0.7071
vn 0.1106 -0.6984 0.7071
vn 0.0584 -0.7047 0.7071
vn -0.0000 -0.7071 0.7071
vn -0.0584 -0.7047 0.7071
vn -0.1106 -0.6984 0.7071
vn -0.1736 -0.6855 0.7071
vn -0.2185 -0.6725 0.7071
vn -0.2840 -0.6475 0.7072
vn -0.3210 -0.6301 0.7071
vn -0.3868 -0.5920 0.7071
vn -0.4156 -0.5721 0.7071
vn -0.4789 -0.5202 0.7071
vn -0.5000 -0.5000 0.7071
vn -0.5580 -0.4343 0.7071
vn -0.5721 -0.4156 0.7071
vn -0.6219 -0.3365 0.7071
vn -0.6301 -0.3210 0.7071
vn -0.6688 -0.2296 0.7071
vn -0.6726 -0.2185 0.7070
vn -0.6975 -0.1164 0.7071
vn -0.6985 -0.1104 0.7071
vn 0.0000 1.0000 0.0000
vn 1.0000 0.0000 0.0000
vn 0.9749 0.2225 0.0000
vn 0.9010 0.4339 0.0000
vn 0.7818 0.6235 0.0000
vn 0.6235 0.7818 0.0000
vn 0.4339 0.9010 0.0000
vn 0.2225 0.9749 0.0000
vn -0.2225 0.9749 0.0000
vn -0.4339 0.9010 0.0000
vn -0.6235 0.7818 0.0000
vn -0.7818 0.6235 0.0000
vn -0.9010 0.4339 0.0000
vn -0.9749 0.2225 0.0000
vn -1.0000 -0.0000 -0.0000
vn 0.0000 -0.0000 1.0000
vn 0.9877 -0.1564 -0.0000
vn 0.9511 -0.3090 -0.0000
vn 0.8910 -0.4540 -0.0000
vn 0.8090 -0.5878 -0.0000
vn 0.7071 -0.7071 0.0000
vn 0.5878 -0.8090 -0.0000
vn 0.4540 -0.8910 -0.0000
vn 0.3090 -0.9511 0.0000
vn 0.1564 -0.9877 0.0000
vn -0.0000 -1.0000 0.0000
vn -0.1564 -0.9877 0.0000
vn -0.3090 -0.9511 0.0000
vn -0.4540 -0.8910 0.0000
vn -0.5878 -0.8090 -0.0000
vn -0.7071 -0.7071 -0.0000
vn -0.8090 -0.5878 -0.0000
vn -0.8910 -0.4540 -0.0000
vn -0.9511 -0.3090 -0.0000
vn -0.9877 -0.1564 -0.0000
vn 0.0000 0.0000 -1.0000
usemtl Steel_-_Satin.022
s 1
f 1/1/1 2/2/1 3/3/1
f 3/3/1 2/2/1 4/4/1
f 3/3/2 5/5/2 1/1/2
f 1/1/2 5/5/2 6/6/2
f 7/7/1 8/8/1 9/9/1
f 9/9/1 8/8/1 10/10/1
f 11/11/3 12/12/4 13/13/3
f 13/14/3 12/15/4 14/16/5
f 14/16/5 12/15/4 15/17/6
f 14/16/5 15/17/6 16/18/7
f 16/18/7 15/17/6 17/19/8
f 16/18/7 17/19/8 18/20/9
f 18/20/9 17/19/8 19/21/10
f 18/20/9 19/21/10 20/22/11
f 20/22/11 19/21/10 21/23/12
f 20/22/11 21/23/12 22/24/13
f 22/24/13 21/23/12 23/25/14
f 22/24/13 23/25/14 24/26/15
f 24/26/15 23/25/14 25/27/16
f 24/26/15 25/27/16 26/28/2
f 26/28/2 25/27/16 27/29/2
f 26/28/2 27/29/2 28/30/17
f 26/28/2 28/30/17 29/31/18
f 29/31/18 28/30/17 30/32/19
f 29/31/18 30/32/19 31/33/20
f 31/33/20 30/32/19 32/34/21
f 31/33/20 32/34/21 33/35/22
f 33/36/22 32/37/21 34/38/23
f 33/39/22 34/40/23 35/41/24
f 35/42/24 34/43/23 36/44/25
f 35/45/24 36/46/25 37/47/26
f 37/47/26 36/46/25 38/48/27
f 37/47/26 38/48/27 39/49/28
f 39/49/28 38/48/27 40/50/29
f 39/49/28 40/50/29 8/8/1
f 8/8/1 40/50/29 10/10/1
f 11/51/3 13/14/3 5/5/3
f 5/5/3 13/14/3 6/6/3
f 41/52/2 7/7/2 42/53/2
f 42/53/2 7/7/2 9/9/2
f 43/54/3 44/55/3 45/56/30
f 45/56/30 44/55/3 46/57/31
f 45/56/30 46/57/31 47/58/32
f 47/58/32 46/57/31 48/59/33
f 47/58/32 48/59/33 49/60/34
f 49/60/34 48/59/33 50/61/35
f 49/60/34 50/61/35 51/62/36
f 51/62/36 50/61/35 52/63/37
f 51/62/36 52/63/37 53/64/38
f 53/64/38 52/63/37 54/65/39
f 53/64/38 54/65/39 55/66/40
f 55/66/40 54/65/39 56/67/41
f 55/66/40 56/67/41 57/68/42
f 57/68/42 56/67/41 58/69/43
f 57/68/42 58/69/43 59/70/44
f 59/70/44 58/69/43 60/71/45
f 59/70/44 60/71/45 61/72/46
f 61/72/46 60/71/45 62/73/47
f 61/72/46 62/73/47 63/74/48
f 63/74/48 62/73/47 64/75/49
f 63/74/48 64/75/49 65/76/50
f 65/76/50 64/75/49 66/77/51
f 65/78/50 66/79/51 67/80/52
f 67/81/52 66/77/51 68/82/53
f 67/80/52 68/83/53 69/84/54
f 69/85/54 68/82/53 70/86/55
f 69/84/54 70/87/55 71/88/56
f 71/89/56 70/86/55 72/90/57
f 71/89/56 72/90/57 73/91/58
f 73/91/58 72/90/57 74/92/59
f 73/91/58 74/92/59 75/93/60
f 75/93/60 74/92/59 76/94/61
f 75/93/60 76/94/61 77/95/62
f 77/95/62 76/94/61 78/96/63
f 77/95/62 78/96/63 79/97/64
f 79/97/64 78/96/63 80/98/65
f 79/97/64 80/98/65 81/99/66
f 81/99/66 80/98/65 4/4/1
f 81/99/66 4/4/1 2/2/1
f 44/55/3 43/54/3 42/53/3
f 42/53/3 43/54/3 41/52/3
f 1/100/67 6/101/67 82/102/67
f 82/102/67 6/101/67 83/103/67
f 6/104/68 13/105/68 83/106/68
f 83/106/68 13/105/68 84/107/68
f 84/107/68 13/105/68 85/108/69
f 85/108/69 13/105/68 14/109/69
f 85/108/69 14/109/69 86/110/70
f 86/110/70 14/109/69 16/111/70
f 86/110/70 16/111/70 87/112/71
f 87/112/71 16/111/70 18/113/71
f 87/112/71 18/113/71 88/114/72
f 88/114/72 18/113/71 20/115/72
f 88/114/72 20/115/72 89/116/73
f 89/116/73 20/115/72 22/117/73
f 89/118/73 22/119/73 90/120/74
f 90/120/74 22/119/73 24/121/74
f 90/120/74 24/121/74 91/122/67
f 91/122/67 24/121/74 26/123/67
f 91/122/67 26/123/67 92/124/75
f 92/124/75 26/123/67 29/125/75
f 92/124/75 29/125/75 93/126/76
f 93/126/76 29/125/75 31/127/76
f 93/126/76 31/127/76 94/128/77
f 94/128/77 31/127/76 33/129/77
f 94/128/77 33/129/77 95/130/78
f 95/130/78 33/129/77 35/131/78
f 95/130/78 35/131/78 96/132/79
f 96/132/79 35/131/78 37/133/79
f 96/132/79 37/133/79 97/134/80
f 97/134/80 37/133/79 39/135/80
f 97/134/80 39/135/80 98/136/81
f 98/136/81 39/135/80 8/137/81
f 8/137/81 7/138/81 98/136/81
f 98/136/81 7/138/81 99/139/81
f 42/53/82 9/9/82 44/55/82
f 44/55/82 9/9/82 10/10/82
f 44/55/82 10/10/82 46/57/82
f 46/57/82 10/10/82 40/50/82
f 46/57/82 40/50/82 48/59/82
f 48/59/82 40/50/82 38/48/82
f 48/59/82 38/48/82 50/61/82
f 50/61/82 38/48/82 36/46/82
f 50/61/82 36/46/82 52/63/82
f 52/63/82 36/46/82 34/140/82
f 52/63/82 34/140/82 54/65/82
f 54/65/82 34/140/82 32/34/82
f 54/65/82 32/34/82 56/67/82
f 56/67/82 32/34/82 58/69/82
f 58/69/82 32/34/82 30/32/82
f 58/69/82 30/32/82 60/71/82
f 60/71/82 30/32/82 28/30/82
f 60/71/82 28/30/82 62/73/82
f 62/73/82 28/30/82 27/29/82
f 62/73/82 27/29/82 64/75/82
f 64/75/82 27/29/82 25/27/82
f 64/75/82 25/27/82 66/77/82
f 66/77/82 25/27/82 23/25/82
f 66/77/82 23/25/82 68/82/82
f 68/82/82 23/25/82 21/23/82
f 68/82/82 21/23/82 70/86/82
f 70/86/82 21/23/82 72/90/82
f 72/90/82 21/23/82 19/21/82
f 72/90/82 19/21/82 74/92/82
f 74/92/82 19/21/82 17/19/82
f 74/92/82 17/19/82 76/94/82
f 76/94/82 17/19/82 15/17/82
f 76/94/82 15/17/82 78/96/82
f 78/96/82 15/17/82 12/15/82
f 78/96/82 12/15/82 80/98/82
f 80/98/82 12/15/82 11/51/82
f 80/98/82 11/51/82 4/4/82
f 4/4/82 11/51/82 3/3/82
f 3/3/82 11/51/82 5/5/82
f 7/138/67 41/141/67 99/139/67
f 99/139/67 41/141/67 100/142/67
f 41/143/68 43/144/68 100/145/68
f 100/145/68 43/144/68 101/146/68
f 101/146/68 43/144/68 102/147/83
f 102/147/83 43/144/68 45/148/83
f 102/147/83 45/148/83 103/149/84
f 103/149/84 45/148/83 47/150/84
f 103/149/84 47/150/84 104/151/85
f 104/151/85 47/150/84 49/152/85
f 104/151/85 49/152/85 105/153/86
f 105/153/86 49/152/85 51/154/86
f 105/153/86 51/154/86 106/155/87
f 106/155/87 51/154/86 53/156/87
f 106/155/87 53/156/87 107/157/88
f 107/157/88 53/156/87 55/158/88
f 107/159/88 55/160/88 108/161/89
f 108/161/89 55/160/88 57/162/89
f 108/161/89 57/162/89 109/163/90
f 109/163/90 57/162/89 59/164/90
f 109/163/90 59/164/90 110/165/91
f 110/165/91 59/164/90 61/166/91
f 110/165/91 61/166/91 111/167/92
f 111/167/92 61/166/91 63/168/92
f 111/167/92 63/168/92 112/169/93
f 112/169/93 63/168/92 65/78/93
f 112/169/93 65/78/93 113/170/94
f 113/170/94 65/78/93 67/80/94
f 113/170/94 67/80/94 114/171/95
f 114/171/95 67/80/94 69/84/95
f 114/171/95 69/84/95 115/172/96
f 115/172/96 69/84/95 71/88/96
f 115/172/96 71/88/96 116/173/97
f 116/173/97 71/88/96 73/174/97
f 116/173/97 73/174/97 117/175/98
f 117/175/98 73/174/97 75/176/98
f 117/175/98 75/176/98 118/177/99
f 118/177/99 75/176/98 77/178/99
f 118/177/99 77/178/99 119/179/100
f 119/179/100 77/178/99 79/180/100
f 119/179/100 79/180/100 120/181/101
f 120/181/101 79/180/100 81/182/101
f 120/183/101 81/184/101 121/185/81
f 121/185/81 81/184/101 2/186/81
f 2/186/81 1/100/81 121/185/81
f 121/185/81 1/100/81 82/102/81
f 82/187/102 83/188/102 121/189/102
f 121/189/102 83/188/102 84/190/102
f 121/189/102 84/190/102 120/191/102
f 120/191/102 84/190/102 85/192/102
f 120/191/102 85/192/102 119/193/102
f 119/193/102 85/192/102 86/194/102
f 119/193/102 86/194/102 118/195/102
f 118/195/102 86/194/102 117/196/102
f 117/196/102 86/194/102 87/197/102
f 117/196/102 87/197/102 116/198/102
f 116/198/102 87/197/102 88/199/102
f 116/198/102 88/199/102 115/200/102
f 115/200/102 88/199/102 114/201/102
f 114/201/102 88/199/102 89/202/102
f 114/201/102 89/202/102 113/203/102
f 113/203/102 89/202/102 90/204/102
f 113/203/102 90/204/102 112/205/102
f 112/205/102 90/204/102 91/206/102
f 112/205/102 91/206/102 111/207/102
f 111/207/102 91/206/102 110/208/102
f 110/208/102 91/206/102 92/209/102
f 110/208/102 92/209/102 109/210/102
f 109/210/102 92/209/102 93/211/102
f 109/210/102 93/211/102 108/212/102
f 108/212/102 93/211/102 94/213/102
f 108/212/102 94/213/102 107/214/102
f 107/214/102 94/213/102 106/215/102
f 106/215/102 94/213/102 95/216/102
f 106/215/102 95/216/102 105/217/102
f 105/217/102 95/216/102 96/218/102
f 105/217/102 96/218/102 104/219/102
f 104/219/102 96/218/102 103/220/102
f 103/220/102 96/218/102 97/221/102
f 103/220/102 97/221/102 102/222/102
f 102/222/102 97/221/102 98/223/102
f 102/222/102 98/223/102 101/224/102
f 101/224/102 98/223/102 100/225/102
f 100/225/102 98/223/102 99/226/102
