# Blender v2.80 (sub 75) OBJ File: ''
# www.blender.org
mtllib v.mtl
o v
v 0.146395 -0.550000 0.100000
v -0.146395 -0.550000 0.100000
v 0.184963 -0.600000 0.050000
v -0.184963 -0.600000 0.050000
v -0.435179 0.550000 0.100000
v -0.500000 0.600000 0.050000
v -0.280096 0.550000 0.100000
v -0.241528 0.600000 0.050000
v 0.000000 -0.516908 0.100000
v 0.000000 -0.320000 0.050000
v 0.241528 0.600000 0.050000
v 0.280096 0.550000 0.100000
v 0.500000 0.600000 0.050000
v 0.435179 0.550000 0.100000
v 0.000000 -0.320000 -0.100000
v 0.241528 0.600000 -0.100000
v 0.500000 0.600000 -0.100000
v 0.184963 -0.600000 -0.100000
v -0.184963 -0.600000 -0.100000
v -0.500000 0.600000 -0.100000
v -0.241528 0.600000 -0.100000
vt 0.275255 0.047170
vt 0.159528 0.047170
vt 0.290499 0.025729
vt 0.144283 0.025729
vt 0.045384 0.518868
vt 0.019763 0.540309
vt 0.106681 0.518868
vt 0.121926 0.540309
vt 0.217391 0.061360
vt 0.217391 0.145798
vt 0.312857 0.540309
vt 0.328101 0.518868
vt 0.415020 0.540309
vt 0.389399 0.518868
vt 0.002964 0.980274
vt 0.002964 0.585763
vt 0.062253 0.980274
vt 0.062253 0.585763
vt 0.323123 0.571580
vt 0.323123 0.682417
vt 0.263834 0.571580
vt 0.263834 0.682417
vt 0.937747 0.540309
vt 0.937747 0.025729
vt 0.997036 0.540309
vt 0.997036 0.025729
vt 0.133399 0.732600
vt 0.133399 0.573969
vt 0.192688 0.732600
vt 0.192688 0.573969
vt 0.872530 0.540309
vt 0.872530 0.025729
vt 0.931818 0.540309
vt 0.931818 0.025729
vt 0.257905 0.571580
vt 0.257905 0.682417
vt 0.198617 0.571580
vt 0.198617 0.682417
vt 0.068182 0.980274
vt 0.068182 0.585763
vt 0.127470 0.980274
vt 0.127470 0.585763
vt 0.556708 0.025729
vt 0.652174 0.420240
vt 0.454545 0.025729
vt 0.579066 0.540309
vt 0.725282 0.540309
vt 0.849802 0.025729
vt 0.747639 0.025729
vn 0.0000 -0.7071 0.7071
vn -0.6839 -0.1796 0.7071
vn 0.0000 0.7071 0.7071
vn 0.6839 0.1796 0.7071
vn -0.6839 0.1796 0.7071
vn 0.6839 -0.1796 0.7071
vn -0.9672 0.2539 0.0000
vn 0.0000 1.0000 0.0000
vn 0.9672 -0.2539 0.0000
vn 0.0000 -1.0000 0.0000
vn 0.0000 -0.0000 1.0000
vn -0.9672 -0.2539 0.0000
vn 0.9672 0.2539 0.0000
vn 0.0000 0.0000 -1.0000
usemtl Steel_-_Satin.023
s 1
f 1/1/1 2/2/1 3/3/1
f 3/3/1 2/2/1 4/4/1
f 2/2/2 5/5/2 4/4/2
f 4/4/2 5/5/2 6/6/2
f 7/7/3 8/8/3 5/5/3
f 5/5/3 8/8/3 6/6/3
f 9/9/4 10/10/4 7/7/4
f 7/7/4 10/10/4 8/8/4
f 11/11/5 10/10/5 12/12/5
f 12/12/5 10/10/5 9/9/5
f 13/13/3 11/11/3 14/14/3
f 14/14/3 11/11/3 12/12/3
f 13/13/6 14/14/6 3/3/6
f 3/3/6 14/14/6 1/1/6
f 10/15/7 11/16/7 15/17/7
f 15/17/7 11/16/7 16/18/7
f 11/19/8 13/20/8 16/21/8
f 16/21/8 13/20/8 17/22/8
f 13/23/9 3/24/9 17/25/9
f 17/25/9 3/24/9 18/26/9
f 3/27/10 4/28/10 18/29/10
f 18/29/10 4/28/10 19/30/10
f 1/1/11 9/9/11 2/2/11
f 2/2/11 9/9/11 7/7/11
f 2/2/11 7/7/11 5/5/11
f 14/14/11 12/12/11 1/1/11
f 1/1/11 12/12/11 9/9/11
f 4/31/12 6/32/12 19/33/12
f 19/33/12 6/32/12 20/34/12
f 6/35/8 8/36/8 20/37/8
f 20/37/8 8/36/8 21/38/8
f 8/39/13 10/40/13 21/41/13
f 21/41/13 10/40/13 15/42/13
f 21/43/14 15/44/14 20/45/14
f 20/45/14 15/44/14 19/46/14
f 19/46/14 15/44/14 18/47/14
f 18/47/14 15/44/14 17/48/14
f 17/48/14 15/44/14 16/49/14
