# Blender v2.80 (sub 75) OBJ File: ''
# www.blender.org
mtllib w.mtl
o w
v 0.000000 0.082517 0.100000
v 0.000000 -0.122591 0.050000
v 0.158988 -0.550000 0.100000
v 0.120000 -0.600000 0.050000
v -0.158987 -0.550000 0.100000
v -0.120000 -0.600000 0.050000
v -0.353993 -0.550000 0.100000
v -0.400000 -0.600000 0.050000
v -0.445660 0.550000 0.100000
v -0.500000 0.600000 0.050000
v -0.296007 0.550000 0.100000
v -0.250000 0.600000 0.050000
v -0.218721 -0.377428 0.100000
v -0.193877 -0.073480 0.050000
v -0.061013 0.250000 0.100000
v -0.100000 0.300000 0.050000
v 0.100000 0.300000 0.050000
v 0.061013 0.250000 0.100000
v 0.193877 -0.073480 0.050000
v 0.218721 -0.377428 0.100000
v 0.250000 0.600000 0.050000
v 0.296007 0.550000 0.100000
v 0.500000 0.600000 0.050000
v 0.445660 0.550000 0.100000
v 0.400000 -0.600000 0.050000
v 0.353993 -0.550000 0.100000
v -0.100000 0.300000 -0.100000
v 0.100000 0.300000 -0.100000
v 0.193877 -0.073480 -0.100000
v 0.250000 0.600000 -0.100000
v 0.500000 0.600000 -0.100000
v 0.400000 -0.600000 -0.100000
v 0.120000 -0.600000 -0.100000
v 0.000000 -0.122591 -0.100000
v -0.500000 0.600000 -0.100000
v -0.250000 0.600000 -0.100000
v -0.193877 -0.073480 -0.100000
v -0.120000 -0.600000 -0.100000
v -0.400000 -0.600000 -0.100000
vt 0.217391 0.360300
vt 0.217391 0.260773
vt 0.280232 0.053377
vt 0.264822 0.029115
vt 0.154550 0.053377
vt 0.169960 0.029115
vt 0.077473 0.053377
vt 0.059288 0.029115
vt 0.041241 0.587143
vt 0.019763 0.611405
vt 0.100392 0.587143
vt 0.118577 0.611405
vt 0.130940 0.137116
vt 0.140760 0.284604
vt 0.193275 0.441570
vt 0.177866 0.465832
vt 0.256917 0.465832
vt 0.241507 0.441570
vt 0.294022 0.284604
vt 0.303842 0.137116
vt 0.316205 0.611405
vt 0.334390 0.587143
vt 0.415020 0.611405
vt 0.393541 0.587143
vt 0.375494 0.029115
vt 0.357309 0.053377
vt 0.583992 0.778813
vt 0.583992 0.875862
vt 0.524704 0.778813
vt 0.524704 0.875862
vt 0.263834 0.830809
vt 0.263834 0.649581
vt 0.323123 0.830809
vt 0.323123 0.649581
vt 0.068182 0.983660
vt 0.068182 0.656859
vt 0.127470 0.983660
vt 0.127470 0.656859
vt 0.589921 0.767895
vt 0.589921 0.646585
vt 0.649210 0.767895
vt 0.649210 0.646585
vt 0.872530 0.611405
vt 0.872529 0.029115
vt 0.931818 0.611405
vt 0.931818 0.029115
vt 0.459486 0.783180
vt 0.459486 0.647313
vt 0.518775 0.783180
vt 0.518775 0.647313
vt 0.198617 0.883761
vt 0.198617 0.652102
vt 0.257905 0.883761
vt 0.257905 0.652102
vt 0.524704 0.767895
vt 0.524704 0.646585
vt 0.583992 0.767895
vt 0.583992 0.646585
vt 0.002965 0.983660
vt 0.002964 0.656859
vt 0.062253 0.983660
vt 0.062253 0.656859
vt 0.329052 0.830809
vt 0.329052 0.649581
vt 0.388340 0.830809
vt 0.388340 0.649581
vt 0.133399 0.883761
vt 0.133399 0.652102
vt 0.192688 0.883761
vt 0.192688 0.652102
vt 0.394269 0.783180
vt 0.394269 0.647313
vt 0.453558 0.783180
vt 0.453558 0.647313
vt 0.937747 0.611405
vt 0.937747 0.029115
vt 0.997036 0.611405
vt 0.997036 0.029115
vt 0.604743 0.611405
vt 0.494071 0.611405
vt 0.575543 0.355915
vt 0.454545 0.029115
vt 0.553360 0.029115
vt 0.652174 0.379746
vt 0.612648 0.174687
vt 0.691699 0.174687
vt 0.728805 0.355915
vt 0.699605 0.611405
vt 0.810277 0.611405
vt 0.849802 0.029115
vt 0.750988 0.029115
vn -0.6858 -0.1724 0.7071
vn 0.6858 -0.1724 0.7071
vn 0.0000 -0.7071 0.7071
vn -0.7047 -0.0587 0.7071
vn 0.0000 0.7071 0.7071
vn 0.7047 0.0587 0.7071
vn -0.6858 0.1724 0.7071
vn 0.6858 0.1724 0.7071
vn -0.7047 0.0587 0.7071
vn 0.7047 -0.0587 0.7071
vn 0.0000 1.0000 0.0000
vn 0.9698 0.2438 0.0000
vn -0.9965 0.0830 0.0000
vn 0.9965 -0.0830 0.0000
vn 0.0000 -1.0000 0.0000
vn -0.9698 -0.2438 0.0000
vn -0.0000 -0.0000 1.0000
vn 0.9965 0.0830 0.0000
vn -0.9698 0.2438 0.0000
vn 0.9698 -0.2438 -0.0000
vn -0.9965 -0.0830 0.0000
vn -0.0000 0.0000 -1.0000
usemtl Steel_-_Satin.024
s 1
f 1/1/1 2/2/1 3/3/1
f 3/3/1 2/2/1 4/4/1
f 1/1/2 5/5/2 2/2/2
f 2/2/2 5/5/2 6/6/2
f 5/5/3 7/7/3 6/6/3
f 6/6/3 7/7/3 8/8/3
f 7/7/4 9/9/4 8/8/4
f 8/8/4 9/9/4 10/10/4
f 11/11/5 12/12/5 9/9/5
f 9/9/5 12/12/5 10/10/5
f 13/13/6 14/14/6 11/11/6
f 11/11/6 14/14/6 12/12/6
f 13/13/7 15/15/7 14/14/7
f 14/14/7 15/15/7 16/16/7
f 17/17/5 16/16/5 18/18/5
f 18/18/5 16/16/5 15/15/5
f 17/17/8 18/18/8 19/19/8
f 19/19/8 18/18/8 20/20/8
f 21/21/9 19/19/9 22/22/9
f 22/22/9 19/19/9 20/20/9
f 23/23/5 21/21/5 24/24/5
f 24/24/5 21/21/5 22/22/5
f 23/23/10 24/24/10 25/25/10
f 25/25/10 24/24/10 26/26/10
f 25/25/3 26/26/3 4/4/3
f 4/4/3 26/26/3 3/3/3
f 16/27/11 17/28/11 27/29/11
f 27/29/11 17/28/11 28/30/11
f 17/31/12 19/32/12 28/33/12
f 28/33/12 19/32/12 29/34/12
f 19/35/13 21/36/13 29/37/13
f 29/37/13 21/36/13 30/38/13
f 21/39/11 23/40/11 30/41/11
f 30/41/11 23/40/11 31/42/11
f 23/43/14 25/44/14 31/45/14
f 31/45/14 25/44/14 32/46/14
f 25/47/15 4/48/15 32/49/15
f 32/49/15 4/48/15 33/50/15
f 4/51/16 2/52/16 33/53/16
f 33/53/16 2/52/16 34/54/16
f 3/3/17 20/20/17 1/1/17
f 1/1/17 20/20/17 18/18/17
f 1/1/17 18/18/17 15/15/17
f 3/3/17 26/26/17 20/20/17
f 20/20/17 26/26/17 24/24/17
f 20/20/17 24/24/17 22/22/17
f 15/15/17 13/13/17 1/1/17
f 1/1/17 13/13/17 5/5/17
f 5/5/17 13/13/17 7/7/17
f 7/7/17 13/13/17 9/9/17
f 9/9/17 13/13/17 11/11/17
f 10/55/11 12/56/11 35/57/11
f 35/57/11 12/56/11 36/58/11
f 12/59/18 14/60/18 36/61/18
f 36/61/18 14/60/18 37/62/18
f 14/63/19 16/64/19 37/65/19
f 37/65/19 16/64/19 27/66/19
f 2/67/20 6/68/20 34/69/20
f 34/69/20 6/68/20 38/70/20
f 6/71/15 8/72/15 38/73/15
f 38/73/15 8/72/15 39/74/15
f 8/75/21 10/76/21 39/77/21
f 39/77/21 10/76/21 35/78/21
f 38/79/22 39/80/22 37/81/22
f 37/81/22 39/80/22 35/82/22
f 37/81/22 35/82/22 36/83/22
f 38/79/22 37/81/22 34/84/22
f 34/84/22 37/81/22 27/85/22
f 34/84/22 27/85/22 28/86/22
f 28/86/22 29/87/22 34/84/22
f 34/84/22 29/87/22 33/88/22
f 33/88/22 29/87/22 32/89/22
f 32/89/22 29/87/22 31/90/22
f 31/90/22 29/87/22 30/91/22
