# Blender v2.80 (sub 75) OBJ File: ''
# www.blender.org
mtllib z.mtl
o z
v -0.296670 -0.400000 0.100000
v 0.450000 -0.400000 0.100000
v -0.175286 -0.350000 0.050000
v 0.500000 -0.350000 0.050000
v 0.450000 -0.550000 0.100000
v 0.500000 -0.600000 0.050000
v -0.450000 -0.550000 0.100000
v -0.500000 -0.600000 0.050000
v -0.450000 -0.340826 0.100000
v -0.500000 -0.320000 0.050000
v 0.296670 0.400000 0.100000
v 0.175286 0.350000 0.050000
v -0.450000 0.400000 0.100000
v -0.500000 0.350000 0.050000
v -0.500000 0.600000 0.050000
v -0.450000 0.550000 0.100000
v 0.500000 0.600000 0.050000
v 0.450000 0.550000 0.100000
v 0.500000 0.320000 0.050000
v 0.450000 0.340826 0.100000
v -0.500000 0.350000 -0.100000
v -0.500000 0.600000 -0.100000
v 0.500000 0.600000 -0.100000
v 0.500000 0.320000 -0.100000
v -0.175286 -0.350000 -0.100000
v 0.500000 -0.350000 -0.100000
v 0.500000 -0.600000 -0.100000
v -0.500000 -0.600000 -0.100000
v -0.500000 -0.320000 -0.100000
v 0.175286 0.350000 -0.100000
vt 0.107116 0.118182
vt 0.422833 0.118182
vt 0.158441 0.140909
vt 0.443975 0.140909
vt 0.422833 0.050000
vt 0.443975 0.027273
vt 0.042283 0.050000
vt 0.021142 0.027273
vt 0.042283 0.145079
vt 0.021142 0.154546
vt 0.358000 0.481818
vt 0.306675 0.459091
vt 0.042283 0.481818
vt 0.021142 0.459091
vt 0.021142 0.572727
vt 0.042283 0.550000
vt 0.443975 0.572727
vt 0.422833 0.550000
vt 0.443975 0.445454
vt 0.422833 0.454921
vt 0.491544 0.719318
vt 0.491544 0.605682
vt 0.554969 0.719318
vt 0.554969 0.605682
vt 0.933404 0.977273
vt 0.933404 0.522727
vt 0.996829 0.977273
vt 0.996829 0.522727
vt 0.352009 0.733636
vt 0.352009 0.606364
vt 0.415434 0.733636
vt 0.415434 0.606364
vt 0.136364 0.615347
vt 0.136364 0.922296
vt 0.072939 0.615347
vt 0.072939 0.922296
vt 0.142706 0.922296
vt 0.142706 0.615347
vt 0.206131 0.922296
vt 0.206131 0.615347
vt 0.421776 0.719318
vt 0.421776 0.605682
vt 0.485201 0.719318
vt 0.485201 0.605682
vt 0.996829 0.022727
vt 0.996829 0.477273
vt 0.933404 0.022727
vt 0.933404 0.477273
vt 0.282241 0.733636
vt 0.282241 0.606364
vt 0.345666 0.733636
vt 0.345666 0.606364
vt 0.003171 0.922296
vt 0.003171 0.615347
vt 0.066596 0.922296
vt 0.066596 0.615347
vt 0.275899 0.615347
vt 0.275899 0.922296
vt 0.212474 0.615347
vt 0.212474 0.922296
vt 0.486258 0.140909
vt 0.486258 0.027273
vt 0.771791 0.140909
vt 0.909091 0.027273
vt 0.909091 0.154545
vt 0.623558 0.459091
vt 0.486258 0.445455
vt 0.486258 0.572727
vt 0.909091 0.572727
vt 0.909091 0.459091
vn 0.0000 0.7071 0.7071
vn 0.7071 -0.0000 0.7071
vn 0.0000 -0.7071 0.7071
vn -0.7071 0.0000 0.7071
vn -0.4980 0.5020 0.7071
vn 0.4980 -0.5020 0.7071
vn -1.0000 0.0000 0.0000
vn 0.0000 1.0000 0.0000
vn 1.0000 0.0000 0.0000
vn 0.7043 -0.7099 -0.0000
vn 0.0000 -0.0000 1.0000
vn 0.0000 -1.0000 0.0000
vn -0.7043 0.7099 0.0000
vn 0.0000 0.0000 -1.0000
usemtl Steel_-_Satin.026
s 1
f 1/1/1 2/2/1 3/3/1
f 3/3/1 2/2/1 4/4/1
f 5/5/2 6/6/2 2/2/2
f 2/2/2 6/6/2 4/4/2
f 5/5/3 7/7/3 6/6/3
f 6/6/3 7/7/3 8/8/3
f 9/9/4 10/10/4 7/7/4
f 7/7/4 10/10/4 8/8/4
f 11/11/5 12/12/5 9/9/5
f 9/9/5 12/12/5 10/10/5
f 11/11/3 13/13/3 12/12/3
f 12/12/3 13/13/3 14/14/3
f 15/15/4 14/14/4 16/16/4
f 16/16/4 14/14/4 13/13/4
f 17/17/1 15/15/1 18/18/1
f 18/18/1 15/15/1 16/16/1
f 17/17/2 18/18/2 19/19/2
f 19/19/2 18/18/2 20/20/2
f 19/19/6 20/20/6 3/3/6
f 3/3/6 20/20/6 1/1/6
f 14/21/7 15/22/7 21/23/7
f 21/23/7 15/22/7 22/24/7
f 15/25/8 17/26/8 22/27/8
f 22/27/8 17/26/8 23/28/8
f 17/29/9 19/30/9 23/31/9
f 23/31/9 19/30/9 24/32/9
f 19/33/10 3/34/10 24/35/10
f 24/35/10 3/34/10 25/36/10
f 3/37/8 4/38/8 25/39/8
f 25/39/8 4/38/8 26/40/8
f 2/2/11 1/1/11 5/5/11
f 5/5/11 1/1/11 7/7/11
f 7/7/11 1/1/11 9/9/11
f 9/9/11 1/1/11 11/11/11
f 11/11/11 1/1/11 20/20/11
f 11/11/11 20/20/11 18/18/11
f 18/18/11 16/16/11 11/11/11
f 11/11/11 16/16/11 13/13/11
f 4/41/9 6/42/9 26/43/9
f 26/43/9 6/42/9 27/44/9
f 6/45/12 8/46/12 27/47/12
f 27/47/12 8/46/12 28/48/12
f 8/49/7 10/50/7 28/51/7
f 28/51/7 10/50/7 29/52/7
f 10/53/13 12/54/13 29/55/13
f 29/55/13 12/54/13 30/56/13
f 12/57/12 14/58/12 30/59/12
f 30/59/12 14/58/12 21/60/12
f 21/61/14 22/62/14 30/63/14
f 30/63/14 22/62/14 23/64/14
f 30/63/14 23/64/14 24/65/14
f 24/65/14 25/66/14 30/63/14
f 30/63/14 25/66/14 29/67/14
f 29/67/14 25/66/14 28/68/14
f 28/68/14 25/66/14 27/69/14
f 27/69/14 25/66/14 26/70/14
