# Blender v2.80 (sub 75) OBJ File: ''
# www.blender.org
mtllib arrow.mtl
o arrow
v 0.300000 -0.070000 0.100000
v -0.300000 -0.070000 0.100000
v 0.300000 -0.120000 0.050000
v -0.300000 -0.120000 0.050000
v 0.300000 -0.053852 0.100000
v 0.300000 -0.000000 0.050000
v 0.300000 -0.000000 -0.050000
v 0.300000 -0.120000 -0.050000
v 0.300000 -0.053852 -0.100000
v 0.300000 -0.070000 -0.100000
v -0.300000 -0.120000 -0.050000
v -0.300000 -0.070000 -0.100000
v -0.300000 -0.053852 -0.100000
v -0.300000 -0.000000 -0.050000
v 0.000000 0.066148 -0.100000
v 0.000000 0.120000 -0.050000
v 0.000000 0.120000 0.050000
v -0.300000 -0.000000 0.050000
v -0.300000 -0.053852 0.100000
v 0.000000 0.066148 0.100000
vt 0.080519 0.034091
vt 0.080520 0.715909
vt 0.015584 0.034091
vt 0.015585 0.715909
vt 0.098701 0.761364
vt 0.163636 0.818182
vt 0.077730 0.761364
vt 0.007792 0.818182
vt 0.007792 0.931818
vt 0.163636 0.931818
vt 0.077730 0.988636
vt 0.098701 0.988636
vt 0.818831 0.034091
vt 0.818831 0.715909
vt 0.688961 0.034091
vt 0.688961 0.715909
vt 0.624026 0.034091
vt 0.624026 0.715909
vt 0.580977 0.715909
vt 0.511039 0.715909
vt 0.425132 0.375000
vt 0.355195 0.375000
vt 0.511039 0.034091
vt 0.580976 0.034091
vt 0.964935 0.031653
vt 0.964935 0.297535
vt 0.835065 0.031653
vt 0.835065 0.297535
vt 0.964935 0.664705
vt 0.835065 0.664705
vt 0.927273 0.934994
vt 0.906301 0.934994
vt 0.992208 0.878176
vt 0.836364 0.878176
vt 0.992208 0.764539
vt 0.836364 0.764539
vt 0.906301 0.707721
vt 0.927273 0.707721
vt 0.327273 0.375000
vt 0.171429 0.715909
vt 0.257335 0.375000
vt 0.101491 0.715909
vt 0.101491 0.034091
vt 0.171429 0.034091
vt 0.601948 0.034091
vt 0.601948 0.715909
vn 0.0000 -0.7071 0.7071
vn 1.0000 0.0000 0.0000
vn 0.0000 -1.0000 0.0000
vn 0.0000 -0.7071 -0.7071
vn -0.2626 0.6565 -0.7071
vn 0.2626 0.6565 -0.7071
vn 0.3714 0.9285 0.0000
vn -0.3714 0.9285 0.0000
vn -1.0000 0.0000 0.0000
vn -0.2626 0.6565 0.7071
vn 0.2626 0.6565 0.7071
vn 0.0000 0.0000 1.0000
vn 0.0000 0.0000 -1.0000
usemtl Steel_-_Satin
s 1
f 1/1/1 2/2/1 3/3/1
f 3/3/1 2/2/1 4/4/1
f 1/5/2 3/6/2 5/7/2
f 5/7/2 3/6/2 6/8/2
f 6/8/2 3/6/2 7/9/2
f 7/9/2 3/6/2 8/10/2
f 7/9/2 8/10/2 9/11/2
f 9/11/2 8/10/2 10/12/2
f 3/13/3 4/14/3 8/15/3
f 8/15/3 4/14/3 11/16/3
f 8/15/4 11/16/4 10/17/4
f 10/17/4 11/16/4 12/18/4
f 13/19/5 14/20/5 15/21/5
f 15/21/5 14/20/5 16/22/5
f 16/22/6 7/23/6 15/21/6
f 15/21/6 7/23/6 9/24/6
f 7/25/7 16/26/7 6/27/7
f 6/27/7 16/26/7 17/28/7
f 16/26/8 14/29/8 17/28/8
f 17/28/8 14/29/8 18/30/8
f 2/31/9 19/32/9 4/33/9
f 4/33/9 19/32/9 18/34/9
f 4/33/9 18/34/9 11/35/9
f 11/35/9 18/34/9 14/36/9
f 11/35/9 14/36/9 13/37/9
f 13/37/9 12/38/9 11/35/9
f 17/39/10 18/40/10 20/41/10
f 20/41/10 18/40/10 19/42/10
f 5/43/11 6/44/11 20/41/11
f 20/41/11 6/44/11 17/39/11
f 19/42/12 2/2/12 20/41/12
f 20/41/12 2/2/12 1/1/12
f 20/41/12 1/1/12 5/43/12
f 9/24/13 10/45/13 15/21/13
f 15/21/13 10/45/13 12/46/13
f 15/21/13 12/46/13 13/19/13
