# Blender v2.80 (sub 75) OBJ File: ''
# www.blender.org
mtllib left_key.mtl
o left_key
v 0.050000 0.090000 -0.650000
v 0.040000 0.100000 -0.650000
v 0.050000 0.090000 0.200000
v 0.040000 0.100000 0.210000
v 0.100000 0.100000 0.210000
v 0.110000 0.090000 0.200000
v 0.100000 0.100000 0.640000
v 0.110000 0.090000 0.650000
v -0.100000 0.100000 0.640000
v -0.110000 0.090000 0.650000
v -0.100000 0.100000 -0.650000
v -0.110000 0.090000 -0.650000
v 0.050000 0.000000 -0.650000
v 0.050000 -0.000000 0.200000
v 0.110000 -0.000000 0.200000
v 0.110000 -0.000000 0.650000
v -0.110000 -0.000000 0.650000
v -0.110000 0.000000 -0.650000
vt 0.338945 0.045105
vt 0.350168 0.045105
vt 0.338945 0.639511
vt 0.350168 0.646504
vt 0.835578 0.588811
vt 0.768238 0.588811
vt 0.824355 0.581818
vt 0.757015 0.581818
vt 0.758698 0.323427
vt 0.758698 0.022727
vt 0.769922 0.330420
vt 0.769922 0.015734
vt 0.870932 0.360839
vt 0.870932 0.500699
vt 0.859708 0.353846
vt 0.859708 0.507692
vt 0.636364 0.954545
vt 0.625140 0.954545
vt 0.636364 0.052448
vt 0.625140 0.045455
vt 0.507295 0.045105
vt 0.507295 0.947203
vt 0.282828 0.947203
vt 0.282828 0.646504
vt 0.748036 0.029720
vt 0.748036 0.624126
vt 0.647026 0.029720
vt 0.647026 0.624126
vt 0.824355 0.518881
vt 0.757015 0.518881
vt 0.870932 0.330420
vt 0.870932 0.015734
vt 0.758698 0.353846
vt 0.758698 0.507692
vt 0.524130 0.045455
vt 0.524130 0.954545
vt 0.983165 0.005594
vt 0.994388 0.012587
vt 0.882155 0.005594
vt 0.994388 0.110490
vt 0.882155 0.117483
vt 0.983165 0.117483
vt 0.079686 0.954545
vt 0.079686 0.360140
vt 0.259259 0.954545
vt 0.259259 0.045455
vt 0.012346 0.045455
vt 0.012346 0.360140
vn 0.7071 0.7071 0.0000
vn 0.0000 0.7071 -0.7071
vn 0.0000 0.7071 0.7071
vn -0.7071 0.7071 0.0000
vn 0.0000 1.0000 0.0000
vn 1.0000 0.0000 0.0000
vn 0.0000 0.0000 -1.0000
vn 0.0000 0.0000 1.0000
vn -1.0000 0.0000 0.0000
vn 0.0000 -1.0000 -0.0000
usemtl Steel_-_Satin
s 1
f 1/1/1 2/2/1 3/3/1
f 3/3/1 2/2/1 4/4/1
f 4/5/2 5/6/2 3/7/2
f 3/7/2 5/6/2 6/8/2
f 5/9/1 7/10/1 6/11/1
f 6/11/1 7/10/1 8/12/1
f 7/13/3 9/14/3 8/15/3
f 8/15/3 9/14/3 10/16/3
f 11/17/4 12/18/4 9/19/4
f 9/19/4 12/18/4 10/20/4
f 2/2/5 11/21/5 4/4/5
f 4/4/5 11/21/5 9/22/5
f 4/4/5 9/22/5 7/23/5
f 7/23/5 5/24/5 4/4/5
f 1/25/6 3/26/6 13/27/6
f 13/27/6 3/26/6 14/28/6
f 3/7/7 6/8/7 14/29/7
f 14/29/7 6/8/7 15/30/7
f 6/11/6 8/12/6 15/31/6
f 15/31/6 8/12/6 16/32/6
f 8/15/8 10/16/8 16/33/8
f 16/33/8 10/16/8 17/34/8
f 10/20/9 12/18/9 17/35/9
f 17/35/9 12/18/9 18/36/9
f 12/37/7 11/38/7 18/39/7
f 18/39/7 11/38/7 2/40/7
f 18/39/7 2/40/7 13/41/7
f 13/41/7 2/40/7 1/42/7
f 13/43/10 14/44/10 18/45/10
f 18/45/10 14/44/10 17/46/10
f 17/46/10 14/44/10 16/47/10
f 16/47/10 14/44/10 15/48/10
