# Blender v2.80 (sub 75) OBJ File: ''
# www.blender.org
mtllib arrow.mtl
o arrow
v -0.350000 -0.033852 0.100000
v -0.400000 -0.000000 0.050000
v -0.350000 -0.110000 0.100000
v -0.400000 -0.160000 0.050000
v 0.000000 0.106148 0.100000
v 0.000000 0.160000 0.050000
v 0.350000 -0.033852 0.100000
v 0.400000 -0.000000 0.050000
v 0.400000 -0.160000 0.050000
v 0.350000 -0.110000 0.100000
v 0.400000 0.000000 -0.100000
v 0.400000 -0.160000 -0.100000
v -0.400000 -0.160000 -0.100000
v -0.400000 0.000000 -0.100000
v 0.000000 0.160000 -0.100000
vt 0.836411 0.982832
vt 0.805326 0.934985
vt 0.906336 0.982832
vt 0.952250 0.934985
vt 0.990817 0.067934
vt 0.990817 0.428662
vt 0.944904 0.035540
vt 0.944904 0.447801
vt 0.534112 0.418660
vt 0.405554 0.083732
vt 0.583563 0.418660
vt 0.436639 0.035885
vt 0.330579 0.942584
vt 0.477502 0.942584
vt 0.376492 0.990431
vt 0.446417 0.990431
vt 0.742884 0.803828
vt 0.742883 0.038278
vt 0.788797 0.755981
vt 0.788797 0.086124
vt 0.477502 0.799043
vt 0.330579 0.799043
vt 0.605142 0.038278
vt 0.605142 0.803828
vt 0.952250 0.791444
vt 0.805326 0.791444
vt 0.405554 0.753588
vt 0.335629 0.753588
vt 0.335629 0.083732
vt 0.944904 0.746335
vt 0.807163 0.447801
vt 0.807163 0.746335
vt 0.807163 0.035540
vt 0.161616 0.803828
vt 0.014692 0.421053
vt 0.308540 0.803828
vt 0.308540 0.038278
vt 0.161616 0.038278
vn -0.7071 0.0000 0.7071
vn -0.2626 0.6565 0.7071
vn 0.2626 0.6565 0.7071
vn 0.7071 0.0000 0.7071
vn 0.0000 -0.7071 0.7071
vn 1.0000 0.0000 0.0000
vn 0.0000 -1.0000 -0.0000
vn -1.0000 0.0000 0.0000
vn -0.0000 0.0000 1.0000
vn 0.3714 0.9285 0.0000
vn -0.3714 0.9285 0.0000
vn 0.0000 0.0000 -1.0000
usemtl Steel_-_Satin.018
s 1
f 1/1/1 2/2/1 3/3/1
f 3/3/1 2/2/1 4/4/1
f 1/5/2 5/6/2 2/7/2
f 2/7/2 5/6/2 6/8/2
f 5/9/3 7/10/3 6/11/3
f 6/11/3 7/10/3 8/12/3
f 9/13/4 8/14/4 10/15/4
f 10/15/4 8/14/4 7/16/4
f 4/17/5 9/18/5 3/19/5
f 3/19/5 9/18/5 10/20/5
f 8/14/6 9/13/6 11/21/6
f 11/21/6 9/13/6 12/22/6
f 9/18/7 4/17/7 12/23/7
f 12/23/7 4/17/7 13/24/7
f 4/4/8 2/2/8 13/25/8
f 13/25/8 2/2/8 14/26/8
f 1/27/9 3/28/9 5/9/9
f 5/9/9 3/28/9 10/29/9
f 5/9/9 10/29/9 7/10/9
f 6/8/10 8/30/10 15/31/10
f 15/31/10 8/30/10 11/32/10
f 2/7/11 6/8/11 14/33/11
f 14/33/11 6/8/11 15/31/11
f 14/34/12 15/35/12 13/36/12
f 13/36/12 15/35/12 12/37/12
f 12/37/12 15/35/12 11/38/12
