# Blender v2.80 (sub 75) OBJ File: ''
# www.blender.org
o 7-Segment_Display
v -0.545668 -0.795514 0.490114
v -0.472418 -0.063001 0.490114
v -0.569427 -0.793138 0.401002
v -0.492805 -0.026915 0.401002
v -0.347232 -0.122332 0.490114
v -0.321797 -0.107962 0.401002
v -0.402478 -0.674791 0.490114
v -0.379566 -0.685648 0.401002
v -0.544329 -0.816643 0.490114
v -0.548585 -0.835836 0.450697
v -0.550894 -0.856976 0.401002
v -0.545542 -0.809663 0.490114
v -0.568799 -0.815775 0.401002
v -0.562486 -0.837522 0.401002
v -0.545990 -0.802592 0.490114
v -0.487154 0.029592 0.401002
v -0.299131 0.118703 0.401002
v -0.459190 0.069268 0.490114
v -0.321548 0.134502 0.490114
v -0.409027 0.810871 0.401002
v -0.395238 0.809492 0.452722
v -0.387371 0.787457 0.490114
v -0.407717 0.819584 0.401002
v -0.405555 0.828125 0.401002
v -0.402559 0.836411 0.401002
v -0.268173 0.668257 0.490114
v -0.243288 0.677140 0.401002
v 0.252163 -0.065235 0.490114
v -0.252163 -0.065235 0.490114
v 0.257536 -0.089112 0.401002
v -0.257535 -0.089112 0.401002
v -0.389805 -0.000001 0.490114
v -0.445558 -0.000001 0.401002
v -0.252163 0.065234 0.490114
v -0.257535 0.089111 0.401002
v 0.252163 0.065234 0.490114
v 0.257536 0.089111 0.401002
v 0.389805 -0.000001 0.490114
v 0.445558 -0.000001 0.401002
v -0.464379 -0.867240 0.490114
v -0.333910 -0.736771 0.490114
v -0.480758 -0.874024 0.464793
v -0.343800 -0.712894 0.401002
v -0.497229 -0.879837 0.436666
v -0.515128 -0.884222 0.401002
v 0.216029 -0.712894 0.401002
v 0.206137 -0.736771 0.490114
v 0.375300 -0.872164 0.401002
v 0.347624 -0.868663 0.464793
v 0.334953 -0.865586 0.490114
v 0.320358 -0.867240 0.490114
v 0.320358 -0.891117 0.401002
v 0.325260 -0.867055 0.490114
v 0.339930 -0.888941 0.401002
v 0.330133 -0.866503 0.490114
v 0.358548 -0.882519 0.401002
v -0.480758 -0.891117 0.401002
v -0.492485 -0.890342 0.401002
v -0.504009 -0.888030 0.401002
v 0.480758 0.891115 0.401002
v -0.320358 0.891115 0.401002
v 0.480758 0.874023 0.464794
v -0.320358 0.867238 0.490114
v 0.464379 0.867238 0.490114
v 0.492487 0.890340 0.401002
v 0.497230 0.879835 0.436667
v 0.504010 0.888029 0.401002
v 0.515130 0.884220 0.401002
v 0.333911 0.736770 0.490114
v 0.343802 0.712892 0.401002
v -0.216027 0.712892 0.401002
v -0.206137 0.736770 0.490114
v -0.375299 0.872163 0.401002
v -0.347624 0.868661 0.464794
v -0.334953 0.865584 0.490114
v -0.325260 0.867054 0.490114
v -0.339931 0.888939 0.401002
v -0.330133 0.866501 0.490114
v -0.358546 0.882517 0.401002
v 0.545669 0.795513 0.490114
v 0.472418 0.062999 0.490114
v 0.569428 0.793137 0.401002
v 0.492806 0.026914 0.401002
v 0.347231 0.122330 0.490114
v 0.321799 0.107961 0.401002
v 0.402478 0.674790 0.490114
v 0.379566 0.685647 0.401002
v 0.544329 0.816641 0.490114
v 0.548585 0.835834 0.450697
v 0.550895 0.856975 0.401002
v 0.545541 0.809661 0.490114
v 0.568800 0.815773 0.401002
v 0.562486 0.837521 0.401002
v 0.545991 0.802590 0.490114
v 0.387371 -0.787458 0.490114
v 0.268173 -0.668259 0.490114
v 0.395238 -0.809493 0.452721
v 0.243288 -0.677142 0.401002
v 0.402559 -0.836413 0.401002
v 0.299131 -0.118705 0.401002
v 0.321549 -0.134504 0.490114
v 0.487155 -0.029593 0.401002
v 0.459191 -0.069270 0.490114
v 0.409028 -0.810872 0.401002
v 0.407718 -0.819585 0.401002
v 0.405554 -0.828127 0.401002
v -0.757448 1.069339 -0.490114
v -0.757448 -1.069340 -0.490114
v -0.757448 1.069339 0.401002
v -0.757448 -1.069340 0.401002
v 0.757448 1.069339 -0.490114
v 0.757448 1.069339 0.401002
v 0.757448 -1.069340 -0.490114
v 0.757448 -1.069340 0.401002
vt 0.729869 0.707975
vt 0.730055 0.863928
vt 0.708378 0.708020
vt 0.708572 0.871150
vt 0.665334 0.858336
vt 0.686827 0.855246
vt 0.665334 0.884917
vt 0.686827 0.891556
vt 0.921941 0.630708
vt 0.900383 0.631690
vt 0.927518 0.513199
vt 0.906214 0.508815
vt 0.927518 0.662310
vt 0.918548 0.665951
vt 0.907119 0.669860
vt 0.729951 0.704976
vt 0.708532 0.703226
vt 0.730055 0.703507
vt 0.708997 0.698673
vt 0.721002 0.699292
vt 0.709742 0.694652
vt 0.729888 0.706471
vt 0.811507 0.518680
vt 0.841907 0.508796
vt 0.811508 0.636503
vt 0.841907 0.665018
vt 0.841106 0.669452
vt 0.841550 0.668003
vt 0.841817 0.666520
vt 0.832556 0.847990
vt 0.832556 0.888412
vt 0.811062 0.856304
vt 0.811062 0.885895
vt 0.865993 0.722822
vt 0.865993 0.889157
vt 0.853519 0.722836
vt 0.844502 0.880228
vt 0.844502 0.727325
vt 0.865969 0.720963
vt 0.865896 0.719133
vt 0.865776 0.717349
vt 0.270059 0.881489
vt 0.270059 0.855752
vt 0.279041 0.885235
vt 0.291466 0.855258
vt 0.291466 0.889647
vt 0.977434 0.833472
vt 0.977434 0.714580
vt 0.998925 0.830591
vt 0.998925 0.716954
vt 0.808468 0.838311
vt 0.778068 0.821630
vt 0.808468 0.685143
vt 0.778068 0.707796
vt 0.893985 0.551502
vt 0.893985 0.658516
vt 0.872490 0.550365
vt 0.872490 0.659658
vt 0.897762 0.687539
vt 0.877650 0.699304
vt 0.848468 0.658019
vt 0.869963 0.659156
vt 0.844691 0.687410
vt 0.864803 0.699304
vt 0.848468 0.551006
vt 0.869963 0.549863
vt 0.844691 0.521983
vt 0.864803 0.510217
vt 0.897762 0.522112
vt 0.877650 0.510217
vt 0.732659 0.643742
vt 0.732659 0.536719
vt 0.747858 0.672952
vt 0.747858 0.507509
vt 0.763058 0.643742
vt 0.763058 0.536719
vt 0.732211 0.880991
vt 0.732211 0.851552
vt 0.738308 0.883828
vt 0.753667 0.850760
vt 0.745080 0.886590
vt 0.753667 0.889419
vt 0.732519 0.807497
vt 0.738771 0.688842
vt 0.754100 0.806336
vt 0.760131 0.691874
vt 0.739976 0.841208
vt 0.754461 0.836018
vt 0.760131 0.833601
vt 0.951448 0.521911
vt 0.929954 0.521924
vt 0.951459 0.520870
vt 0.930077 0.517764
vt 0.951490 0.519834
vt 0.951542 0.518809
vt 0.945648 0.516113
vt 0.930447 0.513796
vt 0.931045 0.510212
vt 0.930050 0.691914
vt 0.945437 0.691904
vt 0.951542 0.688425
vt 0.930096 0.694400
vt 0.938754 0.695399
vt 0.930231 0.696838
vt 0.930453 0.699187
vt 0.695794 0.677346
vt 0.665779 0.650010
vt 0.696179 0.674249
vt 0.665779 0.535406
vt 0.696179 0.507719
vt 0.696136 0.675289
vt 0.696007 0.676323
vt 0.953797 0.691913
vt 0.953701 0.521923
vt 0.969185 0.691904
vt 0.975196 0.521911
vt 0.975290 0.688425
vt 0.953844 0.694400
vt 0.962502 0.695398
vt 0.953979 0.696838
vt 0.954201 0.699187
vt 0.799077 0.856330
vt 0.799077 0.885769
vt 0.792980 0.853493
vt 0.777621 0.886561
vt 0.786208 0.850731
vt 0.777621 0.847902
vt 0.665640 0.812100
vt 0.671892 0.693446
vt 0.687221 0.810939
vt 0.693252 0.696478
vt 0.673097 0.845812
vt 0.687582 0.840622
vt 0.693252 0.838205
vt 0.975206 0.520870
vt 0.953825 0.517764
vt 0.975237 0.519834
vt 0.975290 0.518809
vt 0.969396 0.516113
vt 0.954195 0.513796
vt 0.954792 0.510212
vt 0.699219 0.677346
vt 0.699219 0.510816
vt 0.729619 0.649659
vt 0.729619 0.535055
vt 0.699605 0.507719
vt 0.699391 0.508741
vt 0.699262 0.509776
vt 0.951449 0.730783
vt 0.951635 0.886736
vt 0.929958 0.730828
vt 0.930153 0.893958
vt 0.244366 0.888575
vt 0.222873 0.891665
vt 0.244366 0.861994
vt 0.222873 0.855354
vt 0.921941 0.807857
vt 0.900383 0.808839
vt 0.927518 0.690347
vt 0.906214 0.685964
vt 0.927518 0.839459
vt 0.918548 0.843100
vt 0.907118 0.847008
vt 0.951531 0.727785
vt 0.930113 0.726035
vt 0.951635 0.726316
vt 0.930577 0.721481
vt 0.942582 0.722100
vt 0.931322 0.717461
vt 0.951469 0.729280
vt 0.778068 0.518680
vt 0.808468 0.508796
vt 0.778068 0.636503
vt 0.808468 0.665019
vt 0.807667 0.669452
vt 0.808110 0.668003
vt 0.808378 0.666520
vt 0.267918 0.863417
vt 0.267918 0.889154
vt 0.258935 0.859671
vt 0.246511 0.889647
vt 0.246511 0.855258
vt 0.897951 0.714703
vt 0.897951 0.833595
vt 0.876460 0.717585
vt 0.876460 0.831222
vt 0.876457 0.881983
vt 0.876457 0.841561
vt 0.897951 0.873670
vt 0.897951 0.844079
vt 0.975285 0.722699
vt 0.975285 0.889035
vt 0.962812 0.722713
vt 0.953794 0.880105
vt 0.953794 0.727202
vt 0.975261 0.720840
vt 0.975188 0.719010
vt 0.975068 0.717226
vt 0.841907 0.815658
vt 0.811507 0.838311
vt 0.841907 0.701824
vt 0.811508 0.685143
vt 0.211717 0.521999
vt 0.211717 0.975524
vt 0.010082 0.523714
vt 0.010082 0.977238
vt 0.654203 0.515986
vt 0.654203 0.837434
vt 0.453085 0.515342
vt 0.453085 0.836790
vt 0.786630 0.478001
vt 0.786630 0.024476
vt 0.988264 0.476286
vt 0.988264 0.022762
vt 0.231854 0.836790
vt 0.231854 0.515342
vt 0.432973 0.837434
vt 0.432973 0.515986
vt 0.326669 0.422735
vt 0.326816 0.417932
vt 0.370625 0.476545
vt 0.308962 0.255330
vt 0.370625 0.022693
vt 0.307646 0.243339
vt 0.289442 0.077542
vt 0.297953 0.249619
vt 0.269117 0.272529
vt 0.254143 0.268529
vt 0.274244 0.400903
vt 0.143802 0.400903
vt 0.282577 0.395121
vt 0.314164 0.437261
vt 0.322497 0.431479
vt 0.325198 0.427350
vt 0.263836 0.224428
vt 0.254143 0.230708
vt 0.250824 0.105922
vt 0.244472 0.098335
vt 0.281583 0.064536
vt 0.289137 0.075694
vt 0.288633 0.073881
vt 0.287934 0.072123
vt 0.134130 0.268529
vt 0.137450 0.393316
vt 0.124438 0.274809
vt 0.134130 0.230708
vt 0.114030 0.098335
vt 0.119157 0.226708
vt 0.105697 0.104116
vt 0.090320 0.249619
vt 0.079312 0.243907
vt 0.080628 0.255899
vt 0.017649 0.476545
vt 0.098832 0.421695
vt 0.099137 0.423544
vt 0.106691 0.434702
vt 0.100339 0.427115
vt 0.099641 0.425357
vt 0.110594 0.436899
vt 0.114932 0.438262
vt 0.119493 0.438724
vt 0.306155 0.438724
vt 0.308888 0.438559
vt 0.311573 0.438069
vt 0.082119 0.060514
vt 0.017649 0.022693
vt 0.268781 0.060514
vt 0.273342 0.060976
vt 0.277680 0.062338
vt 0.079386 0.060678
vt 0.076701 0.061169
vt 0.074110 0.061977
vt 0.065777 0.067759
vt 0.063076 0.071887
vt 0.061605 0.076502
vt 0.061458 0.081306
vt 0.405923 0.022693
vt 0.758899 0.022693
vt 0.405923 0.476545
vt 0.758899 0.476545
vn -0.9611 0.0961 0.2588
vn 0.4137 0.8729 0.2588
vn 0.9611 -0.0961 0.2588
vn 0.6830 -0.6830 0.2588
vn -0.9593 -0.1134 0.2588
vn -0.9543 -0.1493 0.2588
vn -0.9413 -0.2168 0.2588
vn -0.8859 -0.3850 0.2588
vn -0.8644 -0.4311 0.2588
vn -0.7602 -0.5959 0.2588
vn -0.9659 -0.0087 0.2588
vn 0.0000 0.0000 1.0000
vn 0.0001 0.0000 1.0000
vn -0.0001 0.0000 1.0000
vn 0.4137 -0.8729 0.2588
vn -0.9469 0.1906 0.2588
vn -0.9235 0.2831 0.2588
vn -0.8910 0.3730 0.2588
vn 0.6830 0.6830 0.2588
vn 0.0000 -0.9659 0.2588
vn -0.4137 -0.8729 0.2588
vn -0.4137 0.8729 0.2588
vn 0.0000 0.9659 0.2588
vn -0.6830 0.6830 0.2588
vn 0.0726 -0.9632 0.2588
vn 0.2122 -0.9423 0.2588
vn 0.1447 -0.9550 0.2588
vn 0.2161 -0.9414 0.2588
vn 0.3657 -0.8940 0.2588
vn 0.4139 -0.8727 0.2588
vn 0.5955 -0.7605 0.2588
vn -0.1270 -0.9576 0.2587
vn -0.2000 -0.9450 0.2588
vn -0.2520 -0.9325 0.2588
vn -0.3726 -0.8912 0.2588
vn 0.0000 -0.0020 1.0000
vn 0.1271 0.9575 0.2588
vn 0.2000 0.9450 0.2588
vn 0.2520 0.9325 0.2588
vn 0.3726 0.8912 0.2588
vn -0.6830 -0.6830 0.2588
vn -0.0727 0.9632 0.2588
vn -0.2122 0.9423 0.2588
vn -0.1447 0.9550 0.2588
vn -0.2160 0.9415 0.2588
vn -0.3657 0.8940 0.2588
vn -0.4139 0.8727 0.2588
vn -0.5956 0.7605 0.2588
vn -0.0000 -0.0005 1.0000
vn -0.0000 0.0003 1.0000
vn 0.9592 0.1134 0.2588
vn 0.9543 0.1493 0.2588
vn 0.9413 0.2168 0.2588
vn 0.8859 0.3850 0.2588
vn 0.8644 0.4311 0.2588
vn 0.7602 0.5959 0.2588
vn 0.9659 0.0087 0.2588
vn 0.9469 -0.1906 0.2588
vn 0.9235 -0.2831 0.2588
vn 0.8910 -0.3730 0.2588
vn -1.0000 0.0000 0.0000
vn 0.0000 1.0000 0.0000
vn 1.0000 0.0000 0.0000
vn 0.0000 -1.0000 0.0000
vn 0.0000 0.0000 -1.0000
usemtl Steel_-_Satin
s 1
f 1/1/1 2/2/1 3/3/1
f 3/3/1 2/2/1 4/4/1
f 5/5/2 6/6/2 2/7/2
f 2/7/2 6/6/2 4/8/2
f 7/9/3 8/10/3 5/11/3
f 5/11/3 8/10/3 6/12/3
f 9/13/4 10/14/4 7/9/4
f 7/9/4 10/14/4 8/10/4
f 8/10/4 10/14/4 11/15/4
f 12/16/5 13/17/6 9/18/7
f 9/18/7 13/17/6 14/19/8
f 9/18/7 14/19/8 10/20/9
f 10/20/9 14/19/8 11/21/10
f 12/16/5 15/22/11 13/17/6
f 13/17/6 15/22/11 3/3/1
f 3/3/1 15/22/11 1/1/1
f 5/23/12 2/24/12 7/25/12
f 7/25/12 2/24/12 1/26/12
f 7/25/12 1/26/12 9/27/12
f 9/27/12 1/26/12 12/28/13
f 12/28/13 1/26/12 15/29/14
f 16/30/15 17/31/15 18/32/15
f 18/32/15 17/31/15 19/33/15
f 20/34/1 16/35/1 21/36/1
f 21/36/1 16/35/1 18/37/1
f 21/36/1 18/37/1 22/38/1
f 20/34/1 21/36/1 23/39/16
f 23/39/16 21/36/1 24/40/17
f 24/40/17 21/36/1 25/41/18
f 22/42/19 26/43/19 21/44/19
f 21/44/19 26/43/19 27/45/19
f 21/44/19 27/45/19 25/46/19
f 17/47/3 27/48/3 19/49/3
f 19/49/3 27/48/3 26/50/3
f 18/51/12 19/52/12 22/53/12
f 22/53/12 19/52/12 26/54/12
f 28/55/20 29/56/20 30/57/20
f 30/57/20 29/56/20 31/58/20
f 29/56/21 32/59/21 31/58/21
f 31/58/21 32/59/21 33/60/21
f 34/61/22 35/62/22 32/63/22
f 32/63/22 35/62/22 33/64/22
f 34/61/23 36/65/23 35/62/23
f 35/62/23 36/65/23 37/66/23
f 36/65/2 38/67/2 37/66/2
f 37/66/2 38/67/2 39/68/2
f 28/55/15 30/57/15 38/69/15
f 38/69/15 30/57/15 39/70/15
f 29/71/12 28/72/12 32/73/12
f 32/73/12 28/72/12 38/74/12
f 32/73/12 38/74/12 34/75/12
f 34/75/12 38/74/12 36/76/12
f 40/77/24 41/78/24 42/79/24
f 42/79/24 41/78/24 43/80/24
f 42/79/24 43/80/24 44/81/24
f 44/81/24 43/80/24 45/82/24
f 46/83/23 43/84/23 47/85/23
f 47/85/23 43/84/23 41/86/23
f 48/87/19 46/83/19 49/88/19
f 49/88/19 46/83/19 47/85/19
f 49/88/19 47/85/19 50/89/19
f 51/90/20 52/91/20 53/92/25
f 53/92/25 52/91/20 54/93/26
f 53/92/25 54/93/26 55/94/27
f 55/94/27 54/93/26 50/95/28
f 50/95/28 54/93/26 49/96/29
f 49/96/29 54/93/26 56/97/30
f 49/96/29 56/97/30 48/98/31
f 57/99/20 52/91/20 42/100/20
f 42/100/20 52/91/20 51/90/20
f 42/100/20 51/90/20 40/101/20
f 57/99/20 42/100/20 58/102/32
f 58/102/32 42/100/20 44/103/33
f 58/102/32 44/103/33 59/104/34
f 59/104/34 44/103/33 45/105/35
f 50/106/12 47/107/12 51/108/12
f 51/108/12 47/107/12 41/109/12
f 51/108/12 41/109/12 40/110/12
f 53/111/36 55/112/12 51/108/12
f 51/108/12 55/112/12 50/106/12
f 60/113/23 61/114/23 62/115/23
f 62/115/23 61/114/23 63/116/23
f 62/115/23 63/116/23 64/117/23
f 60/113/23 62/115/23 65/118/37
f 65/118/37 62/115/23 66/119/38
f 65/118/37 66/119/38 67/120/39
f 67/120/39 66/119/38 68/121/40
f 64/122/4 69/123/4 62/124/4
f 62/124/4 69/123/4 70/125/4
f 62/124/4 70/125/4 66/126/4
f 66/126/4 70/125/4 68/127/4
f 71/128/20 70/129/20 72/130/20
f 72/130/20 70/129/20 69/131/20
f 73/132/41 71/128/41 74/133/41
f 74/133/41 71/128/41 72/130/41
f 74/133/41 72/130/41 75/134/41
f 63/116/23 61/114/23 76/135/42
f 76/135/42 61/114/23 77/136/43
f 76/135/42 77/136/43 78/137/44
f 78/137/44 77/136/43 75/138/45
f 75/138/45 77/136/43 74/139/46
f 74/139/46 77/136/43 79/140/47
f 74/139/46 79/140/47 73/141/48
f 64/142/12 63/143/12 69/144/12
f 69/144/12 63/143/12 72/145/12
f 72/145/12 63/143/12 75/146/12
f 75/146/12 63/143/12 78/147/49
f 78/147/49 63/143/12 76/148/50
f 80/149/3 81/150/3 82/151/3
f 82/151/3 81/150/3 83/152/3
f 84/153/21 85/154/21 81/155/21
f 81/155/21 85/154/21 83/156/21
f 86/157/1 87/158/1 84/159/1
f 84/159/1 87/158/1 85/160/1
f 88/161/24 89/162/24 86/157/24
f 86/157/24 89/162/24 87/158/24
f 87/158/24 89/162/24 90/163/24
f 91/164/51 92/165/52 88/166/53
f 88/166/53 92/165/52 93/167/54
f 88/166/53 93/167/54 89/168/55
f 89/168/55 93/167/54 90/169/56
f 91/164/51 94/170/57 92/165/52
f 92/165/52 94/170/57 82/151/3
f 82/151/3 94/170/57 80/149/3
f 84/171/12 81/172/12 86/173/12
f 86/173/12 81/172/12 80/174/12
f 86/173/12 80/174/12 88/175/12
f 88/175/12 80/174/12 91/176/13
f 91/176/13 80/174/12 94/177/14
f 95/178/41 96/179/41 97/180/41
f 97/180/41 96/179/41 98/181/41
f 97/180/41 98/181/41 99/182/41
f 100/183/1 98/184/1 101/185/1
f 101/185/1 98/184/1 96/186/1
f 102/187/22 100/188/22 103/189/22
f 103/189/22 100/188/22 101/190/22
f 104/191/3 102/192/3 97/193/3
f 97/193/3 102/192/3 103/194/3
f 97/193/3 103/194/3 95/195/3
f 104/191/3 97/193/3 105/196/58
f 105/196/58 97/193/3 106/197/59
f 106/197/59 97/193/3 99/198/60
f 96/199/12 95/200/12 101/201/12
f 101/201/12 95/200/12 103/202/12
f 107/203/61 108/204/61 109/205/61
f 109/205/61 108/204/61 110/206/61
f 111/207/62 107/208/62 112/209/62
f 112/209/62 107/208/62 109/210/62
f 113/211/63 111/212/63 114/213/63
f 114/213/63 111/212/63 112/214/63
f 108/215/64 113/216/64 110/217/64
f 110/217/64 113/216/64 114/218/64
f 13/219/12 3/220/12 110/221/12
f 110/221/12 3/220/12 4/222/12
f 110/221/12 4/222/12 109/223/12
f 109/223/12 4/222/12 16/224/12
f 109/223/12 16/224/12 20/225/12
f 16/224/12 4/222/12 33/226/12
f 33/226/12 4/222/12 6/227/12
f 33/226/12 6/227/12 31/228/12
f 31/228/12 6/227/12 43/229/12
f 31/228/12 43/229/12 46/230/12
f 6/227/12 8/231/12 43/229/12
f 43/229/12 8/231/12 45/232/12
f 45/232/12 8/231/12 11/233/12
f 45/232/12 11/233/12 110/221/12
f 110/221/12 11/233/12 14/234/12
f 110/221/12 14/234/12 13/219/12
f 16/224/12 33/226/12 17/235/12
f 17/235/12 33/226/12 35/236/12
f 17/235/12 35/236/12 27/237/12
f 27/237/12 35/236/12 71/238/12
f 27/237/12 71/238/12 73/239/12
f 20/225/12 23/240/12 109/223/12
f 109/223/12 23/240/12 24/241/12
f 109/223/12 24/241/12 25/242/12
f 109/223/12 25/242/12 73/239/12
f 73/239/12 25/242/12 27/237/12
f 31/228/12 46/230/12 30/243/12
f 30/243/12 46/230/12 98/244/12
f 30/243/12 98/244/12 100/245/12
f 35/236/12 37/246/12 71/238/12
f 71/238/12 37/246/12 70/247/12
f 70/247/12 37/246/12 85/248/12
f 70/247/12 85/248/12 87/249/12
f 37/246/12 39/250/12 85/248/12
f 85/248/12 39/250/12 83/251/12
f 83/251/12 39/250/12 102/252/12
f 83/251/12 102/252/12 114/253/12
f 114/253/12 102/252/12 104/254/12
f 114/253/12 104/254/12 105/255/12
f 102/252/12 39/250/12 100/245/12
f 100/245/12 39/250/12 30/243/12
f 46/230/12 48/256/12 98/244/12
f 98/244/12 48/256/12 99/257/12
f 99/257/12 48/256/12 114/253/12
f 99/257/12 114/253/12 106/258/12
f 106/258/12 114/253/12 105/255/12
f 48/256/12 56/259/12 114/253/12
f 114/253/12 56/259/12 54/260/12
f 114/253/12 54/260/12 52/261/12
f 114/253/12 52/261/12 110/221/12
f 110/221/12 52/261/12 57/262/12
f 110/221/12 57/262/12 58/263/12
f 58/263/12 59/264/12 110/221/12
f 110/221/12 59/264/12 45/232/12
f 60/265/12 112/266/12 61/267/12
f 61/267/12 112/266/12 109/223/12
f 61/267/12 109/223/12 77/268/12
f 77/268/12 109/223/12 79/269/12
f 79/269/12 109/223/12 73/239/12
f 60/265/12 65/270/12 112/266/12
f 112/266/12 65/270/12 67/271/12
f 112/266/12 67/271/12 68/272/12
f 70/247/12 87/249/12 68/272/12
f 68/272/12 87/249/12 90/273/12
f 68/272/12 90/273/12 112/266/12
f 112/266/12 90/273/12 93/274/12
f 112/266/12 93/274/12 92/275/12
f 92/275/12 82/276/12 112/266/12
f 112/266/12 82/276/12 83/251/12
f 112/266/12 83/251/12 114/253/12
f 113/277/65 108/278/65 111/279/65
f 111/279/65 108/278/65 107/280/65
