# Blender v2.80 (sub 75) OBJ File: ''
# www.blender.org
mtllib 1.mtl
o 1
v 0.400000 -0.550000 0.100000
v -0.400000 -0.550000 0.100000
v 0.400000 -0.600000 0.050000
v -0.400000 -0.600000 0.050000
v 0.400000 -0.400000 -0.050000
v 0.400000 -0.400000 0.050000
v 0.400000 -0.450000 0.100000
v 0.400000 -0.450000 -0.100000
v 0.400000 -0.600000 -0.050000
v 0.400000 -0.550000 -0.100000
v -0.400000 -0.600000 -0.050000
v -0.400000 -0.550000 -0.100000
v -0.050000 0.600000 0.050000
v -0.341421 0.308579 0.050000
v -0.029289 0.550000 0.100000
v -0.306066 0.273223 0.100000
v 0.150000 0.600000 0.050000
v 0.100000 0.550000 0.100000
v 0.150000 -0.400000 0.050000
v 0.100000 -0.450000 0.100000
v -0.400000 -0.450000 0.100000
v 0.000000 -0.450000 0.100000
v 0.000000 0.437868 0.100000
v -0.235355 0.202513 0.100000
v -0.200000 0.167157 -0.050000
v -0.200000 0.167157 0.050000
v -0.235355 0.202513 -0.100000
v -0.341421 0.308579 -0.050000
v -0.306066 0.273223 -0.100000
v -0.400000 -0.400000 0.050000
v -0.050000 -0.400000 0.050000
v -0.050000 0.317157 0.050000
v -0.400000 -0.400000 -0.050000
v -0.050000 -0.400000 -0.050000
v -0.050000 0.317157 -0.050000
v 0.150000 -0.400000 -0.050000
v 0.100000 -0.450000 -0.100000
v 0.150000 0.600000 -0.050000
v 0.100000 0.550000 -0.100000
v -0.050000 0.600000 -0.050000
v -0.029289 0.550000 -0.100000
v 0.000000 0.437868 -0.100000
v 0.000000 -0.450000 -0.100000
v -0.400000 -0.450000 -0.100000
vt 0.661434 0.517649
vt 0.661434 0.929627
vt 0.636255 0.517649
vt 0.636255 0.929627
vt 0.122203 0.617951
vt 0.222920 0.566454
vt 0.147382 0.643700
vt 0.222920 0.617951
vt 0.197741 0.643700
vt 0.197741 0.540706
vt 0.122203 0.566454
vt 0.147382 0.540706
vt 0.585896 0.517649
vt 0.585897 0.929627
vt 0.560717 0.517649
vt 0.560717 0.929627
vt 0.688122 0.474457
vt 0.529758 0.364386
vt 0.698639 0.438070
vt 0.548233 0.333529
vt 0.788004 0.474457
vt 0.763207 0.438070
vt 0.969785 0.027036
vt 0.994964 0.052785
vt 0.969785 0.542008
vt 0.994964 0.567756
vt 0.719193 0.060364
vt 0.869015 0.060364
vt 0.743989 0.096752
vt 0.868841 0.096752
vt 0.469490 0.060364
vt 0.465089 0.022593
vt 0.669252 0.060364
vt 0.864613 0.022593
vt 0.708331 0.395717
vt 0.580435 0.306822
vt 0.395593 0.635418
vt 0.424668 0.551323
vt 0.424668 0.645930
vt 0.005326 0.541586
vt 0.092168 0.574204
vt 0.043547 0.587616
vt 0.014600 0.576744
vt 0.395593 0.540812
vt 0.668781 0.589153
vt 0.703440 0.501436
vt 0.714993 0.551560
vt 0.703440 0.580799
vt 0.469316 0.096752
vt 0.644108 0.096752
vt 0.449928 0.519912
vt 0.475107 0.582075
vt 0.449928 0.977139
vt 0.475108 0.951390
vt 0.720606 0.599599
vt 0.720606 0.720800
vt 0.695427 0.661761
vt 0.063221 0.662196
vt 0.020222 0.402049
vt 0.195014 0.402049
vt 0.024972 0.437054
vt 0.199764 0.437054
vt 0.525466 0.951390
vt 0.525466 0.582075
vt 0.111841 0.648784
vt 0.424496 0.437054
vt 0.424670 0.473442
vt 0.299645 0.437054
vt 0.274848 0.473442
vt 0.919426 0.027036
vt 0.919426 0.542008
vt 0.894247 0.052785
vt 0.894247 0.567756
vt 0.343659 0.059348
vt 0.318862 0.095736
vt 0.243778 0.059348
vt 0.254295 0.095736
vt 0.103889 0.200276
vt 0.085414 0.169420
vt 0.294895 0.402049
vt 0.419747 0.402049
vt 0.239029 0.024343
vt 0.338910 0.024343
vt 0.341263 0.693133
vt 0.341263 0.543060
vt 0.391621 0.693133
vt 0.391621 0.543060
vt 0.111841 0.549920
vt 0.667729 0.658637
vt 0.692909 0.599599
vt 0.692909 0.720800
vt 0.550645 0.519912
vt 0.550645 0.977139
vt 0.224908 0.473442
vt 0.025145 0.473442
vt 0.308530 0.643700
vt 0.258171 0.643700
vt 0.333709 0.617951
vt 0.333709 0.566454
vt 0.232992 0.617951
vt 0.308530 0.540706
vt 0.232992 0.566454
vt 0.258171 0.540706
vt 0.020744 0.511212
vt 0.420269 0.511212
vt 0.263986 0.138089
vt 0.136090 0.226984
vn 0.0000 -0.7071 0.7071
vn 1.0000 -0.0000 0.0000
vn 0.0000 -1.0000 0.0000
vn 0.0000 -0.7071 -0.7071
vn -0.5000 0.5000 0.7071
vn 0.0000 0.7071 0.7071
vn 0.7071 -0.0000 0.7071
vn 0.0000 0.0000 1.0000
vn -0.7071 -0.7071 -0.0000
vn -0.7071 -0.0000 0.7071
vn 0.5000 -0.5000 0.7071
vn 0.0000 1.0000 0.0000
vn -1.0000 0.0000 0.0000
vn 0.7071 -0.7071 0.0000
vn 0.0000 0.7071 -0.7071
vn 0.7071 0.0000 -0.7071
vn -0.5000 0.5000 -0.7071
vn -0.7071 0.7071 0.0000
vn 0.5000 -0.5000 -0.7071
vn -0.7071 0.0000 -0.7071
vn 0.0000 0.0000 -1.0000
usemtl Steel_-_Satin.001
s 1
f 1/1/1 2/2/1 3/3/1
f 3/3/1 2/2/1 4/4/1
f 3/5/2 5/6/2 1/7/2
f 1/7/2 5/6/2 6/8/2
f 1/7/2 6/8/2 7/9/2
f 5/6/2 3/5/2 8/10/2
f 8/10/2 3/5/2 9/11/2
f 8/10/2 9/11/2 10/12/2
f 3/3/3 4/4/3 9/13/3
f 9/13/3 4/4/3 11/14/3
f 9/13/4 11/14/4 10/15/4
f 10/15/4 11/14/4 12/16/4
f 13/17/5 14/18/5 15/19/5
f 15/19/5 14/18/5 16/20/5
f 17/21/6 13/17/6 18/22/6
f 18/22/6 13/17/6 15/19/6
f 17/23/7 18/24/7 19/25/7
f 19/25/7 18/24/7 20/26/7
f 20/27/6 7/28/6 19/29/6
f 19/29/6 7/28/6 6/30/6
f 21/31/8 2/32/8 22/33/8
f 22/33/8 2/32/8 1/34/8
f 22/33/8 1/34/8 20/27/8
f 20/27/8 1/34/8 7/28/8
f 22/33/8 20/27/8 23/35/8
f 23/35/8 20/27/8 18/22/8
f 23/35/8 18/22/8 15/19/8
f 15/19/8 16/20/8 23/35/8
f 23/35/8 16/20/8 24/36/8
f 14/37/9 25/38/9 16/39/9
f 16/40/9 25/41/9 26/42/9
f 16/40/9 26/42/9 24/43/9
f 25/38/9 14/37/9 27/44/9
f 27/45/9 14/46/9 28/47/9
f 27/45/9 28/47/9 29/48/9
f 30/49/6 21/31/6 31/50/6
f 31/50/6 21/31/6 22/33/6
f 23/51/10 32/52/10 22/53/10
f 22/53/10 32/52/10 31/54/10
f 23/55/11 24/56/11 32/57/11
f 32/58/11 24/43/11 26/42/11
f 30/59/12 31/60/12 33/61/12
f 33/61/12 31/60/12 34/62/12
f 31/54/13 32/52/13 34/63/13
f 34/63/13 32/52/13 35/64/13
f 32/58/14 26/42/14 35/65/14
f 35/65/14 26/42/14 25/41/14
f 5/66/15 8/67/15 36/68/15
f 36/68/15 8/67/15 37/69/15
f 38/70/16 36/71/16 39/72/16
f 39/72/16 36/71/16 37/73/16
f 38/74/15 39/75/15 40/76/15
f 40/76/15 39/75/15 41/77/15
f 29/78/17 28/79/17 41/77/17
f 41/77/17 28/79/17 40/76/17
f 19/80/12 6/81/12 36/68/12
f 36/68/12 6/81/12 5/66/12
f 17/23/2 19/25/2 38/70/2
f 38/70/2 19/25/2 36/71/2
f 13/82/12 17/83/12 40/76/12
f 40/76/12 17/83/12 38/74/12
f 14/84/18 13/85/18 28/86/18
f 28/86/18 13/85/18 40/87/18
f 25/41/19 27/88/19 35/65/19
f 35/89/19 27/90/19 42/91/19
f 42/92/20 43/93/20 35/64/20
f 35/64/20 43/93/20 34/63/20
f 43/94/15 44/95/15 34/62/15
f 34/62/15 44/95/15 33/61/15
f 2/96/13 21/97/13 4/98/13
f 4/98/13 21/97/13 11/99/13
f 11/99/13 21/97/13 30/100/13
f 11/99/13 30/100/13 12/101/13
f 12/101/13 30/100/13 33/102/13
f 12/101/13 33/102/13 44/103/13
f 12/104/21 43/94/21 10/105/21
f 10/105/21 43/94/21 37/69/21
f 10/105/21 37/69/21 8/67/21
f 12/104/21 44/95/21 43/94/21
f 43/94/21 42/106/21 37/69/21
f 37/69/21 42/106/21 39/75/21
f 39/75/21 42/106/21 41/77/21
f 41/77/21 42/106/21 29/78/21
f 29/78/21 42/106/21 27/107/21
