# Blender v2.80 (sub 75) OBJ File: ''
# www.blender.org
mtllib A.mtl
o A
v -0.200000 -0.600000 -0.050000
v -0.250000 -0.600000 -0.100000
v -0.200000 -0.300000 -0.050000
v -0.250000 -0.250000 -0.100000
v 0.250000 -0.250000 -0.100000
v 0.200000 -0.300000 -0.050000
v 0.250000 -0.600000 -0.100000
v 0.200000 -0.600000 -0.050000
v 0.139039 0.450000 -0.100000
v 0.245521 0.436380 -0.100000
v 0.250000 0.006155 -0.100000
v 0.345521 0.036380 -0.100000
v 0.348004 0.024389 -0.100000
v -0.139039 0.450000 -0.100000
v 0.100000 0.550000 -0.100000
v 0.132876 0.546353 -0.100000
v 0.164154 0.535589 -0.100000
v -0.250000 0.006155 -0.100000
v -0.245521 0.436380 -0.100000
v -0.234009 0.467391 -0.100000
v -0.215981 0.495124 -0.100000
v -0.250000 -0.150000 -0.100000
v -0.350000 0.000000 -0.100000
v -0.349500 0.012235 -0.100000
v -0.348004 0.024389 -0.100000
v 0.250000 -0.150000 -0.100000
v 0.350000 0.000000 -0.100000
v 0.350000 -0.600000 -0.100000
v 0.349500 0.012235 -0.100000
v -0.350000 -0.600000 -0.100000
v -0.345521 0.036380 -0.100000
v -0.192312 0.518231 -0.100000
v -0.164154 0.535589 -0.100000
v -0.132876 0.546353 -0.100000
v -0.100000 0.550000 -0.100000
v 0.192312 0.518231 -0.100000
v 0.215981 0.495124 -0.100000
v 0.234009 0.467391 -0.100000
v -0.400000 -0.600000 0.050000
v -0.400000 -0.600000 -0.050000
v -0.350000 -0.600000 0.100000
v -0.200000 -0.600000 0.050000
v -0.250000 -0.600000 0.100000
v 0.400000 -0.600000 -0.050000
v 0.400000 0.000000 -0.050000
v 0.394029 0.048507 -0.050000
v 0.397339 0.032519 -0.050000
v 0.399334 0.016314 -0.050000
v 0.294029 0.448507 -0.050000
v 0.100000 0.600000 -0.050000
v 0.143835 0.595137 -0.050000
v 0.185539 0.580785 -0.050000
v 0.223082 0.557641 -0.050000
v 0.254641 0.526831 -0.050000
v 0.278679 0.489854 -0.050000
v -0.100000 0.600000 -0.050000
v -0.294029 0.448507 -0.050000
v -0.278679 0.489854 -0.050000
v -0.254641 0.526831 -0.050000
v -0.223082 0.557641 -0.050000
v -0.185539 0.580785 -0.050000
v -0.143835 0.595137 -0.050000
v -0.394029 0.048507 -0.050000
v -0.400000 0.000000 -0.050000
v -0.399334 0.016314 -0.050000
v -0.397339 0.032519 -0.050000
v 0.400000 -0.600000 0.050000
v 0.400000 0.000000 0.050000
v 0.399334 0.016314 0.050000
v 0.397339 0.032519 0.050000
v 0.394029 0.048507 0.050000
v 0.294029 0.448507 0.050000
v 0.278679 0.489854 0.050000
v 0.254641 0.526831 0.050000
v 0.223082 0.557641 0.050000
v 0.185539 0.580785 0.050000
v 0.143835 0.595137 0.050000
v 0.100000 0.600000 0.050000
v -0.100000 0.600000 0.050000
v -0.143835 0.595137 0.050000
v -0.185539 0.580785 0.050000
v -0.223082 0.557641 0.050000
v -0.254641 0.526831 0.050000
v -0.278679 0.489854 0.050000
v -0.294029 0.448507 0.050000
v -0.394029 0.048507 0.050000
v -0.397339 0.032519 0.050000
v -0.399334 0.016314 0.050000
v -0.400000 0.000000 0.050000
v 0.200000 -0.600000 0.050000
v 0.250000 -0.600000 0.100000
v 0.200000 -0.300000 0.050000
v 0.250000 -0.250000 0.100000
v -0.250000 -0.250000 0.100000
v -0.200000 -0.300000 0.050000
v 0.350000 -0.600000 0.100000
v 0.350000 0.000000 0.100000
v 0.345521 0.036380 0.100000
v 0.348004 0.024389 0.100000
v 0.349500 0.012235 0.100000
v 0.245521 0.436380 0.100000
v 0.100000 0.550000 0.100000
v 0.132876 0.546353 0.100000
v 0.164154 0.535589 0.100000
v 0.192312 0.518231 0.100000
v 0.215981 0.495124 0.100000
v 0.234009 0.467391 0.100000
v -0.100000 0.550000 0.100000
v -0.245521 0.436380 0.100000
v -0.234009 0.467391 0.100000
v -0.215981 0.495124 0.100000
v -0.192312 0.518231 0.100000
v -0.164154 0.535589 0.100000
v -0.132876 0.546353 0.100000
v -0.345521 0.036380 0.100000
v -0.350000 0.000000 0.100000
v -0.349500 0.012235 0.100000
v -0.348004 0.024389 0.100000
v -0.200000 0.000000 -0.050000
v -0.100000 0.400000 -0.050000
v 0.100000 0.400000 -0.050000
v 0.200000 0.000000 -0.050000
v 0.200000 -0.100000 -0.050000
v -0.200000 -0.100000 -0.050000
v -0.200000 0.000000 0.050000
v -0.100000 0.400000 0.050000
v 0.100000 0.400000 0.050000
v 0.200000 0.000000 0.050000
v 0.139039 0.450000 0.100000
v -0.139039 0.450000 0.100000
v -0.250000 0.006155 0.100000
v -0.250000 -0.150000 0.100000
v -0.200000 -0.100000 0.050000
v 0.250000 -0.150000 0.100000
v 0.200000 -0.100000 0.050000
v 0.250000 0.006155 0.100000
vt 0.109091 0.673797
vt 0.086364 0.673797
vt 0.109091 0.513369
vt 0.086364 0.486631
vt 0.004545 0.986631
vt 0.004545 0.719251
vt 0.027273 0.959893
vt 0.027273 0.745989
vt 0.313636 0.486631
vt 0.313636 0.673797
vt 0.290909 0.513369
vt 0.290909 0.673797
vt 0.263199 0.112300
vt 0.311600 0.119583
vt 0.313636 0.349650
vt 0.357055 0.333486
vt 0.358184 0.339899
vt 0.136800 0.112300
vt 0.245454 0.058824
vt 0.260398 0.060774
vt 0.274615 0.066530
vt 0.086364 0.349650
vt 0.088399 0.119583
vt 0.093632 0.102999
vt 0.101827 0.088169
vt 0.086364 0.433155
vt 0.040909 0.352941
vt 0.041136 0.346398
vt 0.041816 0.339899
vt 0.313636 0.433155
vt 0.359091 0.352941
vt 0.359091 0.673797
vt 0.358864 0.346398
vt 0.040909 0.673797
vt 0.042945 0.333487
vt 0.112585 0.075812
vt 0.125384 0.066530
vt 0.139602 0.060774
vt 0.154545 0.058824
vt 0.287414 0.075812
vt 0.298173 0.088169
vt 0.306368 0.102999
vt 0.497728 0.818182
vt 0.452273 0.711230
vt 0.520455 0.791444
vt 0.497728 0.711230
vt 0.520455 0.737968
vt 0.429546 0.737968
vt 0.452273 0.818182
vt 0.429546 0.791444
vt 0.381818 0.673797
vt 0.381818 0.352941
vt 0.379104 0.327001
vt 0.380609 0.335551
vt 0.995455 0.366002
vt 0.972727 0.366913
vt 0.995455 0.359453
vt 0.972727 0.358182
vt 0.381515 0.344217
vt 0.333649 0.113098
vt 0.245454 0.032086
vt 0.265379 0.034686
vt 0.449159 0.825307
vt 0.449159 0.860866
vt 0.437923 0.836897
vt 0.284336 0.042361
vt 0.301401 0.054737
vt 0.315746 0.071213
vt 0.326672 0.090987
vt 0.154545 0.032086
vt 0.066350 0.113098
vt 0.073328 0.090987
vt 0.084254 0.071213
vt 0.098599 0.054737
vt 0.115664 0.042361
vt 0.134620 0.034686
vt 0.425562 0.849276
vt 0.436799 0.825307
vt 0.436799 0.860866
vt 0.020896 0.327002
vt 0.018182 0.352941
vt 0.018485 0.344217
vt 0.895455 0.329245
vt 0.872727 0.330516
vt 0.895455 0.322697
vt 0.872727 0.321785
vt 0.019391 0.335551
vt 0.018182 0.673797
vt 0.972727 0.031304
vt 0.972727 0.349485
vt 0.927273 0.031304
vt 0.927273 0.349485
vt 0.927273 0.358182
vt 0.927273 0.366913
vt 0.972727 0.375620
vt 0.927273 0.375620
vt 0.972727 0.594631
vt 0.927273 0.594631
vt 0.927273 0.617615
vt 0.972727 0.617615
vt 0.972727 0.638881
vt 0.927273 0.638881
vt 0.972727 0.657394
vt 0.927273 0.657394
vt 0.126136 0.717812
vt 0.171591 0.717812
vt 0.171591 0.737888
vt 0.126136 0.737888
vt 0.171591 0.760190
vt 0.126136 0.760190
vt 0.171591 0.783631
vt 0.126136 0.783631
vt 0.171591 0.890583
vt 0.126136 0.890583
vt 0.126136 0.914024
vt 0.171591 0.914024
vt 0.171591 0.936326
vt 0.126136 0.936326
vt 0.171591 0.956402
vt 0.126136 0.956402
vt 0.827273 0.031305
vt 0.872727 0.031304
vt 0.872727 0.049818
vt 0.827273 0.049818
vt 0.872727 0.071083
vt 0.827273 0.071083
vt 0.872727 0.094067
vt 0.827273 0.094067
vt 0.872727 0.313079
vt 0.827273 0.313079
vt 0.827273 0.321785
vt 0.827273 0.330516
vt 0.872727 0.339213
vt 0.827273 0.339213
vt 0.872727 0.657394
vt 0.827273 0.657394
vt 0.509091 0.673797
vt 0.486364 0.673797
vt 0.509091 0.513369
vt 0.486364 0.486631
vt 0.095455 0.719251
vt 0.095455 0.986631
vt 0.072727 0.745989
vt 0.072727 0.959893
vt 0.713636 0.486631
vt 0.713636 0.673797
vt 0.690909 0.513369
vt 0.690909 0.673797
vt 0.722728 0.713837
vt 0.722728 0.872927
vt 0.677273 0.713837
vt 0.677273 0.872927
vt 0.672728 0.713837
vt 0.672728 0.872927
vt 0.627273 0.713837
vt 0.627273 0.872927
vt 0.440909 0.673797
vt 0.418182 0.673797
vt 0.440909 0.352941
vt 0.418182 0.352941
vt 0.442945 0.333487
vt 0.441816 0.339899
vt 0.420896 0.327002
vt 0.419391 0.335551
vt 0.904545 0.366002
vt 0.904545 0.359453
vt 0.418485 0.344217
vt 0.441136 0.346398
vt 0.466350 0.113098
vt 0.488400 0.119583
vt 0.554545 0.058824
vt 0.539602 0.060774
vt 0.554545 0.032086
vt 0.103409 0.766050
vt 0.534620 0.034686
vt 0.525384 0.066530
vt 0.515664 0.042361
vt 0.512585 0.075812
vt 0.498599 0.054737
vt 0.501827 0.088169
vt 0.484254 0.071213
vt 0.493632 0.102999
vt 0.473328 0.090987
vt 0.645454 0.058824
vt 0.645454 0.032086
vt 0.711600 0.119583
vt 0.706368 0.102999
vt 0.733649 0.113098
vt 0.726672 0.090987
vt 0.698173 0.088169
vt 0.715746 0.071213
vt 0.687415 0.075812
vt 0.701401 0.054737
vt 0.674615 0.066530
vt 0.684336 0.042361
vt 0.660398 0.060774
vt 0.665379 0.034686
vt 0.103409 0.908164
vt 0.779104 0.327002
vt 0.757055 0.333487
vt 0.759091 0.352941
vt 0.758864 0.346398
vt 0.781818 0.352941
vt 0.781515 0.344217
vt 0.804545 0.329245
vt 0.804545 0.322697
vt 0.780609 0.335551
vt 0.758184 0.339899
vt 0.781818 0.673797
vt 0.759091 0.673797
vt 0.109091 0.352941
vt 0.154545 0.139037
vt 0.245454 0.139037
vt 0.290909 0.352941
vt 0.290909 0.406417
vt 0.109091 0.406417
vt 0.202273 0.734194
vt 0.202273 0.841146
vt 0.179546 0.713318
vt 0.179546 0.862022
vt 0.322727 0.771825
vt 0.322727 0.977055
vt 0.277273 0.771825
vt 0.277273 0.977055
vt 0.247727 0.841146
vt 0.247727 0.734194
vt 0.372727 0.718795
vt 0.372727 0.924025
vt 0.327273 0.718795
vt 0.327273 0.924025
vt 0.270455 0.713318
vt 0.270455 0.862022
vt 0.663199 0.112300
vt 0.713636 0.349650
vt 0.645455 0.139037
vt 0.690909 0.352941
vt 0.713636 0.433155
vt 0.690909 0.406417
vt 0.486364 0.433155
vt 0.509091 0.406417
vt 0.509091 0.352941
vt 0.486364 0.349650
vt 0.554545 0.139037
vt 0.536800 0.112300
vt 0.372727 0.977055
vt 0.327273 0.977055
vt 0.322727 0.718795
vt 0.277273 0.718795
vt 0.422727 0.716578
vt 0.422728 0.930481
vt 0.377273 0.716578
vt 0.377273 0.930481
vt 0.620455 0.737968
vt 0.620455 0.791444
vt 0.597728 0.711230
vt 0.552273 0.711230
vt 0.597728 0.818182
vt 0.529546 0.737968
vt 0.552273 0.818182
vt 0.529546 0.791444
vn 0.7071 0.0000 -0.7071
vn 0.0000 -0.7071 -0.7071
vn -0.7071 0.0000 -0.7071
vn 0.0000 0.0000 -1.0000
vn 0.0000 -1.0000 0.0000
vn 0.6860 0.1715 -0.7071
vn 0.6977 0.1150 -0.7071
vn 0.7047 0.0577 -0.7071
vn -0.0000 0.7071 -0.7071
vn 0.1550 0.6899 -0.7071
vn 0.3024 0.6392 -0.7071
vn 0.4352 0.5573 -0.7071
vn 0.5467 0.4484 -0.7071
vn 0.6317 0.3177 -0.7071
vn -0.6860 0.1715 -0.7071
vn -0.6317 0.3177 -0.7071
vn -0.5467 0.4484 -0.7071
vn -0.4352 0.5573 -0.7071
vn -0.3024 0.6392 -0.7071
vn -0.1550 0.6899 -0.7071
vn -0.7047 0.0577 -0.7071
vn -0.6977 0.1150 -0.7071
vn 1.0000 0.0000 0.0000
vn 0.9967 0.0816 0.0000
vn 0.9867 0.1626 0.0000
vn 0.9701 0.2425 0.0000
vn 0.8934 0.4493 0.0000
vn 0.7732 0.6342 0.0000
vn 0.6154 0.7882 0.0000
vn 0.4277 0.9039 0.0000
vn 0.2192 0.9757 0.0000
vn -0.0000 1.0000 0.0000
vn -0.2192 0.9757 0.0000
vn -0.4277 0.9039 0.0000
vn -0.6154 0.7882 0.0000
vn -0.7732 0.6342 0.0000
vn -0.8934 0.4493 0.0000
vn -0.9701 0.2425 -0.0000
vn -0.9701 0.2426 0.0000
vn -0.9867 0.1626 0.0000
vn -0.9967 0.0816 0.0000
vn -1.0000 -0.0000 -0.0000
vn -0.7071 0.0000 0.7071
vn 0.0000 -0.7071 0.7071
vn 0.7071 -0.0000 0.7071
vn 0.6860 0.1715 0.7071
vn 0.6977 0.1150 0.7071
vn 0.7047 0.0577 0.7071
vn 0.0000 0.7071 0.7071
vn 0.1550 0.6899 0.7071
vn 0.3024 0.6392 0.7071
vn 0.4352 0.5573 0.7071
vn 0.5467 0.4484 0.7071
vn 0.6317 0.3177 0.7071
vn -0.6860 0.1715 0.7071
vn -0.6317 0.3177 0.7071
vn -0.5467 0.4484 0.7071
vn -0.4352 0.5573 0.7071
vn -0.3024 0.6392 0.7071
vn -0.1550 0.6899 0.7071
vn -0.7047 0.0577 0.7071
vn -0.6977 0.1150 0.7071
vn 0.6860 -0.1715 -0.7071
vn -0.6860 -0.1715 -0.7071
vn 0.9701 -0.2425 0.0000
vn -0.9701 -0.2425 0.0000
vn 0.6860 -0.1715 0.7071
vn -0.6860 -0.1715 0.7071
vn 0.0000 -0.0000 1.0000
usemtl Steel_-_Satin.010
s 1
f 1/1/1 2/2/1 3/3/1
f 3/3/1 2/2/1 4/4/1
f 4/5/2 5/6/2 3/7/2
f 3/7/2 5/6/2 6/8/2
f 5/9/3 7/10/3 6/11/3
f 6/11/3 7/10/3 8/12/3
f 9/13/4 10/14/4 11/15/4
f 11/15/4 10/14/4 12/16/4
f 11/15/4 12/16/4 13/17/4
f 14/18/4 15/19/4 9/13/4
f 9/13/4 15/19/4 16/20/4
f 9/13/4 16/20/4 17/21/4
f 18/22/4 19/23/4 14/18/4
f 14/18/4 19/23/4 20/24/4
f 14/18/4 20/24/4 21/25/4
f 22/26/4 23/27/4 18/22/4
f 18/22/4 23/27/4 24/28/4
f 18/22/4 24/28/4 25/29/4
f 23/27/4 22/26/4 4/4/4
f 4/4/4 22/26/4 26/30/4
f 4/4/4 26/30/4 5/9/4
f 5/9/4 26/30/4 27/31/4
f 5/9/4 27/31/4 28/32/4
f 26/30/4 11/15/4 27/31/4
f 27/31/4 11/15/4 29/33/4
f 29/33/4 11/15/4 13/17/4
f 7/10/4 5/9/4 28/32/4
f 2/2/4 30/34/4 4/4/4
f 4/4/4 30/34/4 23/27/4
f 25/29/4 31/35/4 18/22/4
f 18/22/4 31/35/4 19/23/4
f 21/25/4 32/36/4 14/18/4
f 14/18/4 32/36/4 33/37/4
f 14/18/4 33/37/4 34/38/4
f 34/38/4 35/39/4 14/18/4
f 14/18/4 35/39/4 15/19/4
f 17/21/4 36/40/4 9/13/4
f 9/13/4 36/40/4 37/41/4
f 9/13/4 37/41/4 38/42/4
f 38/42/4 10/14/4 9/13/4
f 1/43/5 39/44/5 2/45/5
f 2/45/5 39/44/5 40/46/5
f 2/45/5 40/46/5 30/47/5
f 39/44/5 1/43/5 41/48/5
f 41/48/5 1/43/5 42/49/5
f 41/48/5 42/49/5 43/50/5
f 44/51/1 28/32/1 45/52/1
f 45/52/1 28/32/1 27/31/1
f 46/53/6 47/54/7 12/16/6
f 12/16/6 47/54/7 13/17/7
f 13/55/7 47/56/7 29/57/8
f 29/57/8 47/56/7 48/58/8
f 29/33/8 48/59/8 27/31/1
f 27/31/1 48/59/8 45/52/1
f 49/60/6 46/53/6 10/14/6
f 10/14/6 46/53/6 12/16/6
f 50/61/9 51/62/10 15/19/9
f 15/63/9 51/64/10 16/65/10
f 16/20/10 51/62/10 52/66/11
f 16/20/10 52/66/11 17/21/11
f 17/21/11 52/66/11 53/67/12
f 17/21/11 53/67/12 36/40/12
f 36/40/12 53/67/12 54/68/13
f 36/40/12 54/68/13 37/41/13
f 37/41/13 54/68/13 55/69/14
f 37/41/13 55/69/14 38/42/14
f 38/42/14 55/69/14 10/14/6
f 10/14/6 55/69/14 49/60/6
f 15/19/9 35/39/9 50/61/9
f 50/61/9 35/39/9 56/70/9
f 57/71/15 58/72/16 19/23/15
f 19/23/15 58/72/16 20/24/16
f 20/24/16 58/72/16 59/73/17
f 20/24/16 59/73/17 21/25/17
f 21/25/17 59/73/17 60/74/18
f 21/25/17 60/74/18 32/36/18
f 32/36/18 60/74/18 61/75/19
f 32/36/18 61/75/19 33/37/19
f 33/37/19 61/75/19 62/76/20
f 33/37/19 62/76/20 34/38/20
f 34/77/20 62/78/20 35/79/9
f 35/39/9 62/76/20 56/70/9
f 63/80/15 57/71/15 31/35/15
f 31/35/15 57/71/15 19/23/15
f 64/81/3 65/82/21 23/27/3
f 23/27/3 65/82/21 24/28/21
f 24/83/21 65/84/21 25/85/22
f 25/85/22 65/84/21 66/86/22
f 25/29/22 66/87/22 31/35/15
f 31/35/15 66/87/22 63/80/15
f 30/34/3 40/88/3 23/27/3
f 23/27/3 40/88/3 64/81/3
f 44/89/23 45/90/23 67/91/23
f 67/91/23 45/90/23 68/92/23
f 68/92/23 45/90/23 69/93/24
f 69/93/24 45/90/23 48/58/24
f 69/93/24 48/58/24 70/94/25
f 70/94/25 48/58/24 47/56/25
f 70/94/25 47/56/25 46/95/26
f 46/95/26 71/96/26 70/94/25
f 46/95/26 49/97/26 71/96/26
f 71/96/26 49/97/26 72/98/26
f 72/98/26 49/97/26 73/99/27
f 73/99/27 49/97/26 55/100/27
f 73/99/27 55/100/27 54/101/28
f 73/99/27 54/101/28 74/102/28
f 74/102/28 54/101/28 53/103/29
f 74/102/28 53/103/29 75/104/29
f 75/105/29 53/106/29 52/107/30
f 75/105/29 52/107/30 76/108/30
f 76/108/30 52/107/30 51/109/31
f 76/108/30 51/109/31 77/110/31
f 77/110/31 51/109/31 50/111/32
f 77/110/31 50/111/32 78/112/32
f 50/111/32 56/113/32 78/112/32
f 78/112/32 56/113/32 79/114/32
f 79/114/32 56/113/32 80/115/33
f 80/115/33 56/113/32 62/116/33
f 80/115/33 62/116/33 61/117/34
f 80/115/33 61/117/34 81/118/34
f 81/118/34 61/117/34 60/119/35
f 81/118/34 60/119/35 82/120/35
f 82/121/35 60/122/35 59/123/36
f 82/121/35 59/123/36 83/124/36
f 83/124/36 59/123/36 58/125/37
f 83/124/36 58/125/37 84/126/37
f 84/126/37 58/125/37 57/127/38
f 84/126/37 57/127/38 85/128/38
f 57/127/38 63/129/39 85/128/38
f 85/128/38 63/129/39 86/130/38
f 86/130/38 63/129/39 87/131/40
f 87/131/40 63/129/39 66/86/40
f 87/131/40 66/86/40 88/132/41
f 88/132/41 66/86/40 65/84/41
f 88/132/41 65/84/41 64/133/42
f 64/133/42 89/134/42 88/132/41
f 64/133/42 40/135/42 89/134/42
f 89/134/42 40/135/42 39/136/42
f 90/137/43 91/138/43 92/139/43
f 92/139/43 91/138/43 93/140/43
f 93/141/44 94/142/44 92/143/44
f 92/143/44 94/142/44 95/144/44
f 94/145/45 43/146/45 95/147/45
f 95/147/45 43/146/45 42/148/45
f 6/149/42 8/150/42 92/151/42
f 92/151/42 8/150/42 90/152/42
f 3/7/5 6/8/5 95/144/5
f 95/144/5 6/8/5 92/143/5
f 1/153/23 3/154/23 42/155/23
f 42/155/23 3/154/23 95/156/23
f 96/157/45 67/158/45 97/159/45
f 97/159/45 67/158/45 68/160/45
f 98/161/46 99/162/47 71/163/46
f 71/163/46 99/162/47 70/164/47
f 70/94/47 99/165/47 69/93/48
f 69/93/48 99/165/47 100/166/48
f 69/167/48 100/168/48 68/160/45
f 68/160/45 100/168/48 97/159/45
f 72/169/46 101/170/46 71/163/46
f 71/163/46 101/170/46 98/161/46
f 102/171/49 103/172/50 78/173/49
f 78/112/49 103/174/50 77/110/50
f 77/175/50 103/172/50 104/176/51
f 77/175/50 104/176/51 76/177/51
f 76/177/51 104/176/51 105/178/52
f 76/177/51 105/178/52 75/179/52
f 75/179/52 105/178/52 106/180/53
f 75/179/52 106/180/53 74/181/53
f 74/181/53 106/180/53 107/182/54
f 74/181/53 107/182/54 73/183/54
f 73/183/54 107/182/54 72/169/46
f 72/169/46 107/182/54 101/170/46
f 108/184/49 102/171/49 79/185/49
f 79/185/49 102/171/49 78/173/49
f 109/186/55 110/187/56 85/188/55
f 85/188/55 110/187/56 84/189/56
f 84/189/56 110/187/56 111/190/57
f 84/189/56 111/190/57 83/191/57
f 83/191/57 111/190/57 112/192/58
f 83/191/57 112/192/58 82/193/58
f 82/193/58 112/192/58 113/194/59
f 82/193/58 113/194/59 81/195/59
f 81/195/59 113/194/59 114/196/60
f 81/195/59 114/196/60 80/197/60
f 80/115/60 114/198/60 79/114/49
f 79/185/49 114/196/60 108/184/49
f 86/199/55 115/200/55 85/188/55
f 85/188/55 115/200/55 109/186/55
f 116/201/43 117/202/61 89/203/43
f 89/203/43 117/202/61 88/204/61
f 88/132/61 117/205/61 87/131/62
f 87/131/62 117/205/61 118/206/62
f 87/207/62 118/208/62 86/199/55
f 86/199/55 118/208/62 115/200/55
f 39/209/43 41/210/43 89/203/43
f 89/203/43 41/210/43 116/201/43
f 119/211/63 18/22/63 120/212/63
f 120/212/63 18/22/63 14/18/63
f 9/13/64 11/15/64 121/213/64
f 121/213/64 11/15/64 122/214/64
f 26/30/3 123/215/3 11/15/3
f 11/15/3 123/215/3 122/214/3
f 124/216/9 123/215/9 22/26/9
f 22/26/9 123/215/9 26/30/9
f 119/211/1 124/216/1 18/22/1
f 18/22/1 124/216/1 22/26/1
f 121/217/2 120/218/2 9/219/2
f 9/219/2 120/218/2 14/220/2
f 119/221/65 120/222/65 125/223/65
f 125/223/65 120/222/65 126/224/65
f 120/218/5 121/217/5 126/225/5
f 126/225/5 121/217/5 127/226/5
f 121/227/66 122/228/66 127/229/66
f 127/229/66 122/228/66 128/230/66
f 129/231/44 130/232/44 127/226/44
f 127/226/44 130/232/44 126/225/44
f 130/233/67 131/234/67 126/235/67
f 126/235/67 131/234/67 125/236/67
f 132/237/45 133/238/45 131/234/45
f 131/234/45 133/238/45 125/236/45
f 132/237/49 134/239/49 133/238/49
f 133/238/49 134/239/49 135/240/49
f 128/241/43 135/240/43 136/242/43
f 136/242/43 135/240/43 134/239/43
f 128/241/68 136/242/68 127/243/68
f 127/243/68 136/242/68 129/244/68
f 122/228/42 123/245/42 128/230/42
f 128/230/42 123/245/42 135/246/42
f 91/138/69 96/157/69 93/140/69
f 93/140/69 96/157/69 97/159/69
f 93/140/69 97/159/69 134/239/69
f 134/239/69 97/159/69 136/242/69
f 136/242/69 97/159/69 100/168/69
f 136/242/69 100/168/69 99/162/69
f 99/162/69 98/161/69 136/242/69
f 136/242/69 98/161/69 101/170/69
f 136/242/69 101/170/69 129/244/69
f 129/244/69 101/170/69 107/182/69
f 129/244/69 107/182/69 106/180/69
f 106/180/69 105/178/69 129/244/69
f 129/244/69 105/178/69 104/176/69
f 129/244/69 104/176/69 103/172/69
f 103/172/69 102/171/69 129/244/69
f 129/244/69 102/171/69 108/184/69
f 129/244/69 108/184/69 130/233/69
f 130/233/69 108/184/69 114/196/69
f 130/233/69 114/196/69 113/194/69
f 113/194/69 112/192/69 130/233/69
f 130/233/69 112/192/69 111/190/69
f 130/233/69 111/190/69 110/187/69
f 110/187/69 109/186/69 130/233/69
f 130/233/69 109/186/69 131/234/69
f 131/234/69 109/186/69 115/200/69
f 131/234/69 115/200/69 118/208/69
f 118/208/69 117/202/69 131/234/69
f 131/234/69 117/202/69 116/201/69
f 131/234/69 116/201/69 132/237/69
f 132/237/69 116/201/69 94/145/69
f 132/237/69 94/145/69 93/140/69
f 116/201/69 41/210/69 94/145/69
f 94/145/69 41/210/69 43/146/69
f 134/239/69 132/237/69 93/140/69
f 124/247/23 119/221/23 133/248/23
f 133/248/23 119/221/23 125/223/23
f 123/249/32 124/250/32 135/251/32
f 135/251/32 124/250/32 133/252/32
f 7/253/5 28/254/5 8/255/5
f 8/255/5 28/254/5 90/256/5
f 90/256/5 28/254/5 44/257/5
f 90/256/5 44/257/5 91/258/5
f 91/258/5 44/257/5 67/259/5
f 91/258/5 67/259/5 96/260/5
