# Blender v2.80 (sub 75) OBJ File: ''
# www.blender.org
mtllib E.mtl
o E
v 0.400000 0.600000 -0.050000
v 0.400000 0.300000 -0.050000
v 0.350000 0.550000 -0.100000
v 0.350000 0.300000 -0.100000
v -0.400000 0.550000 -0.100000
v -0.400000 0.600000 -0.050000
v 0.400000 0.300000 0.050000
v 0.400000 0.600000 0.050000
v -0.400000 0.600000 0.050000
v -0.400000 0.450000 -0.100000
v -0.400000 0.400000 -0.050000
v -0.400000 0.550000 0.100000
v -0.400000 0.400000 0.050000
v -0.400000 0.450000 0.100000
v 0.300000 -0.100000 -0.050000
v 0.250000 -0.100000 -0.100000
v 0.300000 0.200000 -0.050000
v 0.250000 0.200000 -0.100000
v 0.300000 -0.100000 0.050000
v 0.300000 0.200000 0.050000
v 0.150000 0.200000 -0.100000
v 0.100000 0.200000 -0.050000
v 0.250000 0.200000 0.100000
v 0.100000 0.200000 0.050000
v 0.150000 0.200000 0.100000
v 0.100000 0.150000 -0.050000
v 0.150000 0.100000 -0.100000
v -0.150000 0.100000 -0.100000
v -0.100000 0.150000 -0.050000
v -0.100000 0.400000 -0.050000
v -0.150000 0.450000 -0.100000
v 0.200000 0.400000 -0.050000
v 0.250000 0.450000 -0.100000
v 0.250000 0.300000 -0.100000
v 0.200000 0.300000 -0.050000
v 0.100000 0.150000 0.050000
v -0.100000 0.150000 0.050000
v -0.100000 0.400000 0.050000
v 0.200000 0.400000 0.050000
v 0.200000 0.300000 0.050000
v 0.250000 0.300000 0.100000
v 0.350000 0.300000 0.100000
v 0.200000 -0.300000 -0.050000
v 0.250000 -0.300000 -0.100000
v 0.200000 -0.400000 -0.050000
v 0.250000 -0.450000 -0.100000
v -0.100000 -0.400000 -0.050000
v -0.150000 -0.450000 -0.100000
v -0.100000 -0.050000 -0.050000
v -0.150000 0.000000 -0.100000
v 0.100000 -0.050000 -0.050000
v 0.150000 0.000000 -0.100000
v 0.150000 -0.100000 -0.100000
v 0.100000 -0.100000 -0.050000
v 0.200000 -0.300000 0.050000
v 0.200000 -0.400000 0.050000
v -0.100000 -0.400000 0.050000
v -0.100000 -0.050000 0.050000
v 0.100000 -0.050000 0.050000
v 0.100000 -0.100000 0.050000
v 0.150000 -0.100000 0.100000
v 0.250000 -0.100000 0.100000
v 0.400000 -0.600000 -0.050000
v -0.400000 -0.600000 -0.050000
v 0.350000 -0.550000 -0.100000
v -0.400000 -0.550000 -0.100000
v 0.350000 -0.300000 -0.100000
v 0.400000 -0.300000 -0.050000
v -0.400000 -0.600000 0.050000
v 0.400000 -0.600000 0.050000
v 0.400000 -0.300000 0.050000
v 0.350000 -0.300000 0.100000
v 0.250000 -0.300000 0.100000
v -0.300000 0.400000 -0.050000
v -0.250000 0.450000 -0.100000
v -0.300000 -0.400000 -0.050000
v -0.250000 -0.450000 -0.100000
v -0.400000 -0.450000 -0.100000
v -0.400000 -0.400000 -0.050000
v -0.300000 0.400000 0.050000
v -0.300000 -0.400000 0.050000
v -0.400000 -0.400000 0.050000
v -0.400000 -0.450000 0.100000
v -0.400000 -0.550000 0.100000
v 0.350000 -0.550000 0.100000
v -0.150000 -0.450000 0.100000
v -0.250000 -0.450000 0.100000
v 0.250000 -0.450000 0.100000
v -0.150000 0.000000 0.100000
v -0.250000 0.450000 0.100000
v -0.150000 0.100000 0.100000
v -0.150000 0.450000 0.100000
v 0.150000 0.000000 0.100000
v 0.150000 0.100000 0.100000
v 0.250000 0.450000 0.100000
v 0.350000 0.550000 0.100000
vt 0.452871 0.654545
vt 0.452871 0.498701
vt 0.477483 0.628571
vt 0.477483 0.498701
vt 0.846671 0.628571
vt 0.846671 0.654545
vt 0.403646 0.807792
vt 0.403646 0.963636
vt 0.354421 0.807792
vt 0.354421 0.963636
vt 0.997539 0.020779
vt 0.997539 0.436364
vt 0.948314 0.020779
vt 0.948314 0.436364
vt 0.327347 0.690909
vt 0.376572 0.690909
vt 0.302734 0.716883
vt 0.302734 0.768831
vt 0.401184 0.716883
vt 0.327347 0.794805
vt 0.401184 0.768831
vt 0.376572 0.794805
vt 0.502096 0.290909
vt 0.526708 0.290909
vt 0.502096 0.446753
vt 0.526708 0.446753
vt 0.295350 0.807792
vt 0.295350 0.963636
vt 0.246125 0.807792
vt 0.246125 0.963636
vt 0.509479 0.716883
vt 0.509479 0.768831
vt 0.484867 0.690909
vt 0.435642 0.690909
vt 0.484867 0.794805
vt 0.411029 0.716883
vt 0.435642 0.794805
vt 0.411029 0.768831
vt 0.600546 0.446753
vt 0.575933 0.446753
vt 0.600546 0.420779
vt 0.575933 0.394805
vt 0.723608 0.394805
vt 0.698996 0.420779
vt 0.698996 0.550649
vt 0.723608 0.576623
vt 0.029535 0.722078
vt 0.029535 0.877922
vt 0.004923 0.696104
vt 0.004923 0.903896
vt 0.646079 0.909091
vt 0.572242 0.909091
vt 0.621467 0.883117
vt 0.572242 0.883117
vt 0.865130 0.740260
vt 0.840518 0.740260
vt 0.865130 0.688312
vt 0.840518 0.688312
vt 0.787601 0.909091
vt 0.787601 0.805195
vt 0.836826 0.909091
vt 0.836826 0.805195
vt 0.701457 0.806493
vt 0.701457 0.936364
vt 0.652232 0.806493
vt 0.652232 0.936364
vt 0.078760 0.877922
vt 0.078760 0.722078
vt 0.621467 0.831169
vt 0.572242 0.831169
vt 0.617774 0.716883
vt 0.519324 0.768831
vt 0.593162 0.690909
vt 0.519324 0.716883
vt 0.543937 0.690909
vt 0.543937 0.794805
vt 0.617774 0.768831
vt 0.593162 0.794805
vt 0.483636 0.883117
vt 0.483636 0.909091
vt 0.434411 0.883117
vt 0.409799 0.909091
vt 0.161212 0.877922
vt 0.161212 0.722078
vt 0.185825 0.903896
vt 0.185825 0.696104
vt 0.698996 0.135065
vt 0.723608 0.109091
vt 0.698996 0.316883
vt 0.723608 0.342857
vt 0.600546 0.316883
vt 0.575933 0.342857
vt 0.575933 0.290909
vt 0.600546 0.290909
vt 0.483636 0.831169
vt 0.434411 0.831169
vt 0.111987 0.722078
vt 0.111987 0.877922
vt 0.241203 0.809091
vt 0.241203 0.990909
vt 0.191978 0.809091
vt 0.191978 0.990909
vt 0.706380 0.994805
vt 0.706380 0.890909
vt 0.755605 0.994805
vt 0.755605 0.890909
vt 0.783909 0.940260
vt 0.759297 0.940260
vt 0.783909 0.888312
vt 0.759297 0.888312
vt 0.809752 0.794805
vt 0.760527 0.690909
vt 0.834365 0.768831
vt 0.809752 0.690909
vt 0.834365 0.716883
vt 0.735915 0.716883
vt 0.760527 0.794805
vt 0.735915 0.768831
vt 0.894665 0.510689
vt 0.894665 0.926273
vt 0.870053 0.536663
vt 0.870053 0.926273
vt 0.477483 0.187013
vt 0.452871 0.187013
vt 0.477483 0.057143
vt 0.452871 0.031169
vt 0.943891 0.926273
vt 0.943890 0.510689
vt 0.300273 0.963636
vt 0.300273 0.807792
vt 0.349498 0.963636
vt 0.349498 0.807792
vt 0.268277 0.794805
vt 0.219052 0.690909
vt 0.292889 0.768831
vt 0.268277 0.690909
vt 0.292889 0.716883
vt 0.194439 0.716883
vt 0.219052 0.794805
vt 0.194439 0.768831
vt 0.564858 0.883117
vt 0.564858 0.909091
vt 0.515633 0.883117
vt 0.491020 0.909091
vt 0.919114 0.440186
vt 0.942239 0.025319
vt 0.942239 0.467641
vt 0.772833 0.109091
vt 0.797446 0.550649
vt 0.772833 0.576623
vt 0.781448 0.803896
vt 0.781448 0.881818
vt 0.756835 0.829870
vt 0.756835 0.881818
vt 0.564858 0.831169
vt 0.515633 0.831169
vt 0.893099 0.022269
vt 0.869974 0.437136
vt 0.707610 0.829870
vt 0.707610 0.881818
vt 0.726070 0.716883
vt 0.627620 0.768831
vt 0.701457 0.690909
vt 0.627620 0.716883
vt 0.652232 0.690909
vt 0.652232 0.794805
vt 0.726070 0.768831
vt 0.701457 0.794805
vt 0.413490 0.031169
vt 0.413490 0.187013
vt 0.388878 0.057143
vt 0.388878 0.187013
vt 0.019690 0.057143
vt 0.019690 0.031169
vt 0.142753 0.109091
vt 0.093528 0.109091
vt 0.019690 0.109091
vt 0.339653 0.109091
vt 0.339653 0.187013
vt 0.142753 0.342857
vt 0.093528 0.576623
vt 0.142753 0.394805
vt 0.142753 0.576623
vt 0.290428 0.342857
vt 0.290428 0.394805
vt 0.339653 0.290909
vt 0.339653 0.446753
vt 0.290428 0.290909
vt 0.290428 0.446753
vt 0.339653 0.576623
vt 0.388878 0.628571
vt 0.019690 0.628571
vt 0.019690 0.576623
vt 0.339653 0.498701
vt 0.388878 0.498701
vt 0.265815 0.290909
vt 0.265815 0.316883
vt 0.167365 0.316883
vt 0.167365 0.135065
vt 0.315040 0.135065
vt 0.409799 0.805195
vt 0.483636 0.805195
vt 0.364265 0.446753
vt 0.364265 0.290909
vt 0.572242 0.805195
vt 0.646079 0.805195
vt 0.103373 0.903896
vt 0.103373 0.696104
vt 0.167365 0.420779
vt 0.167365 0.550649
vt 0.265815 0.420779
vt 0.265815 0.446753
vt 0.413490 0.654545
vt 0.019690 0.654545
vt 0.413490 0.498701
vt 0.019690 0.135065
vt 0.068915 0.135065
vt 0.068915 0.550649
vt 0.491020 0.805195
vt 0.564858 0.805195
vt 0.526708 0.576623
vt 0.846671 0.576623
vt 0.526708 0.498701
vt 0.846671 0.057143
vt 0.526708 0.109091
vt 0.526708 0.187013
vt 0.846671 0.109091
vn 0.7071 0.0000 -0.7071
vn 0.0000 0.7071 -0.7071
vn 1.0000 0.0000 0.0000
vn 0.0000 1.0000 0.0000
vn -1.0000 -0.0000 0.0000
vn -0.7071 0.0000 -0.7071
vn 0.0000 -0.7071 -0.7071
vn 0.0000 -1.0000 0.0000
vn 0.7071 0.0000 0.7071
vn 0.0000 -0.7071 0.7071
vn 0.0000 -0.0000 1.0000
vn -0.7071 -0.0000 0.7071
vn 0.0000 0.7071 0.7071
vn 0.0000 0.0000 -1.0000
usemtl Steel_-_Satin.014
s 1
f 1/1/1 2/2/1 3/3/1
f 3/3/1 2/2/1 4/4/1
f 5/5/2 6/6/2 3/3/2
f 3/3/2 6/6/2 1/1/2
f 2/7/3 1/8/3 7/9/3
f 7/9/3 1/8/3 8/10/3
f 1/11/4 6/12/4 8/13/4
f 8/13/4 6/12/4 9/14/4
f 5/15/5 10/16/5 6/17/5
f 6/17/5 10/16/5 9/18/5
f 9/18/5 10/16/5 11/19/5
f 9/18/5 11/19/5 12/20/5
f 12/20/5 11/19/5 13/21/5
f 12/20/5 13/21/5 14/22/5
f 15/23/1 16/24/1 17/25/1
f 17/25/1 16/24/1 18/26/1
f 15/27/3 17/28/3 19/29/3
f 19/29/3 17/28/3 20/30/3
f 18/31/4 21/32/4 17/33/4
f 17/33/4 21/32/4 20/34/4
f 20/34/4 21/32/4 22/35/4
f 20/34/4 22/35/4 23/36/4
f 23/36/4 22/35/4 24/37/4
f 23/36/4 24/37/4 25/38/4
f 22/39/6 21/40/6 26/41/6
f 26/41/6 21/40/6 27/42/6
f 27/42/2 28/43/2 26/41/2
f 26/41/2 28/43/2 29/44/2
f 29/44/1 28/43/1 30/45/1
f 30/45/1 28/43/1 31/46/1
f 32/47/7 30/48/7 33/49/7
f 33/49/7 30/48/7 31/50/7
f 33/51/6 34/52/6 32/53/6
f 32/53/6 34/52/6 35/54/6
f 22/55/5 26/56/5 24/57/5
f 24/57/5 26/56/5 36/58/5
f 26/59/4 29/60/4 36/61/4
f 36/61/4 29/60/4 37/62/4
f 29/63/3 30/64/3 37/65/3
f 37/65/3 30/64/3 38/66/3
f 30/48/8 32/47/8 38/67/8
f 38/67/8 32/47/8 39/68/8
f 32/53/5 35/54/5 39/69/5
f 39/69/5 35/54/5 40/70/5
f 2/71/8 40/72/8 4/73/8
f 4/73/8 40/72/8 35/74/8
f 4/73/8 35/74/8 34/75/8
f 40/72/8 2/71/8 41/76/8
f 41/76/8 2/71/8 7/77/8
f 41/76/8 7/77/8 42/78/8
f 43/79/6 44/80/6 45/81/6
f 45/81/6 44/80/6 46/82/6
f 47/83/2 45/84/2 48/85/2
f 48/85/2 45/84/2 46/86/2
f 47/87/1 48/88/1 49/89/1
f 49/89/1 48/88/1 50/90/1
f 51/91/7 49/89/7 52/92/7
f 52/92/7 49/89/7 50/90/7
f 52/92/6 53/93/6 51/91/6
f 51/91/6 53/93/6 54/94/6
f 43/79/5 45/81/5 55/95/5
f 55/95/5 45/81/5 56/96/5
f 45/84/4 47/83/4 56/97/4
f 56/97/4 47/83/4 57/98/4
f 47/99/3 49/100/3 57/101/3
f 57/101/3 49/100/3 58/102/3
f 49/103/8 51/104/8 58/105/8
f 58/105/8 51/104/8 59/106/8
f 51/107/5 54/108/5 59/109/5
f 59/109/5 54/108/5 60/110/5
f 15/111/8 60/112/8 16/113/8
f 16/113/8 60/112/8 54/114/8
f 16/113/8 54/114/8 53/115/8
f 60/112/8 15/111/8 61/116/8
f 61/116/8 15/111/8 19/117/8
f 61/116/8 19/117/8 62/118/8
f 63/119/7 64/120/7 65/121/7
f 65/121/7 64/120/7 66/122/7
f 67/123/1 68/124/1 65/125/1
f 65/125/1 68/124/1 63/126/1
f 64/120/8 63/119/8 69/127/8
f 69/127/8 63/119/8 70/128/8
f 63/129/3 68/130/3 70/131/3
f 70/131/3 68/130/3 71/132/3
f 43/133/4 71/134/4 44/135/4
f 44/135/4 71/134/4 68/136/4
f 44/135/4 68/136/4 67/137/4
f 71/134/4 43/133/4 72/138/4
f 72/138/4 43/133/4 55/139/4
f 72/138/4 55/139/4 73/140/4
f 11/141/7 10/142/7 74/143/7
f 74/143/7 10/142/7 75/144/7
f 76/145/6 74/146/6 77/147/6
f 77/148/6 74/149/6 75/150/6
f 77/151/2 78/152/2 76/153/2
f 76/153/2 78/152/2 79/154/2
f 11/141/8 74/143/8 13/155/8
f 13/155/8 74/143/8 80/156/8
f 74/146/5 76/145/5 80/157/5
f 80/157/5 76/145/5 81/158/5
f 76/153/4 79/154/4 81/159/4
f 81/159/4 79/154/4 82/160/4
f 64/161/5 82/162/5 66/163/5
f 66/163/5 82/162/5 79/164/5
f 66/163/5 79/164/5 78/165/5
f 82/162/5 64/161/5 83/166/5
f 83/166/5 64/161/5 69/167/5
f 83/166/5 69/167/5 84/168/5
f 70/169/9 71/170/9 85/171/9
f 85/171/9 71/170/9 72/172/9
f 84/173/10 69/174/10 85/171/10
f 85/171/10 69/174/10 70/169/10
f 85/171/11 86/175/11 84/173/11
f 84/173/11 86/175/11 87/176/11
f 84/173/11 87/176/11 83/177/11
f 86/175/11 85/171/11 88/178/11
f 88/178/11 85/171/11 72/172/11
f 88/178/11 72/172/11 73/179/11
f 86/175/11 89/180/11 87/176/11
f 87/176/11 89/180/11 90/181/11
f 90/181/11 89/180/11 91/182/11
f 90/181/11 91/182/11 92/183/11
f 89/180/11 93/184/11 91/182/11
f 91/182/11 93/184/11 94/185/11
f 94/185/11 93/184/11 62/186/11
f 94/185/11 62/186/11 23/187/11
f 93/184/11 61/188/11 62/186/11
f 23/187/11 25/189/11 94/185/11
f 95/190/11 96/191/11 92/183/11
f 92/183/11 96/191/11 12/192/11
f 92/183/11 12/192/11 90/181/11
f 90/181/11 12/192/11 14/193/11
f 41/194/11 42/195/11 95/190/11
f 95/190/11 42/195/11 96/191/11
f 60/196/12 61/188/12 59/197/12
f 59/197/12 61/188/12 93/184/12
f 58/198/10 59/197/10 89/180/10
f 89/180/10 59/197/10 93/184/10
f 57/199/9 58/198/9 86/175/9
f 86/175/9 58/198/9 89/180/9
f 56/200/13 57/199/13 88/178/13
f 88/178/13 57/199/13 86/175/13
f 88/201/12 73/202/12 56/96/12
f 56/96/12 73/202/12 55/95/12
f 20/203/9 23/187/9 19/204/9
f 19/204/9 23/187/9 62/186/9
f 40/70/12 41/205/12 39/69/12
f 39/69/12 41/205/12 95/206/12
f 38/67/10 39/68/10 92/207/10
f 92/207/10 39/68/10 95/208/10
f 37/209/9 38/210/9 91/182/9
f 91/182/9 38/210/9 92/183/9
f 36/211/13 37/209/13 94/185/13
f 94/185/13 37/209/13 91/182/13
f 94/185/12 25/189/12 36/211/12
f 36/211/12 25/189/12 24/212/12
f 8/213/13 9/214/13 96/191/13
f 96/191/13 9/214/13 12/192/13
f 42/195/9 7/215/9 96/191/9
f 96/191/9 7/215/9 8/213/9
f 82/216/13 83/177/13 81/217/13
f 81/217/13 83/177/13 87/176/13
f 90/181/12 80/218/12 87/176/12
f 87/176/12 80/218/12 81/217/12
f 90/219/10 14/220/10 80/156/10
f 80/156/10 14/220/10 13/155/10
f 4/4/14 33/221/14 3/3/14
f 3/3/14 33/221/14 31/46/14
f 3/3/14 31/46/14 5/5/14
f 5/5/14 31/46/14 75/150/14
f 5/5/14 75/150/14 10/222/14
f 4/4/14 34/223/14 33/221/14
f 31/46/14 28/43/14 75/150/14
f 75/150/14 28/43/14 50/90/14
f 75/150/14 50/90/14 77/148/14
f 77/148/14 50/90/14 48/88/14
f 77/148/14 48/88/14 66/224/14
f 66/224/14 48/88/14 65/125/14
f 65/125/14 48/88/14 46/225/14
f 65/125/14 46/225/14 67/123/14
f 67/123/14 46/225/14 44/226/14
f 28/43/14 27/42/14 50/90/14
f 50/90/14 27/42/14 52/92/14
f 52/92/14 27/42/14 16/24/14
f 52/92/14 16/24/14 53/93/14
f 21/40/14 18/26/14 27/42/14
f 27/42/14 18/26/14 16/24/14
f 66/224/14 78/227/14 77/148/14
