# Blender v2.80 (sub 75) OBJ File: ''
# www.blender.org
mtllib F.mtl
o F
v 0.000000 -0.600000 -0.050000
v -0.400000 -0.600000 -0.050000
v 0.000000 -0.550000 -0.100000
v -0.400000 -0.550000 -0.100000
v -0.400000 -0.600000 0.050000
v 0.000000 -0.600000 0.050000
v 0.000000 -0.450000 -0.100000
v 0.000000 -0.400000 -0.050000
v 0.000000 -0.550000 0.100000
v 0.000000 -0.400000 0.050000
v 0.000000 -0.450000 0.100000
v -0.400000 0.400000 -0.050000
v -0.400000 0.450000 -0.100000
v -0.300000 0.400000 -0.050000
v -0.250000 0.450000 -0.100000
v -0.250000 -0.450000 -0.100000
v -0.300000 -0.400000 -0.050000
v -0.400000 -0.450000 -0.100000
v -0.400000 -0.400000 -0.050000
v -0.400000 0.400000 0.050000
v -0.300000 0.400000 0.050000
v -0.300000 -0.400000 0.050000
v -0.400000 -0.400000 0.050000
v -0.400000 -0.450000 0.100000
v -0.400000 -0.550000 0.100000
v -0.100000 -0.400000 -0.050000
v -0.150000 -0.450000 -0.100000
v -0.150000 0.000000 -0.100000
v -0.100000 -0.050000 -0.050000
v 0.100000 -0.050000 -0.050000
v 0.150000 0.000000 -0.100000
v 0.150000 -0.100000 -0.100000
v 0.100000 -0.100000 -0.050000
v -0.100000 -0.400000 0.050000
v -0.100000 -0.050000 0.050000
v 0.100000 -0.050000 0.050000
v 0.100000 -0.100000 0.050000
v 0.250000 -0.100000 -0.100000
v 0.300000 -0.100000 -0.050000
v 0.150000 -0.100000 0.100000
v 0.300000 -0.100000 0.050000
v 0.250000 -0.100000 0.100000
v 0.100000 0.200000 -0.050000
v 0.150000 0.200000 -0.100000
v 0.100000 0.150000 -0.050000
v 0.150000 0.100000 -0.100000
v -0.150000 0.100000 -0.100000
v -0.100000 0.150000 -0.050000
v -0.150000 0.450000 -0.100000
v -0.100000 0.400000 -0.050000
v 0.250000 0.450000 -0.100000
v 0.200000 0.400000 -0.050000
v 0.250000 0.300000 -0.100000
v 0.200000 0.300000 -0.050000
v 0.100000 0.200000 0.050000
v 0.100000 0.150000 0.050000
v -0.100000 0.150000 0.050000
v -0.100000 0.400000 0.050000
v 0.200000 0.400000 0.050000
v 0.200000 0.300000 0.050000
v 0.350000 0.300000 -0.100000
v 0.400000 0.300000 -0.050000
v 0.250000 0.300000 0.100000
v 0.400000 0.300000 0.050000
v 0.350000 0.300000 0.100000
v -0.250000 -0.450000 0.100000
v -0.250000 0.450000 0.100000
v -0.400000 0.450000 0.100000
v -0.400000 0.550000 0.100000
v -0.150000 0.450000 0.100000
v 0.350000 0.550000 0.100000
v 0.250000 0.450000 0.100000
v -0.150000 -0.000000 0.100000
v -0.150000 0.100000 0.100000
v -0.150000 -0.450000 0.100000
v 0.150000 -0.000000 0.100000
v 0.150000 0.100000 0.100000
v 0.250000 0.200000 0.100000
v 0.150000 0.200000 0.100000
v 0.300000 0.200000 -0.050000
v 0.250000 0.200000 -0.100000
v 0.300000 0.200000 0.050000
v 0.400000 0.600000 -0.050000
v 0.350000 0.550000 -0.100000
v -0.400000 0.550000 -0.100000
v -0.400000 0.600000 -0.050000
v 0.400000 0.600000 0.050000
v -0.400000 0.600000 0.050000
vt 0.618984 0.687166
vt 0.618984 0.901069
vt 0.592246 0.687166
vt 0.592246 0.901069
vt 0.672460 0.901069
vt 0.672460 0.687166
vt 0.385027 0.711230
vt 0.438503 0.711230
vt 0.358289 0.737968
vt 0.358289 0.791444
vt 0.465241 0.737968
vt 0.385027 0.818182
vt 0.465241 0.791444
vt 0.438503 0.818182
vt 0.143048 0.909091
vt 0.143048 0.935829
vt 0.089572 0.909091
vt 0.062834 0.935829
vt 0.839572 0.565508
vt 0.839572 0.084225
vt 0.866310 0.538770
vt 0.866310 0.110963
vt 0.378342 0.827540
vt 0.378342 0.907754
vt 0.351604 0.854278
vt 0.351604 0.907754
vt 0.143048 0.855615
vt 0.089572 0.855615
vt 0.997326 0.491979
vt 0.997326 0.919786
vt 0.943850 0.491979
vt 0.943850 0.919786
vt 0.298128 0.854278
vt 0.298128 0.907754
vt 0.229946 0.737968
vt 0.122995 0.791444
vt 0.203209 0.711230
vt 0.122995 0.737968
vt 0.149733 0.711230
vt 0.149733 0.818182
vt 0.229946 0.791444
vt 0.203209 0.818182
vt 0.439840 0.827540
vt 0.466578 0.827540
vt 0.439840 0.881016
vt 0.466578 0.907754
vt 0.786096 0.324866
vt 0.759358 0.298128
vt 0.786096 0.084225
vt 0.759358 0.110963
vt 0.652406 0.298128
vt 0.625668 0.324866
vt 0.625668 0.271390
vt 0.652406 0.271390
vt 0.386364 0.827540
vt 0.386364 0.881016
vt 0.850267 0.685829
vt 0.850267 0.872995
vt 0.796791 0.685829
vt 0.796792 0.872995
vt 0.796791 0.994652
vt 0.796791 0.887701
vt 0.850267 0.994652
vt 0.850267 0.887701
vt 0.322192 0.967914
vt 0.295455 0.967914
vt 0.322192 0.914439
vt 0.295455 0.914439
vt 0.788770 0.826203
vt 0.788770 0.879679
vt 0.762032 0.799465
vt 0.708556 0.799465
vt 0.762032 0.906417
vt 0.681818 0.826203
vt 0.708556 0.906417
vt 0.681818 0.879679
vt 0.652406 0.431818
vt 0.625668 0.431818
vt 0.652406 0.405080
vt 0.625668 0.378342
vt 0.786096 0.378342
vt 0.759358 0.405080
vt 0.786096 0.565508
vt 0.759358 0.538770
vt 0.475936 0.901070
vt 0.475936 0.687166
vt 0.502674 0.874332
vt 0.502674 0.713904
vt 0.231283 0.935829
vt 0.151070 0.935829
vt 0.204545 0.909091
vt 0.151070 0.909091
vt 0.351604 0.967914
vt 0.324866 0.967914
vt 0.351604 0.914439
vt 0.324866 0.914439
vt 0.855615 0.965241
vt 0.855615 0.858289
vt 0.909091 0.965241
vt 0.909091 0.858289
vt 0.291444 0.830214
vt 0.291444 0.963904
vt 0.237968 0.830214
vt 0.237968 0.963904
vt 0.556150 0.874332
vt 0.556150 0.713904
vt 0.204545 0.855615
vt 0.151070 0.855615
vt 0.032086 0.711230
vt 0.085561 0.711230
vt 0.005348 0.737968
vt 0.005348 0.791444
vt 0.112299 0.737968
vt 0.032086 0.818182
vt 0.112299 0.791444
vt 0.085561 0.818182
vt 0.021390 0.139037
vt 0.021390 0.112299
vt 0.074866 0.139037
vt 0.101604 0.112299
vt 0.074866 0.566845
vt 0.101604 0.593583
vt 0.062834 0.828877
vt 0.143048 0.828877
vt 0.021390 0.593583
vt 0.021390 0.647059
vt 0.155080 0.593583
vt 0.422460 0.647059
vt 0.368984 0.593583
vt 0.422460 0.513369
vt 0.368984 0.513369
vt 0.155080 0.352941
vt 0.155080 0.406417
vt 0.021390 0.058824
vt 0.235294 0.058824
vt 0.155080 0.112299
vt 0.235294 0.112299
vt 0.315508 0.352941
vt 0.315508 0.406417
vt 0.368984 0.299465
vt 0.368984 0.459893
vt 0.315508 0.299465
vt 0.315508 0.459893
vt 0.235294 0.032086
vt 0.021390 0.032086
vt 0.288770 0.299465
vt 0.288770 0.326203
vt 0.181818 0.326203
vt 0.181818 0.139037
vt 0.235294 0.139037
vt 0.545455 0.271390
vt 0.572192 0.271390
vt 0.545455 0.431818
vt 0.572193 0.431818
vt 0.909091 0.684492
vt 0.909091 0.844920
vt 0.855615 0.684492
vt 0.855615 0.844920
vt 0.320856 0.818182
vt 0.267380 0.711230
vt 0.347594 0.791444
vt 0.320855 0.711230
vt 0.347594 0.737968
vt 0.240642 0.737968
vt 0.267380 0.818182
vt 0.240642 0.791444
vt 0.395722 0.299465
vt 0.395722 0.459893
vt 0.491979 0.645722
vt 0.491979 0.485294
vt 0.518717 0.618984
vt 0.518717 0.485294
vt 0.919786 0.618984
vt 0.919786 0.645722
vt 0.056150 0.831551
vt 0.056150 0.991979
vt 0.002674 0.831551
vt 0.002674 0.991979
vt 0.997326 0.021390
vt 0.997326 0.449198
vt 0.943850 0.021390
vt 0.943850 0.449198
vt 0.788770 0.708556
vt 0.681818 0.762032
vt 0.762032 0.681818
vt 0.681818 0.708556
vt 0.708556 0.681818
vt 0.708556 0.788770
vt 0.788770 0.762032
vt 0.762032 0.788770
vt 0.449198 0.673797
vt 0.021390 0.673797
vt 0.449198 0.513369
vt 0.151070 0.828877
vt 0.231283 0.828877
vt 0.582888 0.687166
vt 0.582888 0.901069
vt 0.181818 0.433155
vt 0.181818 0.566845
vt 0.288770 0.433155
vt 0.288770 0.459893
vt 0.705882 0.084225
vt 0.705882 0.030749
vt 0.919786 0.030749
vt 0.919786 0.084225
vt 0.919786 0.565508
vt 0.572193 0.565508
vt 0.572193 0.485294
vn 0.0000 -0.7071 -0.7071
vn 0.0000 -1.0000 0.0000
vn 1.0000 0.0000 0.0000
vn -0.7071 0.0000 -0.7071
vn 0.0000 0.7071 -0.7071
vn -1.0000 0.0000 0.0000
vn 0.0000 1.0000 0.0000
vn 0.7071 0.0000 -0.7071
vn 0.0000 0.7071 0.7071
vn -0.7071 -0.0000 0.7071
vn 0.0000 -0.7071 0.7071
vn 0.0000 -0.0000 1.0000
vn 0.7071 -0.0000 0.7071
vn 0.0000 0.0000 -1.0000
usemtl Steel_-_Satin.015
s 1
f 1/1/1 2/2/1 3/3/1
f 3/3/1 2/2/1 4/4/1
f 2/2/2 1/1/2 5/5/2
f 5/5/2 1/1/2 6/6/2
f 3/7/3 7/8/3 1/9/3
f 1/9/3 7/8/3 6/10/3
f 6/10/3 7/8/3 8/11/3
f 6/10/3 8/11/3 9/12/3
f 9/12/3 8/11/3 10/13/3
f 9/12/3 10/13/3 11/14/3
f 12/15/1 13/16/1 14/17/1
f 14/17/1 13/16/1 15/18/1
f 15/19/4 16/20/4 14/21/4
f 14/21/4 16/20/4 17/22/4
f 16/23/5 18/24/5 17/25/5
f 17/25/5 18/24/5 19/26/5
f 12/15/2 14/17/2 20/27/2
f 20/27/2 14/17/2 21/28/2
f 14/29/6 17/30/6 21/31/6
f 21/31/6 17/30/6 22/32/6
f 17/25/7 19/26/7 22/33/7
f 22/33/7 19/26/7 23/34/7
f 2/35/6 23/36/6 4/37/6
f 4/37/6 23/36/6 19/38/6
f 4/37/6 19/38/6 18/39/6
f 23/36/6 2/35/6 24/40/6
f 24/40/6 2/35/6 5/41/6
f 24/40/6 5/41/6 25/42/6
f 8/43/5 7/44/5 26/45/5
f 26/45/5 7/44/5 27/46/5
f 28/47/8 29/48/8 27/49/8
f 27/49/8 29/48/8 26/50/8
f 30/51/1 29/48/1 31/52/1
f 31/52/1 29/48/1 28/47/1
f 31/52/4 32/53/4 30/51/4
f 30/51/4 32/53/4 33/54/4
f 8/43/7 26/45/7 10/55/7
f 10/55/7 26/45/7 34/56/7
f 26/57/3 29/58/3 34/59/3
f 34/59/3 29/58/3 35/60/3
f 29/61/2 30/62/2 35/63/2
f 35/63/2 30/62/2 36/64/2
f 30/65/6 33/66/6 36/67/6
f 36/67/6 33/66/6 37/68/6
f 32/69/2 38/70/2 33/71/2
f 33/71/2 38/70/2 37/72/2
f 37/72/2 38/70/2 39/73/2
f 37/72/2 39/73/2 40/74/2
f 40/74/2 39/73/2 41/75/2
f 40/74/2 41/75/2 42/76/2
f 43/77/4 44/78/4 45/79/4
f 45/79/4 44/78/4 46/80/4
f 46/80/5 47/81/5 45/79/5
f 45/79/5 47/81/5 48/82/5
f 49/83/8 50/84/8 47/81/8
f 47/81/8 50/84/8 48/82/8
f 49/85/1 51/86/1 50/87/1
f 50/87/1 51/86/1 52/88/1
f 51/89/4 53/90/4 52/91/4
f 52/91/4 53/90/4 54/92/4
f 43/93/6 45/94/6 55/95/6
f 55/95/6 45/94/6 56/96/6
f 45/97/7 48/98/7 56/99/7
f 56/99/7 48/98/7 57/100/7
f 48/101/3 50/102/3 57/103/3
f 57/103/3 50/102/3 58/104/3
f 50/87/2 52/88/2 58/105/2
f 58/105/2 52/88/2 59/106/2
f 52/91/6 54/92/6 59/107/6
f 59/107/6 54/92/6 60/108/6
f 53/109/2 61/110/2 54/111/2
f 54/111/2 61/110/2 60/112/2
f 60/112/2 61/110/2 62/113/2
f 60/112/2 62/113/2 63/114/2
f 63/114/2 62/113/2 64/115/2
f 63/114/2 64/115/2 65/116/2
f 23/117/9 24/118/9 22/119/9
f 22/119/9 24/118/9 66/120/9
f 22/119/10 66/120/10 21/121/10
f 21/121/10 66/120/10 67/122/10
f 67/123/11 68/124/11 21/28/11
f 21/28/11 68/124/11 20/27/11
f 68/125/12 67/122/12 69/126/12
f 69/126/12 67/122/12 70/127/12
f 69/126/12 70/127/12 71/128/12
f 71/128/12 70/127/12 72/129/12
f 71/128/12 72/129/12 65/130/12
f 65/130/12 72/129/12 63/131/12
f 66/120/12 73/132/12 67/122/12
f 67/122/12 73/132/12 74/133/12
f 67/122/12 74/133/12 70/127/12
f 24/118/12 25/134/12 66/120/12
f 66/120/12 25/134/12 9/135/12
f 66/120/12 9/135/12 75/136/12
f 75/136/12 9/135/12 11/137/12
f 75/136/12 73/132/12 66/120/12
f 73/132/12 76/138/12 74/133/12
f 74/133/12 76/138/12 77/139/12
f 77/139/12 76/138/12 42/140/12
f 77/139/12 42/140/12 78/141/12
f 76/138/12 40/142/12 42/140/12
f 78/141/12 79/143/12 77/139/12
f 9/135/11 25/134/11 6/144/11
f 6/144/11 25/134/11 5/145/11
f 37/146/10 40/142/10 36/147/10
f 36/147/10 40/142/10 76/138/10
f 35/148/11 36/147/11 73/132/11
f 73/132/11 36/147/11 76/138/11
f 34/149/13 35/148/13 75/136/13
f 75/136/13 35/148/13 73/132/13
f 75/136/9 11/137/9 34/149/9
f 34/149/9 11/137/9 10/150/9
f 39/151/8 38/152/8 80/153/8
f 80/153/8 38/152/8 81/154/8
f 39/155/3 80/156/3 41/157/3
f 41/157/3 80/156/3 82/158/3
f 43/159/7 82/160/7 44/161/7
f 44/161/7 82/160/7 80/162/7
f 44/161/7 80/162/7 81/163/7
f 82/160/7 43/159/7 78/164/7
f 78/164/7 43/159/7 55/165/7
f 78/164/7 55/165/7 79/166/7
f 42/140/13 41/167/13 78/141/13
f 78/141/13 41/167/13 82/168/13
f 83/169/8 62/170/8 84/171/8
f 84/171/8 62/170/8 61/172/8
f 85/173/5 86/174/5 84/171/5
f 84/171/5 86/174/5 83/169/5
f 62/175/3 83/176/3 64/177/3
f 64/177/3 83/176/3 87/178/3
f 83/179/7 86/180/7 87/181/7
f 87/181/7 86/180/7 88/182/7
f 12/183/6 88/184/6 13/185/6
f 13/185/6 88/184/6 86/186/6
f 13/185/6 86/186/6 85/187/6
f 88/184/6 12/183/6 69/188/6
f 69/188/6 12/183/6 20/189/6
f 69/188/6 20/189/6 68/190/6
f 87/191/9 88/192/9 71/128/9
f 71/128/9 88/192/9 69/126/9
f 65/130/13 64/193/13 71/128/13
f 71/128/13 64/193/13 87/191/13
f 60/108/10 63/194/10 59/107/10
f 59/107/10 63/194/10 72/195/10
f 72/196/11 70/197/11 59/106/11
f 59/106/11 70/197/11 58/105/11
f 57/198/13 58/199/13 74/133/13
f 74/133/13 58/199/13 70/127/13
f 56/200/9 57/198/9 77/139/9
f 77/139/9 57/198/9 74/133/9
f 77/139/10 79/143/10 56/200/10
f 56/200/10 79/143/10 55/201/10
f 7/202/14 3/203/14 27/49/14
f 27/49/14 3/203/14 4/204/14
f 27/49/14 4/204/14 16/20/14
f 16/20/14 4/204/14 18/205/14
f 27/49/14 16/20/14 28/47/14
f 28/47/14 16/20/14 15/19/14
f 28/47/14 15/19/14 47/81/14
f 47/81/14 15/19/14 49/83/14
f 49/83/14 15/19/14 85/173/14
f 49/83/14 85/173/14 84/171/14
f 15/19/14 13/206/14 85/173/14
f 49/83/14 84/171/14 51/207/14
f 51/207/14 84/171/14 61/172/14
f 51/207/14 61/172/14 53/208/14
f 47/81/14 46/80/14 28/47/14
f 28/47/14 46/80/14 31/52/14
f 31/52/14 46/80/14 38/152/14
f 31/52/14 38/152/14 32/53/14
f 44/78/14 81/154/14 46/80/14
f 46/80/14 81/154/14 38/152/14
