# Blender v2.80 (sub 75) OBJ File: ''
# www.blender.org
mtllib H.mtl
o H
v 0.350000 0.600000 -0.100000
v 0.400000 0.600000 -0.050000
v 0.350000 -0.600000 -0.100000
v 0.400000 -0.600000 -0.050000
v 0.250000 0.000000 -0.100000
v 0.250000 0.100000 -0.100000
v 0.250000 0.600000 -0.100000
v 0.250000 -0.600000 -0.100000
v -0.250000 0.000000 -0.100000
v -0.250000 0.100000 -0.100000
v -0.350000 0.600000 -0.100000
v -0.250000 0.600000 -0.100000
v -0.250000 -0.600000 -0.100000
v -0.350000 -0.600000 -0.100000
v 0.200000 -0.600000 0.050000
v 0.200000 -0.600000 -0.050000
v 0.250000 -0.600000 0.100000
v 0.400000 -0.600000 0.050000
v 0.350000 -0.600000 0.100000
v 0.400000 0.600000 0.050000
v 0.350000 0.600000 0.100000
v 0.250000 0.000000 0.100000
v 0.250000 0.100000 0.100000
v 0.250000 0.600000 0.100000
v -0.250000 0.100000 0.100000
v -0.250000 0.000000 0.100000
v -0.350000 0.600000 0.100000
v -0.350000 -0.600000 0.100000
v -0.250000 0.600000 0.100000
v -0.250000 -0.600000 0.100000
v -0.200000 -0.600000 -0.050000
v -0.200000 -0.050000 -0.050000
v 0.200000 -0.050000 -0.050000
v -0.400000 -0.600000 0.050000
v -0.400000 -0.600000 -0.050000
v -0.200000 -0.600000 0.050000
v -0.200000 -0.050000 0.050000
v 0.200000 -0.050000 0.050000
v -0.400000 0.600000 -0.050000
v -0.400000 0.600000 0.050000
v 0.200000 0.600000 -0.050000
v 0.200000 0.150000 -0.050000
v -0.200000 0.150000 -0.050000
v -0.200000 0.600000 -0.050000
v 0.200000 0.600000 0.050000
v 0.200000 0.150000 0.050000
v -0.200000 0.150000 0.050000
v -0.200000 0.600000 0.050000
vt 0.398990 0.030303
vt 0.424242 0.030303
vt 0.398990 0.636364
vt 0.424242 0.636364
vt 0.348485 0.333333
vt 0.348485 0.282828
vt 0.348485 0.030303
vt 0.348485 0.636364
vt 0.095960 0.333333
vt 0.095960 0.282828
vt 0.045455 0.030303
vt 0.095960 0.030303
vt 0.095960 0.636364
vt 0.045455 0.636364
vt 0.608586 0.883838
vt 0.558081 0.782828
vt 0.633838 0.858586
vt 0.608586 0.782828
vt 0.633838 0.808081
vt 0.532828 0.808081
vt 0.558081 0.883838
vt 0.532828 0.858586
vt 0.868687 0.636364
vt 0.843434 0.636364
vt 0.868687 0.030303
vt 0.843434 0.030303
vt 0.792929 0.030303
vt 0.792929 0.333333
vt 0.792929 0.383838
vt 0.792929 0.636364
vt 0.540404 0.383838
vt 0.540404 0.333333
vt 0.489899 0.636364
vt 0.489899 0.030303
vt 0.540404 0.636364
vt 0.540404 0.030303
vt 0.862482 0.682899
vt 0.887631 0.680613
vt 0.887631 0.959536
vt 0.890151 0.959596
vt 0.915404 0.681818
vt 0.915404 0.984848
vt 0.323232 0.358586
vt 0.121212 0.358586
vt 0.106061 0.681818
vt 0.106061 0.984848
vt 0.080808 0.707071
vt 0.080808 0.984848
vt 0.830808 0.772727
vt 0.780303 0.671717
vt 0.856061 0.747475
vt 0.830808 0.671717
vt 0.856061 0.696970
vt 0.755050 0.696970
vt 0.780303 0.772727
vt 0.755051 0.747475
vt 0.337121 0.984848
vt 0.337121 0.707071
vt 0.387626 0.984848
vt 0.387626 0.707071
vt 0.030303 0.984848
vt 0.005051 0.984848
vt 0.030303 0.707071
vt 0.005051 0.681818
vt 0.767677 0.308081
vt 0.565656 0.308081
vt 0.412879 0.681818
vt 0.412879 0.984848
vt 0.474748 0.878788
vt 0.474748 0.676768
vt 0.525253 0.878788
vt 0.525253 0.676768
vt 0.020202 0.030303
vt 0.020202 0.636364
vt 0.997475 0.030303
vt 0.997475 0.636364
vt 0.946970 0.030303
vt 0.946970 0.636364
vt 0.303030 0.679293
vt 0.328283 0.679293
vt 0.303030 0.906566
vt 0.328283 0.931818
vt 0.323232 0.257576
vt 0.121212 0.257576
vt 0.217172 0.679293
vt 0.217172 0.931818
vt 0.191919 0.704545
vt 0.191919 0.931818
vt 0.252525 0.679293
vt 0.252525 0.906566
vt 0.419192 0.878788
vt 0.419192 0.676768
vt 0.469697 0.878788
vt 0.469697 0.676768
vt 0.141414 0.704546
vt 0.141414 0.931818
vt 0.608586 0.772727
vt 0.558081 0.671717
vt 0.633838 0.747475
vt 0.608586 0.671717
vt 0.633838 0.696970
vt 0.532828 0.696970
vt 0.558081 0.772727
vt 0.532828 0.747475
vt 0.116162 0.931818
vt 0.116162 0.679293
vt 0.767677 0.409091
vt 0.565656 0.409091
vt 0.227273 0.931818
vt 0.227273 0.679293
vt 0.464646 0.030303
vt 0.464646 0.636364
vt 0.744950 0.696970
vt 0.744950 0.747475
vt 0.719697 0.671717
vt 0.669192 0.671717
vt 0.719697 0.772727
vt 0.643939 0.696970
vt 0.669192 0.772727
vt 0.643939 0.747475
vt 0.941919 0.030303
vt 0.941919 0.636364
vt 0.891414 0.030303
vt 0.891414 0.636364
vn 0.7071 0.0000 -0.7071
vn -0.0000 0.0000 -1.0000
vn 0.0000 -1.0000 0.0000
vn 0.7071 -0.0000 0.7071
vn 0.0000 -0.0000 1.0000
vn 0.0000 -0.7071 -0.7071
vn -0.7071 0.0000 -0.7071
vn 1.0000 -0.0000 0.0000
vn -0.7071 -0.0000 0.7071
vn 0.0000 -0.7071 0.7071
vn -1.0000 -0.0000 0.0000
vn 0.0000 0.7071 -0.7071
vn 0.0000 1.0000 0.0000
vn 0.0000 0.7071 0.7071
usemtl Steel_-_Satin.017
s 1
f 1/1/1 2/2/1 3/3/1
f 3/3/1 2/2/1 4/4/1
f 3/3/2 5/5/2 1/1/2
f 1/1/2 5/5/2 6/6/2
f 1/1/2 6/6/2 7/7/2
f 3/3/2 8/8/2 5/5/2
f 5/5/2 9/9/2 6/6/2
f 6/6/2 9/9/2 10/10/2
f 10/10/2 9/9/2 11/11/2
f 10/10/2 11/11/2 12/12/2
f 13/13/2 14/14/2 9/9/2
f 9/9/2 14/14/2 11/11/2
f 4/15/3 15/16/3 3/17/3
f 3/17/3 15/16/3 16/18/3
f 3/17/3 16/18/3 8/19/3
f 15/16/3 4/15/3 17/20/3
f 17/20/3 4/15/3 18/21/3
f 17/20/3 18/21/3 19/22/3
f 20/23/4 21/24/4 18/25/4
f 18/25/4 21/24/4 19/26/4
f 17/27/5 19/26/5 22/28/5
f 22/28/5 19/26/5 21/24/5
f 22/28/5 21/24/5 23/29/5
f 23/29/5 21/24/5 24/30/5
f 23/29/5 25/31/5 22/28/5
f 22/28/5 25/31/5 26/32/5
f 26/32/5 25/31/5 27/33/5
f 26/32/5 27/33/5 28/34/5
f 25/31/5 29/35/5 27/33/5
f 28/34/5 30/36/5 26/32/5
f 31/37/1 13/38/1 32/39/1
f 32/40/1 13/41/1 9/42/1
f 33/43/6 32/44/6 5/5/6
f 5/5/6 32/44/6 9/9/6
f 5/45/7 8/46/7 33/47/7
f 33/47/7 8/46/7 16/48/7
f 31/49/3 34/50/3 13/51/3
f 13/51/3 34/50/3 35/52/3
f 13/51/3 35/52/3 14/53/3
f 34/50/3 31/49/3 28/54/3
f 28/54/3 31/49/3 36/55/3
f 28/54/3 36/55/3 30/56/3
f 31/57/8 32/58/8 36/59/8
f 36/59/8 32/58/8 37/60/8
f 15/61/9 17/62/9 38/63/9
f 38/63/9 17/62/9 22/64/9
f 22/28/10 26/32/10 38/65/10
f 38/65/10 26/32/10 37/66/10
f 26/67/4 30/68/4 37/60/4
f 37/60/4 30/68/4 36/59/4
f 33/47/11 16/48/11 38/63/11
f 38/63/11 16/48/11 15/61/11
f 32/69/3 33/70/3 37/71/3
f 37/71/3 33/70/3 38/72/3
f 39/73/7 11/11/7 35/74/7
f 35/74/7 11/11/7 14/14/7
f 39/75/11 35/76/11 40/77/11
f 40/77/11 35/76/11 34/78/11
f 41/79/7 7/80/7 42/81/7
f 42/81/7 7/80/7 6/82/7
f 6/6/12 10/10/12 42/83/12
f 42/83/12 10/10/12 43/84/12
f 10/85/1 12/86/1 43/87/1
f 43/87/1 12/86/1 44/88/1
f 41/79/11 42/81/11 45/89/11
f 45/89/11 42/81/11 46/90/11
f 42/91/13 43/92/13 46/93/13
f 46/93/13 43/92/13 47/94/13
f 43/87/8 44/88/8 47/95/8
f 47/95/8 44/88/8 48/96/8
f 39/97/13 48/98/13 11/99/13
f 11/99/13 48/98/13 44/100/13
f 11/99/13 44/100/13 12/101/13
f 48/98/13 39/97/13 29/102/13
f 29/102/13 39/97/13 40/103/13
f 29/102/13 40/103/13 27/104/13
f 48/96/4 29/105/4 47/95/4
f 47/95/4 29/105/4 25/106/4
f 46/107/14 47/108/14 23/29/14
f 23/29/14 47/108/14 25/31/14
f 23/109/9 24/110/9 46/90/9
f 46/90/9 24/110/9 45/89/9
f 34/111/9 28/34/9 40/112/9
f 40/112/9 28/34/9 27/33/9
f 1/113/13 7/114/13 2/115/13
f 2/115/13 7/114/13 20/116/13
f 20/116/13 7/114/13 41/117/13
f 20/116/13 41/117/13 21/118/13
f 21/118/13 41/117/13 45/119/13
f 21/118/13 45/119/13 24/120/13
f 4/121/8 2/122/8 18/123/8
f 18/123/8 2/122/8 20/124/8
