# Blender v2.80 (sub 75) OBJ File: ''
# www.blender.org
mtllib I.mtl
o I
v 0.200000 -0.550000 0.100000
v -0.200000 -0.550000 0.100000
v 0.200000 -0.600000 0.050000
v -0.200000 -0.600000 0.050000
v 0.200000 -0.400000 -0.050000
v 0.200000 -0.400000 0.050000
v 0.200000 -0.450000 0.100000
v 0.200000 -0.450000 -0.100000
v 0.200000 -0.600000 -0.050000
v 0.200000 -0.550000 -0.100000
v -0.200000 -0.600000 -0.050000
v -0.200000 -0.550000 -0.100000
v -0.200000 0.400000 -0.050000
v -0.200000 0.450000 -0.100000
v -0.100000 0.400000 -0.050000
v -0.050000 0.450000 -0.100000
v -0.050000 -0.450000 -0.100000
v -0.100000 -0.400000 -0.050000
v -0.200000 -0.450000 -0.100000
v -0.200000 -0.400000 -0.050000
v -0.200000 0.400000 0.050000
v -0.100000 0.400000 0.050000
v -0.100000 -0.400000 0.050000
v -0.200000 -0.400000 0.050000
v -0.200000 -0.450000 0.100000
v 0.200000 0.400000 0.050000
v 0.200000 0.450000 0.100000
v 0.100000 0.400000 0.050000
v 0.050000 0.450000 0.100000
v 0.100000 -0.400000 0.050000
v 0.050000 -0.450000 0.100000
v -0.050000 -0.450000 0.100000
v -0.050000 0.450000 0.100000
v -0.200000 0.550000 0.100000
v 0.200000 0.550000 0.100000
v -0.200000 0.450000 0.100000
v 0.200000 0.600000 -0.050000
v 0.200000 0.600000 0.050000
v 0.200000 0.550000 -0.100000
v 0.200000 0.400000 -0.050000
v 0.200000 0.450000 -0.100000
v 0.100000 0.400000 -0.050000
v -0.200000 0.600000 -0.050000
v -0.200000 0.550000 -0.100000
v -0.200000 0.600000 0.050000
v 0.100000 -0.400000 -0.050000
v 0.050000 -0.450000 -0.100000
v 0.050000 0.450000 -0.100000
vt 0.013986 0.846154
vt 0.293706 0.846154
vt 0.013986 0.881119
vt 0.293706 0.881119
vt 0.853147 0.419580
vt 0.993007 0.349650
vt 0.888112 0.454545
vt 0.993007 0.419580
vt 0.958042 0.454545
vt 0.958042 0.314685
vt 0.853147 0.349650
vt 0.888112 0.314685
vt 0.879371 0.629371
vt 0.879371 0.909091
vt 0.809440 0.629371
vt 0.809441 0.909091
vt 0.774475 0.629371
vt 0.774476 0.909091
vt 0.994755 0.727273
vt 0.994755 0.762238
vt 0.924825 0.727273
vt 0.889860 0.762238
vt 0.762238 0.031469
vt 0.762238 0.660839
vt 0.727273 0.066434
vt 0.727273 0.625874
vt 0.533217 0.889860
vt 0.533217 0.994755
vt 0.498252 0.924825
vt 0.498252 0.994755
vt 0.994755 0.657343
vt 0.924825 0.657343
vt 0.657343 0.066434
vt 0.657343 0.625874
vt 0.428322 0.924825
vt 0.428322 0.994755
vt 0.958042 0.608392
vt 0.888112 0.608392
vt 0.993007 0.573427
vt 0.993007 0.503497
vt 0.853147 0.573427
vt 0.958042 0.468531
vt 0.853147 0.503497
vt 0.888112 0.468531
vt 0.889860 0.811189
vt 0.889860 0.776224
vt 0.959790 0.811189
vt 0.994755 0.776224
vt 0.083916 0.741259
vt 0.083916 0.181818
vt 0.118881 0.776224
vt 0.118881 0.146853
vt 0.013986 0.776224
vt 0.013986 0.741259
vt 0.293706 0.776224
vt 0.188811 0.776224
vt 0.188811 0.146853
vt 0.293706 0.076923
vt 0.013986 0.076923
vt 0.013986 0.146853
vt 0.293706 0.146853
vt 0.622378 0.804196
vt 0.762238 0.734266
vt 0.657343 0.839161
vt 0.762238 0.804196
vt 0.727273 0.839161
vt 0.727273 0.699301
vt 0.622378 0.734266
vt 0.657343 0.699301
vt 0.889860 0.881119
vt 0.959790 0.881119
vt 0.321678 0.040210
vt 0.601398 0.040210
vt 0.321678 0.075175
vt 0.601398 0.075175
vt 0.919581 0.013986
vt 0.919581 0.293706
vt 0.849650 0.013986
vt 0.849650 0.293706
vt 0.762238 0.888112
vt 0.622378 0.958042
vt 0.727273 0.853147
vt 0.622378 0.888112
vt 0.657343 0.853147
vt 0.657343 0.993007
vt 0.762238 0.958042
vt 0.727273 0.993007
vt 0.382867 0.889860
vt 0.417832 0.889860
vt 0.382867 0.959790
vt 0.417832 0.994755
vt 0.496503 0.145105
vt 0.531468 0.180070
vt 0.496504 0.774475
vt 0.531468 0.739510
vt 0.994755 0.916084
vt 0.889860 0.916084
vt 0.312937 0.959790
vt 0.312937 0.889860
vt 0.772727 0.587413
vt 0.772727 0.027972
vt 0.842657 0.587413
vt 0.842657 0.027972
vt 0.293706 0.041958
vt 0.013986 0.041958
vt 0.293706 0.741259
vt 0.223776 0.741259
vt 0.622378 0.031469
vt 0.622378 0.660839
vt 0.889860 0.622378
vt 0.994755 0.622378
vt 0.601399 0.774475
vt 0.601399 0.844405
vt 0.321678 0.844405
vt 0.426573 0.774475
vt 0.321678 0.774475
vt 0.426573 0.145105
vt 0.321678 0.145105
vt 0.601398 0.145105
vn 0.0000 -0.7071 0.7071
vn 1.0000 0.0000 0.0000
vn 0.0000 -1.0000 0.0000
vn 0.0000 -0.7071 -0.7071
vn -0.7071 0.0000 -0.7071
vn 0.0000 0.7071 -0.7071
vn -1.0000 -0.0000 0.0000
vn 0.0000 1.0000 0.0000
vn 0.7071 -0.0000 0.7071
vn 0.0000 0.7071 0.7071
vn 0.0000 0.0000 1.0000
vn 0.7071 0.0000 -0.7071
vn -0.7071 -0.0000 0.7071
vn 0.0000 0.0000 -1.0000
usemtl Steel_-_Satin.018
s 1
f 1/1/1 2/2/1 3/3/1
f 3/3/1 2/2/1 4/4/1
f 3/5/2 5/6/2 1/7/2
f 1/7/2 5/6/2 6/8/2
f 1/7/2 6/8/2 7/9/2
f 5/6/2 3/5/2 8/10/2
f 8/10/2 3/5/2 9/11/2
f 8/10/2 9/11/2 10/12/2
f 3/13/3 4/14/3 9/15/3
f 9/15/3 4/14/3 11/16/3
f 9/15/4 11/16/4 10/17/4
f 10/17/4 11/16/4 12/18/4
f 13/19/4 14/20/4 15/21/4
f 15/21/4 14/20/4 16/22/4
f 16/23/5 17/24/5 15/25/5
f 15/25/5 17/24/5 18/26/5
f 17/27/6 19/28/6 18/29/6
f 18/29/6 19/28/6 20/30/6
f 13/19/3 15/21/3 21/31/3
f 21/31/3 15/21/3 22/32/3
f 15/25/7 18/26/7 22/33/7
f 22/33/7 18/26/7 23/34/7
f 18/29/8 20/30/8 23/35/8
f 23/35/8 20/30/8 24/36/8
f 2/37/7 25/38/7 4/39/7
f 4/39/7 25/38/7 11/40/7
f 11/40/7 25/38/7 24/41/7
f 11/40/7 24/41/7 12/42/7
f 12/42/7 24/41/7 20/43/7
f 12/42/7 20/43/7 19/44/7
f 26/45/1 27/46/1 28/47/1
f 28/47/1 27/46/1 29/48/1
f 30/49/9 28/50/9 31/51/9
f 31/51/9 28/50/9 29/52/9
f 31/51/10 7/53/10 30/49/10
f 30/49/10 7/53/10 6/54/10
f 25/55/11 2/2/11 32/56/11
f 32/56/11 2/2/11 1/1/11
f 32/56/11 1/1/11 31/51/11
f 31/51/11 1/1/11 7/53/11
f 32/56/11 31/51/11 33/57/11
f 33/57/11 31/51/11 29/52/11
f 33/57/11 29/52/11 34/58/11
f 34/58/11 29/52/11 35/59/11
f 35/59/11 29/52/11 27/60/11
f 34/58/11 36/61/11 33/57/11
f 26/62/2 37/63/2 27/64/2
f 27/64/2 37/63/2 38/65/2
f 27/64/2 38/65/2 35/66/2
f 37/63/2 26/62/2 39/67/2
f 39/67/2 26/62/2 40/68/2
f 39/67/2 40/68/2 41/69/2
f 26/45/3 28/47/3 40/70/3
f 40/70/3 28/47/3 42/71/3
f 43/72/6 37/73/6 44/74/6
f 44/74/6 37/73/6 39/75/6
f 37/76/8 43/77/8 38/78/8
f 38/78/8 43/77/8 45/79/8
f 13/80/7 45/81/7 14/82/7
f 14/82/7 45/81/7 43/83/7
f 14/82/7 43/83/7 44/84/7
f 45/81/7 13/80/7 34/85/7
f 34/85/7 13/80/7 21/86/7
f 34/85/7 21/86/7 36/87/7
f 5/88/6 8/89/6 46/90/6
f 46/90/6 8/89/6 47/91/6
f 48/92/12 42/93/12 47/94/12
f 47/94/12 42/93/12 46/95/12
f 48/96/4 41/97/4 42/71/4
f 42/71/4 41/97/4 40/70/4
f 30/98/8 6/99/8 46/90/8
f 46/90/8 6/99/8 5/88/8
f 28/100/2 30/101/2 42/102/2
f 42/102/2 30/101/2 46/103/2
f 34/58/10 35/59/10 45/104/10
f 45/104/10 35/59/10 38/105/10
f 24/106/10 25/55/10 23/107/10
f 23/107/10 25/55/10 32/56/10
f 33/108/13 22/33/13 32/109/13
f 32/109/13 22/33/13 23/34/13
f 33/110/1 36/111/1 22/32/1
f 22/32/1 36/111/1 21/31/1
f 8/112/14 10/113/14 47/94/14
f 47/94/14 10/113/14 12/114/14
f 47/94/14 12/114/14 17/115/14
f 17/115/14 12/114/14 19/116/14
f 47/94/14 17/115/14 48/92/14
f 48/92/14 17/115/14 16/117/14
f 48/92/14 16/117/14 39/75/14
f 39/75/14 16/117/14 44/74/14
f 44/74/14 16/117/14 14/118/14
f 39/75/14 41/119/14 48/92/14
