# Blender v2.80 (sub 75) OBJ File: ''
# www.blender.org
mtllib K.mtl
o K
v -0.400000 0.400000 -0.050000
v -0.400000 0.450000 -0.100000
v -0.300000 0.400000 -0.050000
v -0.250000 0.450000 -0.100000
v -0.300000 -0.400000 -0.050000
v -0.250000 -0.450000 -0.100000
v -0.400000 -0.450000 -0.100000
v -0.400000 -0.400000 -0.050000
v -0.400000 0.400000 0.050000
v -0.300000 0.400000 0.050000
v -0.300000 -0.400000 0.050000
v -0.400000 -0.400000 0.050000
v -0.400000 -0.550000 -0.100000
v -0.400000 -0.600000 -0.050000
v -0.400000 -0.450000 0.100000
v -0.400000 -0.600000 0.050000
v -0.400000 -0.550000 0.100000
v -0.100000 -0.600000 -0.050000
v -0.150000 -0.550000 -0.100000
v -0.150000 -0.185660 -0.100000
v -0.100000 -0.200000 -0.050000
v -0.037525 -0.005701 -0.100000
v -0.047000 -0.115200 -0.050000
v 0.203970 -0.600000 -0.100000
v 0.150000 -0.600000 -0.050000
v -0.100000 -0.600000 0.050000
v -0.100000 -0.200000 0.050000
v -0.047000 -0.115200 0.050000
v 0.150000 -0.600000 0.050000
v 0.203970 -0.600000 0.100000
v 0.346030 -0.600000 -0.100000
v 0.346030 -0.600000 0.100000
v 0.400000 -0.600000 -0.050000
v 0.400000 -0.600000 0.050000
v -0.037525 -0.005701 0.100000
v -0.150000 -0.185660 0.100000
v -0.150000 -0.550000 0.100000
v -0.250000 -0.450000 0.100000
v -0.150000 0.025660 0.100000
v 0.048563 0.132040 0.100000
v 0.341038 0.600000 0.100000
v 0.208962 0.600000 0.100000
v -0.250000 0.450000 0.100000
v -0.150000 0.550000 0.100000
v -0.400000 0.550000 0.100000
v -0.400000 0.450000 0.100000
v 0.400000 0.600000 0.050000
v 0.104500 0.127200 0.050000
v 0.341038 0.600000 -0.100000
v 0.208962 0.600000 -0.100000
v 0.150000 0.600000 -0.050000
v 0.150000 0.600000 0.050000
v 0.400000 0.600000 -0.050000
v 0.104500 0.127200 -0.050000
v 0.048563 0.132040 -0.100000
v -0.100000 0.200000 -0.050000
v -0.150000 0.025660 -0.100000
v -0.150000 0.550000 -0.100000
v -0.100000 0.600000 -0.050000
v -0.400000 0.550000 -0.100000
v -0.400000 0.600000 -0.050000
v -0.100000 0.200000 0.050000
v -0.100000 0.600000 0.050000
v -0.400000 0.600000 0.050000
vt 0.885067 0.797383
vt 0.885067 0.824322
vt 0.834562 0.797383
vt 0.809310 0.824322
vt 0.818182 0.140081
vt 0.818182 0.571099
vt 0.792929 0.113142
vt 0.792929 0.598037
vt 0.551768 0.833750
vt 0.551768 0.914566
vt 0.526515 0.860689
vt 0.526515 0.914566
vt 0.885067 0.743506
vt 0.834562 0.743506
vt 0.946970 0.452499
vt 0.946970 0.021548
vt 0.997475 0.452499
vt 0.997475 0.021548
vt 0.476010 0.860689
vt 0.476010 0.914566
vt 0.613615 0.716567
vt 0.664112 0.716567
vt 0.588366 0.743506
vt 0.588366 0.797383
vt 0.689361 0.743506
vt 0.613615 0.824322
vt 0.689361 0.797383
vt 0.664112 0.824322
vt 0.362374 0.719261
vt 0.362374 0.880893
vt 0.337121 0.746200
vt 0.337121 0.880893
vt 0.742424 0.255561
vt 0.717172 0.247835
vt 0.742424 0.059265
vt 0.717171 0.032326
vt 0.685619 0.352518
vt 0.690404 0.293523
vt 0.563651 0.032326
vt 0.590909 0.032326
vt 0.412879 0.880893
vt 0.412879 0.719261
vt 0.224747 0.986872
vt 0.224747 0.773681
vt 0.275252 0.986872
vt 0.275253 0.773681
vt 0.224747 0.724308
vt 0.275253 0.724308
vt 0.330808 0.724144
vt 0.330808 0.983444
vt 0.280303 0.724144
vt 0.280303 0.983444
vt 0.191919 0.717914
vt 0.217172 0.746992
vt 0.141414 0.717914
vt 0.116162 0.746992
vt 0.217172 0.823530
vt 0.116162 0.823530
vt 0.191919 0.852607
vt 0.141414 0.852607
vt 0.297980 0.032326
vt 0.325237 0.032326
vt 0.198485 0.293523
vt 0.203270 0.352518
vt 0.146465 0.255561
vt 0.171717 0.247835
vt 0.171717 0.032326
vt 0.146465 0.059265
vt 0.020202 0.059265
vt 0.020202 0.032326
vt 0.020202 0.113142
vt 0.095960 0.113142
vt 0.146465 0.369415
vt 0.246749 0.426729
vt 0.396985 0.032326
vt 0.394464 0.678853
vt 0.327758 0.678853
vt 0.095960 0.598037
vt 0.146465 0.651914
vt 0.020202 0.651914
vt 0.020202 0.598037
vt 0.424242 0.678853
vt 0.275000 0.424122
vt 0.424242 0.032326
vt 0.030303 0.717914
vt 0.106061 0.749681
vt 0.005051 0.749681
vt 0.106061 0.820840
vt 0.005051 0.820840
vt 0.080808 0.852607
vt 0.030303 0.852607
vt 0.080808 0.717914
vt 0.891414 0.671550
vt 0.891414 0.396270
vt 0.941919 0.671550
vt 0.941919 0.396270
vt 0.464646 0.032326
vt 0.491904 0.032326
vt 0.613889 0.424121
vt 0.642140 0.426729
vt 0.494425 0.678853
vt 0.464646 0.678853
vt 0.891414 0.031979
vt 0.941919 0.031979
vt 0.590909 0.678853
vt 0.561130 0.678853
vt 0.717172 0.463344
vt 0.742424 0.369415
vt 0.742424 0.651914
vt 0.717172 0.678853
vt 0.868687 0.651914
vt 0.868687 0.678853
vt 0.469697 0.722071
vt 0.469697 0.939904
vt 0.419192 0.722071
vt 0.419192 0.939904
vt 0.747441 0.721839
vt 0.747441 0.935030
vt 0.696936 0.721839
vt 0.696936 0.935030
vt 0.752491 0.880893
vt 0.752491 0.719261
vt 0.802996 0.880893
vt 0.802996 0.719261
vt 0.578267 0.743506
vt 0.477272 0.797383
vt 0.553018 0.716567
vt 0.477272 0.743506
vt 0.502521 0.716567
vt 0.502521 0.824322
vt 0.578267 0.797383
vt 0.553018 0.824322
vt 0.171717 0.678853
vt 0.020202 0.678853
vt 0.171717 0.463344
vt 0.297980 0.678853
vt 0.020202 0.140081
vt 0.070707 0.140081
vt 0.070707 0.571099
vt 0.809310 0.716567
vt 0.885067 0.716567
vt 0.868687 0.598037
vt 0.868687 0.059265
vt 0.868687 0.113142
vn 0.0000 -0.7071 -0.7071
vn -0.7071 0.0000 -0.7071
vn 0.0000 0.7071 -0.7071
vn 0.0000 -1.0000 0.0000
vn -1.0000 -0.0000 0.0000
vn 0.0000 1.0000 0.0000
vn 0.7071 0.0000 -0.7071
vn 0.5996 -0.3748 -0.7071
vn -0.6551 -0.2662 -0.7071
vn 1.0000 -0.0000 0.0000
vn 0.8480 -0.5300 0.0000
vn -0.9264 -0.3765 0.0000
vn -0.6551 -0.2662 0.7071
vn 0.5996 -0.3748 0.7071
vn 0.7071 -0.0000 0.7071
vn 0.0000 -0.7071 0.7071
vn 0.0000 0.0000 1.0000
vn 0.6551 0.2662 0.7071
vn 0.6551 0.2662 -0.7071
vn 0.9264 0.3765 0.0000
vn -0.5996 0.3748 -0.7071
vn -0.8480 0.5300 0.0000
vn 0.0000 0.7071 0.7071
vn -0.5996 0.3748 0.7071
vn -0.7071 -0.0000 0.7071
vn 0.0000 0.0000 -1.0000
usemtl Steel_-_Satin.021
s 1
f 1/1/1 2/2/1 3/3/1
f 3/3/1 2/2/1 4/4/1
f 5/5/2 3/6/2 6/7/2
f 6/7/2 3/6/2 4/8/2
f 6/9/3 7/10/3 5/11/3
f 5/11/3 7/10/3 8/12/3
f 1/1/4 3/3/4 9/13/4
f 9/13/4 3/3/4 10/14/4
f 3/15/5 5/16/5 10/17/5
f 10/17/5 5/16/5 11/18/5
f 5/11/6 8/12/6 11/19/6
f 11/19/6 8/12/6 12/20/6
f 7/21/5 13/22/5 8/23/5
f 8/23/5 13/22/5 12/24/5
f 12/24/5 13/22/5 14/25/5
f 12/24/5 14/25/5 15/26/5
f 15/26/5 14/25/5 16/27/5
f 15/26/5 16/27/5 17/28/5
f 18/29/1 14/30/1 19/31/1
f 19/31/1 14/30/1 13/32/1
f 20/33/7 21/34/7 19/35/7
f 19/35/7 21/34/7 18/36/7
f 22/37/8 23/38/8 20/33/8
f 20/33/8 23/38/8 21/34/8
f 22/37/9 24/39/9 23/38/9
f 23/38/9 24/39/9 25/40/9
f 14/30/4 18/29/4 16/41/4
f 16/41/4 18/29/4 26/42/4
f 18/43/10 21/44/10 26/45/10
f 26/45/10 21/44/10 27/46/10
f 21/44/11 23/47/11 27/46/11
f 27/46/11 23/47/11 28/48/11
f 23/49/12 25/50/12 28/51/12
f 28/51/12 25/50/12 29/52/12
f 25/53/4 24/54/4 29/55/4
f 29/55/4 24/54/4 30/56/4
f 30/56/4 24/54/4 31/57/4
f 30/56/4 31/57/4 32/58/4
f 32/58/4 31/57/4 33/59/4
f 32/58/4 33/59/4 34/60/4
f 29/61/13 30/62/13 28/63/13
f 28/63/13 30/62/13 35/64/13
f 35/64/14 36/65/14 28/63/14
f 28/63/14 36/65/14 27/66/14
f 26/67/15 27/66/15 37/68/15
f 37/68/15 27/66/15 36/65/15
f 17/69/16 16/70/16 37/68/16
f 37/68/16 16/70/16 26/67/16
f 15/71/17 17/69/17 38/72/17
f 38/72/17 17/69/17 37/68/17
f 38/72/17 37/68/17 36/65/17
f 38/72/17 36/65/17 39/73/17
f 39/73/17 36/65/17 35/64/17
f 39/73/17 35/64/17 40/74/17
f 40/74/17 35/64/17 32/75/17
f 32/75/17 35/64/17 30/62/17
f 41/76/17 42/77/17 40/74/17
f 40/74/17 42/77/17 39/73/17
f 38/72/17 39/73/17 43/78/17
f 43/78/17 39/73/17 44/79/17
f 43/78/17 44/79/17 45/80/17
f 45/80/17 46/81/17 43/78/17
f 47/82/14 41/76/14 48/83/14
f 48/83/14 41/76/14 40/74/14
f 40/74/18 32/75/18 48/83/18
f 48/83/18 32/75/18 34/84/18
f 47/85/6 49/86/6 41/87/6
f 41/87/6 49/86/6 50/88/6
f 41/87/6 50/88/6 42/89/6
f 42/89/6 50/88/6 51/90/6
f 42/89/6 51/90/6 52/91/6
f 47/85/6 53/92/6 49/86/6
f 47/93/11 48/94/11 53/95/11
f 53/95/11 48/94/11 54/96/11
f 33/97/19 31/98/19 54/99/19
f 54/99/19 31/98/19 55/100/19
f 55/100/8 49/101/8 54/99/8
f 54/99/8 49/101/8 53/102/8
f 48/94/20 34/103/20 54/96/20
f 54/96/20 34/103/20 33/104/20
f 51/105/21 50/106/21 56/107/21
f 56/107/21 50/106/21 57/108/21
f 57/108/7 58/109/7 56/107/7
f 56/107/7 58/109/7 59/110/7
f 60/111/3 61/112/3 58/109/3
f 58/109/3 61/112/3 59/110/3
f 51/113/22 56/114/22 52/115/22
f 52/115/22 56/114/22 62/116/22
f 56/117/10 59/118/10 62/119/10
f 62/119/10 59/118/10 63/120/10
f 59/121/6 61/122/6 63/123/6
f 63/123/6 61/122/6 64/124/6
f 1/125/5 64/126/5 2/127/5
f 2/127/5 64/126/5 61/128/5
f 2/127/5 61/128/5 60/129/5
f 64/126/5 1/125/5 45/130/5
f 45/130/5 1/125/5 9/131/5
f 45/130/5 9/131/5 46/132/5
f 63/133/23 64/134/23 44/79/23
f 44/79/23 64/134/23 45/80/23
f 63/133/15 44/79/15 62/135/15
f 62/135/15 44/79/15 39/73/15
f 39/73/24 42/77/24 62/135/24
f 62/135/24 42/77/24 52/136/24
f 12/137/23 15/71/23 11/138/23
f 11/138/23 15/71/23 38/72/23
f 43/78/25 10/139/25 38/72/25
f 38/72/25 10/139/25 11/138/25
f 43/140/16 46/141/16 10/14/16
f 10/14/16 46/141/16 9/13/16
f 2/142/26 60/111/26 4/8/26
f 4/8/26 60/111/26 58/109/26
f 4/8/26 58/109/26 57/108/26
f 50/106/26 55/100/26 57/108/26
f 57/108/26 55/100/26 22/37/26
f 57/108/26 22/37/26 20/33/26
f 50/106/26 49/101/26 55/100/26
f 55/100/26 31/98/26 22/37/26
f 22/37/26 31/98/26 24/39/26
f 57/108/26 20/33/26 6/7/26
f 6/7/26 20/33/26 19/35/26
f 6/7/26 19/35/26 13/143/26
f 13/143/26 7/144/26 6/7/26
f 6/7/26 4/8/26 57/108/26
