# Blender v2.80 (sub 75) OBJ File: ''
# www.blender.org
mtllib U.mtl
o U
v -0.350000 0.600000 0.100000
v -0.400000 0.600000 0.050000
v -0.350000 -0.300000 0.100000
v -0.400000 -0.300000 0.050000
v -0.100000 -0.600000 0.050000
v -0.100000 -0.550000 0.100000
v -0.158527 -0.594236 0.050000
v -0.148773 -0.545196 0.100000
v -0.214805 -0.577164 0.050000
v -0.195671 -0.530970 0.100000
v -0.266671 -0.549441 0.050000
v -0.238893 -0.507867 0.100000
v -0.312132 -0.512132 0.050000
v -0.276777 -0.476777 0.100000
v -0.349441 -0.466671 0.050000
v -0.307867 -0.438893 0.100000
v -0.377164 -0.414805 0.050000
v -0.330970 -0.395671 0.100000
v -0.394236 -0.358527 0.050000
v -0.345196 -0.348773 0.100000
v 0.100000 -0.550000 0.100000
v 0.100000 -0.600000 0.050000
v 0.400000 -0.300000 0.050000
v 0.350000 -0.300000 0.100000
v 0.394236 -0.358527 0.050000
v 0.345196 -0.348773 0.100000
v 0.377164 -0.414805 0.050000
v 0.330970 -0.395671 0.100000
v 0.349441 -0.466671 0.050000
v 0.307867 -0.438893 0.100000
v 0.312132 -0.512132 0.050000
v 0.276777 -0.476777 0.100000
v 0.266671 -0.549441 0.050000
v 0.238893 -0.507867 0.100000
v 0.214805 -0.577164 0.050000
v 0.195671 -0.530970 0.100000
v 0.158527 -0.594236 0.050000
v 0.148773 -0.545196 0.100000
v 0.400000 0.600000 0.050000
v 0.350000 0.600000 0.100000
v 0.400000 -0.300000 -0.050000
v 0.394236 -0.358527 -0.050000
v 0.377164 -0.414805 -0.050000
v 0.349441 -0.466671 -0.050000
v 0.312132 -0.512132 -0.050000
v 0.266671 -0.549441 -0.050000
v 0.214805 -0.577164 -0.050000
v 0.158527 -0.594236 -0.050000
v 0.100000 -0.600000 -0.050000
v -0.100000 -0.600000 -0.050000
v -0.158527 -0.594236 -0.050000
v -0.214805 -0.577164 -0.050000
v -0.266671 -0.549441 -0.050000
v -0.312132 -0.512132 -0.050000
v -0.349441 -0.466671 -0.050000
v -0.377164 -0.414805 -0.050000
v -0.394236 -0.358527 -0.050000
v -0.400000 -0.300000 -0.050000
v -0.400000 0.600000 -0.050000
v -0.250000 0.600000 0.100000
v -0.200000 0.600000 0.050000
v -0.350000 0.600000 -0.100000
v -0.200000 0.600000 -0.050000
v -0.250000 0.600000 -0.100000
v 0.250000 0.600000 0.100000
v 0.200000 0.600000 0.050000
v 0.250000 -0.300000 0.100000
v 0.200000 -0.300000 0.050000
v 0.100000 -0.400000 0.050000
v 0.100000 -0.450000 0.100000
v 0.125882 -0.396593 0.050000
v 0.138823 -0.444889 0.100000
v 0.150000 -0.386603 0.050000
v 0.175000 -0.429904 0.100000
v 0.170711 -0.370711 0.050000
v 0.206066 -0.406066 0.100000
v 0.186603 -0.350000 0.050000
v 0.229904 -0.375000 0.100000
v 0.196593 -0.325882 0.050000
v 0.244889 -0.338823 0.100000
v -0.100000 -0.450000 0.100000
v -0.100000 -0.400000 0.050000
v -0.200000 -0.300000 0.050000
v -0.250000 -0.300000 0.100000
v -0.196593 -0.325882 0.050000
v -0.244889 -0.338823 0.100000
v -0.186603 -0.350000 0.050000
v -0.229904 -0.375000 0.100000
v -0.170711 -0.370711 0.050000
v -0.206066 -0.406066 0.100000
v -0.150000 -0.386603 0.050000
v -0.175000 -0.429904 0.100000
v -0.125882 -0.396593 0.050000
v -0.138823 -0.444889 0.100000
v 0.350000 0.600000 -0.100000
v 0.400000 0.600000 -0.050000
v 0.350000 -0.300000 -0.100000
v 0.345196 -0.348773 -0.100000
v 0.330970 -0.395671 -0.100000
v 0.307867 -0.438893 -0.100000
v 0.276777 -0.476777 -0.100000
v 0.238893 -0.507867 -0.100000
v 0.195671 -0.530970 -0.100000
v 0.148773 -0.545196 -0.100000
v 0.100000 -0.550000 -0.100000
v -0.100000 -0.550000 -0.100000
v -0.148773 -0.545196 -0.100000
v -0.195671 -0.530970 -0.100000
v -0.238893 -0.507867 -0.100000
v -0.276777 -0.476777 -0.100000
v -0.307867 -0.438893 -0.100000
v -0.330970 -0.395671 -0.100000
v -0.345196 -0.348773 -0.100000
v -0.350000 -0.300000 -0.100000
v 0.250000 0.600000 -0.100000
v 0.250000 -0.300000 -0.100000
v 0.244889 -0.338823 -0.100000
v 0.229904 -0.375000 -0.100000
v 0.206066 -0.406066 -0.100000
v 0.175000 -0.429904 -0.100000
v 0.138823 -0.444889 -0.100000
v 0.100000 -0.450000 -0.100000
v -0.100000 -0.450000 -0.100000
v -0.138823 -0.444889 -0.100000
v -0.175000 -0.429904 -0.100000
v -0.206066 -0.406066 -0.100000
v -0.229904 -0.375000 -0.100000
v -0.244889 -0.338823 -0.100000
v -0.250000 -0.300000 -0.100000
v -0.200000 -0.300000 -0.050000
v -0.100000 -0.400000 -0.050000
v -0.125882 -0.396593 -0.050000
v -0.150000 -0.386603 -0.050000
v -0.170711 -0.370711 -0.050000
v -0.186603 -0.350000 -0.050000
v -0.196593 -0.325882 -0.050000
v 0.100000 -0.400000 -0.050000
v 0.200000 -0.300000 -0.050000
v 0.196593 -0.325882 -0.050000
v 0.186603 -0.350000 -0.050000
v 0.170711 -0.370711 -0.050000
v 0.150000 -0.386603 -0.050000
v 0.125882 -0.396593 -0.050000
v 0.200000 0.600000 -0.050000
vt 0.440909 0.550177
vt 0.418182 0.550177
vt 0.440909 0.157194
vt 0.418182 0.157194
vt 0.554545 0.026199
vt 0.554545 0.048031
vt 0.527942 0.028716
vt 0.532376 0.050129
vt 0.502361 0.036170
vt 0.511059 0.056341
vt 0.478786 0.048275
vt 0.491412 0.066429
vt 0.458122 0.064566
vt 0.474192 0.080004
vt 0.441163 0.084417
vt 0.460060 0.096546
vt 0.428562 0.107064
vt 0.449559 0.115419
vt 0.420802 0.131638
vt 0.443093 0.135897
vt 0.645455 0.048031
vt 0.645455 0.026199
vt 0.872727 0.416814
vt 0.895454 0.417933
vt 0.872727 0.442465
vt 0.895454 0.439310
vt 0.779198 0.131638
vt 0.756907 0.135897
vt 0.771438 0.107064
vt 0.750441 0.115419
vt 0.758837 0.084417
vt 0.739940 0.096546
vt 0.741878 0.064566
vt 0.725808 0.080004
vt 0.721214 0.048275
vt 0.708588 0.066429
vt 0.697639 0.036170
vt 0.688941 0.056341
vt 0.672058 0.028716
vt 0.667624 0.050129
vt 0.827273 0.751141
vt 0.804545 0.748634
vt 0.827273 0.725465
vt 0.804545 0.727238
vt 0.781818 0.550177
vt 0.759091 0.550177
vt 0.781818 0.157194
vt 0.759091 0.157194
vt 0.827273 0.416814
vt 0.827273 0.442465
vt 0.827273 0.467389
vt 0.872727 0.467389
vt 0.827273 0.490627
vt 0.872727 0.490627
vt 0.827273 0.511286
vt 0.872727 0.511287
vt 0.872727 0.820902
vt 0.827273 0.820902
vt 0.872727 0.799794
vt 0.827273 0.799794
vt 0.872727 0.776239
vt 0.827273 0.776239
vt 0.872727 0.751141
vt 0.872727 0.725465
vt 0.827273 0.638424
vt 0.872727 0.638424
vt 0.872727 0.613157
vt 0.827273 0.613157
vt 0.872727 0.589269
vt 0.827273 0.589269
vt 0.872727 0.567680
vt 0.827273 0.567680
vt 0.872727 0.549218
vt 0.827273 0.549218
vt 0.947727 0.976075
vt 0.902273 0.976075
vt 0.947727 0.958128
vt 0.902273 0.958128
vt 0.947727 0.936942
vt 0.902273 0.936942
vt 0.947727 0.913332
vt 0.902273 0.913332
vt 0.947727 0.888206
vt 0.902273 0.888206
vt 0.902273 0.497584
vt 0.947727 0.497584
vt 0.126939 0.580743
vt 0.171838 0.580743
vt 0.104490 0.602575
vt 0.104490 0.646240
vt 0.194287 0.602575
vt 0.126939 0.668073
vt 0.194287 0.646240
vt 0.171838 0.668073
vt 0.713636 0.550177
vt 0.690909 0.550177
vt 0.713636 0.157194
vt 0.690909 0.157194
vt 0.645455 0.113529
vt 0.645455 0.091696
vt 0.657219 0.115016
vt 0.663101 0.093928
vt 0.668182 0.119378
vt 0.679545 0.100471
vt 0.677596 0.126318
vt 0.693666 0.110880
vt 0.684819 0.135361
vt 0.704502 0.124445
vt 0.689360 0.145892
vt 0.711313 0.140242
vt 0.972727 0.050112
vt 0.995454 0.046804
vt 0.972727 0.061508
vt 0.995454 0.063898
vt 0.554545 0.091696
vt 0.554545 0.113529
vt 0.509091 0.157194
vt 0.486364 0.157194
vt 0.510640 0.145892
vt 0.488687 0.140242
vt 0.515180 0.135361
vt 0.495498 0.124445
vt 0.522404 0.126318
vt 0.506334 0.110880
vt 0.531818 0.119378
vt 0.520455 0.100471
vt 0.542781 0.115016
vt 0.536899 0.093928
vt 0.027273 0.701658
vt 0.004545 0.703952
vt 0.027273 0.690262
vt 0.004545 0.686859
vt 0.509091 0.550177
vt 0.486364 0.550177
vt 0.359091 0.026199
vt 0.381818 0.026199
vt 0.359091 0.419183
vt 0.381818 0.419183
vt 0.804545 0.417933
vt 0.804545 0.439310
vt 0.356907 0.440479
vt 0.379198 0.444739
vt 0.350441 0.460957
vt 0.371438 0.469312
vt 0.339940 0.479830
vt 0.358837 0.491960
vt 0.325808 0.496372
vt 0.341878 0.511810
vt 0.308588 0.509948
vt 0.321214 0.528101
vt 0.288941 0.520036
vt 0.297639 0.540206
vt 0.267624 0.526247
vt 0.272058 0.547661
vt 0.895454 0.748634
vt 0.895454 0.727238
vt 0.154546 0.528345
vt 0.245455 0.528345
vt 0.154546 0.550178
vt 0.245455 0.550177
vt 0.132376 0.526247
vt 0.127942 0.547661
vt 0.111059 0.520036
vt 0.102361 0.540206
vt 0.091412 0.509948
vt 0.078786 0.528101
vt 0.074192 0.496372
vt 0.058122 0.511810
vt 0.060061 0.479830
vt 0.041163 0.491960
vt 0.049559 0.460958
vt 0.028562 0.469312
vt 0.043093 0.440480
vt 0.020802 0.444739
vt 0.040909 0.419183
vt 0.018182 0.419183
vt 0.018182 0.026199
vt 0.040909 0.026199
vt 0.313636 0.026199
vt 0.313636 0.419183
vt 0.311313 0.436135
vt 0.304502 0.451932
vt 0.293666 0.465496
vt 0.279545 0.475905
vt 0.263101 0.482448
vt 0.245455 0.484680
vt 0.154546 0.484680
vt 0.136899 0.482448
vt 0.120455 0.475905
vt 0.106334 0.465496
vt 0.095498 0.451932
vt 0.088687 0.436135
vt 0.086364 0.419183
vt 0.086364 0.026199
vt 0.109091 0.026199
vt 0.109091 0.419183
vt 0.072727 0.690262
vt 0.095454 0.686859
vt 0.072727 0.701658
vt 0.095454 0.703952
vt 0.142781 0.461360
vt 0.131818 0.456998
vt 0.122404 0.450059
vt 0.115181 0.441015
vt 0.110640 0.430484
vt 0.245455 0.462848
vt 0.154546 0.462848
vt 0.927273 0.061508
vt 0.904545 0.063898
vt 0.927273 0.050112
vt 0.904545 0.046804
vt 0.289360 0.430484
vt 0.284820 0.441015
vt 0.277596 0.450059
vt 0.268182 0.456998
vt 0.257219 0.461360
vt 0.290909 0.026199
vt 0.290909 0.419183
vt 0.972727 0.452130
vt 0.927272 0.452130
vt 0.072727 0.604000
vt 0.027273 0.604000
vt 0.072727 0.593069
vt 0.027273 0.593069
vt 0.072727 0.583347
vt 0.027273 0.583347
vt 0.927273 0.021530
vt 0.972727 0.021530
vt 0.927273 0.029418
vt 0.972727 0.029418
vt 0.927273 0.039166
vt 0.972727 0.039166
vt 0.997727 0.524971
vt 0.952273 0.524971
vt 0.997727 0.513761
vt 0.952273 0.513761
vt 0.997727 0.503468
vt 0.952273 0.503468
vt 0.997727 0.494792
vt 0.952273 0.494792
vt 0.072727 0.722755
vt 0.027273 0.722755
vt 0.072727 0.712740
vt 0.027273 0.712740
vt 0.952273 0.917439
vt 0.997727 0.917438
vt 0.203267 0.646240
vt 0.293065 0.602575
vt 0.225717 0.668073
vt 0.293065 0.646240
vt 0.270615 0.668073
vt 0.270615 0.580743
vt 0.203267 0.602575
vt 0.225717 0.580743
vt 0.872727 0.024347
vt 0.827273 0.024347
vn -0.7071 -0.0000 0.7071
vn 0.0000 -0.7071 0.7071
vn -0.1379 -0.6935 0.7071
vn -0.1380 -0.6935 0.7071
vn -0.2706 -0.6533 0.7071
vn -0.3928 -0.5879 0.7071
vn -0.5000 -0.5000 0.7071
vn -0.5879 -0.3928 0.7071
vn -0.6533 -0.2706 0.7071
vn -0.6935 -0.1379 0.7071
vn 0.7071 -0.0000 0.7071
vn 0.6935 -0.1379 0.7071
vn 0.6935 -0.1380 0.7071
vn 0.6533 -0.2706 0.7071
vn 0.5879 -0.3928 0.7071
vn 0.5000 -0.5000 0.7071
vn 0.3928 -0.5879 0.7071
vn 0.2706 -0.6533 0.7071
vn 0.1379 -0.6935 0.7071
vn 1.0000 -0.0000 0.0000
vn 0.9808 -0.1951 0.0000
vn 0.9239 -0.3827 0.0000
vn 0.8315 -0.5556 0.0000
vn 0.7071 -0.7071 0.0000
vn 0.5556 -0.8315 0.0000
vn 0.3827 -0.9239 0.0000
vn 0.1951 -0.9808 0.0000
vn -0.0000 -1.0000 0.0000
vn -0.1951 -0.9808 0.0000
vn -0.3827 -0.9239 0.0000
vn -0.5556 -0.8315 0.0000
vn -0.7071 -0.7071 0.0000
vn -0.8315 -0.5556 0.0000
vn -0.9239 -0.3827 0.0000
vn -0.9808 -0.1951 0.0000
vn -1.0000 0.0000 -0.0000
vn 0.0000 1.0000 0.0000
vn 0.0000 0.7071 0.7071
vn -0.1830 0.6830 0.7071
vn -0.3536 0.6124 0.7071
vn -0.5000 0.5000 0.7071
vn -0.6124 0.3536 0.7071
vn -0.6830 0.1830 0.7071
vn 0.6830 0.1830 0.7071
vn 0.6124 0.3536 0.7071
vn 0.5000 0.5000 0.7071
vn 0.3536 0.6124 0.7071
vn 0.1830 0.6830 0.7071
vn 0.0000 -0.0000 1.0000
vn 0.7071 0.0000 -0.7071
vn 0.6935 -0.1379 -0.7071
vn 0.6533 -0.2706 -0.7071
vn 0.5879 -0.3928 -0.7071
vn 0.5000 -0.5000 -0.7071
vn 0.3928 -0.5879 -0.7071
vn 0.2706 -0.6533 -0.7071
vn 0.1380 -0.6935 -0.7071
vn 0.1379 -0.6935 -0.7071
vn 0.0000 -0.7071 -0.7071
vn -0.1379 -0.6935 -0.7071
vn -0.2706 -0.6533 -0.7071
vn -0.3928 -0.5879 -0.7071
vn -0.5000 -0.5000 -0.7071
vn -0.5879 -0.3928 -0.7071
vn -0.6533 -0.2706 -0.7071
vn -0.6935 -0.1380 -0.7071
vn -0.6935 -0.1379 -0.7071
vn -0.7071 -0.0000 -0.7071
vn 0.0000 0.0000 -1.0000
vn -0.0000 0.7071 -0.7071
vn 0.1830 0.6830 -0.7071
vn 0.3536 0.6124 -0.7071
vn 0.5000 0.5000 -0.7071
vn 0.6124 0.3536 -0.7071
vn 0.6830 0.1830 -0.7071
vn -0.6830 0.1830 -0.7071
vn -0.6124 0.3536 -0.7071
vn -0.5000 0.5000 -0.7071
vn -0.3536 0.6124 -0.7071
vn -0.1830 0.6830 -0.7071
vn -0.2588 0.9659 0.0000
vn -0.5000 0.8660 0.0000
vn -0.7071 0.7071 0.0000
vn -0.8660 0.5000 0.0000
vn -0.9659 0.2588 0.0000
vn 0.9659 0.2588 0.0000
vn 0.8660 0.5000 0.0000
vn 0.7071 0.7071 0.0000
vn 0.5000 0.8660 0.0000
vn 0.2588 0.9659 0.0000
usemtl Steel_-_Satin.031
s 1
f 1/1/1 2/2/1 3/3/1
f 3/3/1 2/2/1 4/4/1
f 5/5/2 6/6/2 7/7/3
f 7/7/3 6/6/2 8/8/4
f 7/7/3 8/8/4 9/9/5
f 9/9/5 8/8/4 10/10/5
f 9/9/5 10/10/5 11/11/6
f 11/11/6 10/10/5 12/12/6
f 11/11/6 12/12/6 13/13/7
f 13/13/7 12/12/6 14/14/7
f 13/13/7 14/14/7 15/15/8
f 15/15/8 14/14/7 16/16/8
f 15/15/8 16/16/8 17/17/9
f 17/17/9 16/16/8 18/18/9
f 17/17/9 18/18/9 19/19/10
f 19/19/10 18/18/9 20/20/10
f 19/19/10 20/20/10 4/4/1
f 4/4/1 20/20/10 3/3/1
f 21/21/2 6/6/2 22/22/2
f 22/22/2 6/6/2 5/5/2
f 23/23/11 24/24/11 25/25/12
f 25/25/12 24/24/11 26/26/13
f 25/27/12 26/28/13 27/29/14
f 27/29/14 26/28/13 28/30/14
f 27/29/14 28/30/14 29/31/15
f 29/31/15 28/30/14 30/32/15
f 29/31/15 30/32/15 31/33/16
f 31/33/16 30/32/15 32/34/16
f 31/33/16 32/34/16 33/35/17
f 33/35/17 32/34/16 34/36/17
f 33/35/17 34/36/17 35/37/18
f 35/37/18 34/36/17 36/38/18
f 35/37/18 36/38/18 37/39/19
f 37/39/19 36/38/18 38/40/19
f 37/41/19 38/42/19 22/43/2
f 22/43/2 38/42/19 21/44/2
f 39/45/11 40/46/11 23/47/11
f 23/47/11 40/46/11 24/48/11
f 41/49/20 23/23/20 42/50/21
f 42/50/21 23/23/20 25/25/21
f 42/50/21 25/25/21 43/51/22
f 43/51/22 25/25/21 27/52/22
f 43/51/22 27/52/22 44/53/23
f 44/53/23 27/52/22 29/54/23
f 44/53/23 29/54/23 45/55/24
f 45/55/24 29/54/23 31/56/24
f 45/57/24 31/58/24 46/59/25
f 46/59/25 31/58/24 33/60/25
f 46/59/25 33/60/25 47/61/26
f 47/61/26 33/60/25 35/62/26
f 47/61/26 35/62/26 48/63/27
f 48/63/27 35/62/26 37/41/27
f 48/63/27 37/41/27 49/64/28
f 49/64/28 37/41/27 22/43/28
f 22/43/28 5/65/28 49/64/28
f 49/64/28 5/65/28 50/66/28
f 50/66/28 5/65/28 51/67/29
f 51/67/29 5/65/28 7/68/29
f 51/67/29 7/68/29 52/69/30
f 52/69/30 7/68/29 9/70/30
f 52/69/30 9/70/30 53/71/31
f 53/71/31 9/70/30 11/72/31
f 53/71/31 11/72/31 54/73/32
f 54/73/32 11/72/31 13/74/32
f 54/75/32 13/76/32 55/77/33
f 55/77/33 13/76/32 15/78/33
f 55/77/33 15/78/33 56/79/34
f 56/79/34 15/78/33 17/80/34
f 56/79/34 17/80/34 57/81/35
f 57/81/35 17/80/34 19/82/35
f 57/81/35 19/82/35 58/83/36
f 58/83/36 19/82/35 4/84/36
f 4/84/36 2/85/36 58/83/36
f 58/83/36 2/85/36 59/86/36
f 1/87/37 60/88/37 2/89/37
f 2/89/37 60/88/37 59/90/37
f 59/90/37 60/88/37 61/91/37
f 59/90/37 61/91/37 62/92/37
f 62/92/37 61/91/37 63/93/37
f 62/92/37 63/93/37 64/94/37
f 65/95/1 66/96/1 67/97/1
f 67/97/1 66/96/1 68/98/1
f 69/99/38 70/100/38 71/101/39
f 71/101/39 70/100/38 72/102/39
f 71/101/39 72/102/39 73/103/40
f 73/103/40 72/102/39 74/104/40
f 73/103/40 74/104/40 75/105/41
f 75/105/41 74/104/40 76/106/41
f 75/105/41 76/106/41 77/107/42
f 77/107/42 76/106/41 78/108/42
f 77/107/42 78/108/42 79/109/43
f 79/109/43 78/108/42 80/110/43
f 79/111/43 80/112/43 68/113/1
f 68/113/1 80/112/43 67/114/1
f 81/115/38 70/100/38 82/116/38
f 82/116/38 70/100/38 69/99/38
f 83/117/11 84/118/11 85/119/44
f 85/119/44 84/118/11 86/120/44
f 85/119/44 86/120/44 87/121/45
f 87/121/45 86/120/44 88/122/45
f 87/121/45 88/122/45 89/123/46
f 89/123/46 88/122/45 90/124/46
f 89/123/46 90/124/46 91/125/47
f 91/125/47 90/124/46 92/126/47
f 91/125/47 92/126/47 93/127/48
f 93/127/48 92/126/47 94/128/48
f 93/129/48 94/130/48 82/131/38
f 82/131/38 94/130/48 81/132/38
f 61/133/11 60/134/11 83/117/11
f 83/117/11 60/134/11 84/118/11
f 40/46/49 65/95/49 24/48/49
f 24/48/49 65/95/49 67/97/49
f 24/48/49 67/97/49 26/28/49
f 26/28/49 67/97/49 80/110/49
f 26/28/49 80/110/49 28/30/49
f 28/30/49 80/110/49 78/108/49
f 28/30/49 78/108/49 30/32/49
f 30/32/49 78/108/49 76/106/49
f 30/32/49 76/106/49 32/34/49
f 32/34/49 76/106/49 34/36/49
f 34/36/49 76/106/49 74/104/49
f 34/36/49 74/104/49 36/38/49
f 36/38/49 74/104/49 72/102/49
f 36/38/49 72/102/49 38/40/49
f 38/40/49 72/102/49 70/100/49
f 38/40/49 70/100/49 21/21/49
f 21/21/49 70/100/49 81/115/49
f 21/21/49 81/115/49 6/6/49
f 6/6/49 81/115/49 8/8/49
f 8/8/49 81/115/49 94/128/49
f 8/8/49 94/128/49 10/10/49
f 10/10/49 94/128/49 92/126/49
f 10/10/49 92/126/49 12/12/49
f 12/12/49 92/126/49 90/124/49
f 12/12/49 90/124/49 14/14/49
f 14/14/49 90/124/49 16/16/49
f 16/16/49 90/124/49 88/122/49
f 16/16/49 88/122/49 18/18/49
f 18/18/49 88/122/49 86/120/49
f 18/18/49 86/120/49 20/20/49
f 20/20/49 86/120/49 84/118/49
f 20/20/49 84/118/49 3/3/49
f 3/3/49 84/118/49 1/1/49
f 1/1/49 84/118/49 60/134/49
f 95/135/50 96/136/50 97/137/50
f 97/137/50 96/136/50 41/138/50
f 97/139/50 41/49/50 98/140/51
f 98/140/51 41/49/50 42/50/51
f 98/141/51 42/142/51 99/143/52
f 99/143/52 42/142/51 43/144/52
f 99/143/52 43/144/52 100/145/53
f 100/145/53 43/144/52 44/146/53
f 100/145/53 44/146/53 101/147/54
f 101/147/54 44/146/53 45/148/54
f 101/147/54 45/148/54 102/149/55
f 102/149/55 45/148/54 46/150/55
f 102/149/55 46/150/55 103/151/56
f 103/151/56 46/150/55 47/152/56
f 103/151/56 47/152/56 104/153/57
f 104/153/57 47/152/56 48/154/58
f 104/155/57 48/63/58 105/156/59
f 105/156/59 48/63/58 49/64/59
f 106/157/59 105/158/59 50/159/59
f 50/159/59 105/158/59 49/160/59
f 106/157/59 50/159/59 107/161/60
f 107/161/60 50/159/59 51/162/60
f 107/161/60 51/162/60 108/163/61
f 108/163/61 51/162/60 52/164/61
f 108/163/61 52/164/61 109/165/62
f 109/165/62 52/164/61 53/166/62
f 109/165/62 53/166/62 110/167/63
f 110/167/63 53/166/62 54/168/63
f 110/167/63 54/168/63 111/169/64
f 111/169/64 54/168/63 55/170/64
f 111/169/64 55/170/64 112/171/65
f 112/171/65 55/170/64 56/172/65
f 112/171/65 56/172/65 113/173/66
f 113/173/66 56/172/65 57/174/67
f 113/173/66 57/174/67 114/175/68
f 114/175/68 57/174/67 58/176/68
f 59/177/68 62/178/68 58/176/68
f 58/176/68 62/178/68 114/175/68
f 115/179/69 95/135/69 116/180/69
f 116/180/69 95/135/69 97/137/69
f 116/180/69 97/137/69 98/141/69
f 116/180/69 98/141/69 117/181/69
f 117/181/69 98/141/69 99/143/69
f 117/181/69 99/143/69 118/182/69
f 118/182/69 99/143/69 100/145/69
f 118/182/69 100/145/69 119/183/69
f 119/183/69 100/145/69 101/147/69
f 119/183/69 101/147/69 102/149/69
f 119/183/69 102/149/69 120/184/69
f 120/184/69 102/149/69 103/151/69
f 120/184/69 103/151/69 121/185/69
f 121/185/69 103/151/69 104/153/69
f 121/185/69 104/153/69 122/186/69
f 122/186/69 104/153/69 105/158/69
f 122/186/69 105/158/69 106/157/69
f 122/186/69 106/157/69 123/187/69
f 123/187/69 106/157/69 107/161/69
f 123/187/69 107/161/69 124/188/69
f 124/188/69 107/161/69 108/163/69
f 124/188/69 108/163/69 125/189/69
f 125/189/69 108/163/69 109/165/69
f 125/189/69 109/165/69 126/190/69
f 126/190/69 109/165/69 110/167/69
f 126/190/69 110/167/69 111/169/69
f 126/190/69 111/169/69 127/191/69
f 127/191/69 111/169/69 112/171/69
f 127/191/69 112/171/69 128/192/69
f 128/192/69 112/171/69 113/173/69
f 128/192/69 113/173/69 129/193/69
f 129/193/69 113/173/69 114/175/69
f 129/193/69 114/175/69 64/194/69
f 64/194/69 114/175/69 62/178/69
f 64/194/50 63/195/50 129/193/50
f 129/193/50 63/195/50 130/196/50
f 131/197/70 123/198/70 132/199/71
f 132/199/71 123/198/70 124/200/71
f 132/201/71 124/188/71 133/202/72
f 133/202/72 124/188/71 125/189/72
f 133/202/72 125/189/72 134/203/73
f 134/203/73 125/189/72 126/190/73
f 134/203/73 126/190/73 135/204/74
f 135/204/74 126/190/73 127/191/74
f 135/204/74 127/191/74 136/205/75
f 136/205/75 127/191/74 128/192/75
f 136/205/75 128/192/75 130/196/50
f 130/196/50 128/192/75 129/193/50
f 122/186/70 123/187/70 137/206/70
f 137/206/70 123/187/70 131/207/70
f 138/208/68 116/209/68 139/210/76
f 139/210/76 116/209/68 117/211/76
f 139/212/76 117/181/76 140/213/77
f 140/213/77 117/181/76 118/182/77
f 140/213/77 118/182/77 141/214/78
f 141/214/78 118/182/77 119/183/78
f 141/214/78 119/183/78 142/215/79
f 142/215/79 119/183/78 120/184/79
f 142/215/79 120/184/79 143/216/80
f 143/216/80 120/184/79 121/185/80
f 143/216/80 121/185/80 137/206/70
f 137/206/70 121/185/80 122/186/70
f 144/217/68 115/179/68 138/218/68
f 138/218/68 115/179/68 116/180/68
f 68/113/36 66/219/36 138/208/36
f 138/208/36 66/219/36 144/220/36
f 137/221/37 69/222/37 143/223/81
f 143/223/81 69/222/37 71/224/81
f 143/223/81 71/224/81 142/225/82
f 142/225/82 71/224/81 73/226/82
f 142/227/82 73/228/82 141/229/83
f 141/229/83 73/228/82 75/230/83
f 141/229/83 75/230/83 140/231/84
f 140/231/84 75/230/83 77/232/84
f 140/231/84 77/232/84 139/210/85
f 139/210/85 77/232/84 79/111/85
f 139/210/85 79/111/85 138/208/36
f 138/208/36 79/111/85 68/113/36
f 82/131/37 69/222/37 131/197/37
f 131/197/37 69/222/37 137/221/37
f 130/233/20 83/234/20 136/235/86
f 136/235/86 83/234/20 85/236/86
f 136/235/86 85/236/86 135/237/87
f 135/237/87 85/236/86 87/238/87
f 135/237/87 87/238/87 134/239/88
f 134/239/88 87/238/87 89/240/88
f 134/241/88 89/242/88 133/243/89
f 133/243/89 89/242/88 91/244/89
f 133/243/89 91/244/89 132/199/90
f 132/199/90 91/244/89 93/129/90
f 132/199/90 93/129/90 131/197/37
f 131/197/37 93/129/90 82/131/37
f 61/245/20 83/234/20 63/246/20
f 63/246/20 83/234/20 130/233/20
f 39/247/37 144/248/37 40/249/37
f 40/249/37 144/248/37 66/250/37
f 40/249/37 66/250/37 65/251/37
f 144/248/37 39/247/37 115/252/37
f 115/252/37 39/247/37 96/253/37
f 115/252/37 96/253/37 95/254/37
f 39/255/20 23/23/20 96/256/20
f 96/256/20 23/23/20 41/49/20
