# Blender v2.80 (sub 75) OBJ File: ''
# www.blender.org
mtllib V.mtl
o V
v -0.400000 0.200000 -0.050000
v -0.400000 0.600000 -0.050000
v -0.350000 0.209067 -0.100000
v -0.350000 0.600000 -0.100000
v -0.100000 -0.600000 -0.050000
v -0.065350 -0.550000 -0.100000
v 0.100000 -0.600000 -0.050000
v 0.065350 -0.550000 -0.100000
v 0.400000 0.200000 -0.050000
v 0.350000 0.209067 -0.100000
v 0.350000 0.600000 -0.100000
v 0.400000 0.600000 -0.050000
v 0.250000 0.600000 -0.100000
v 0.250000 0.227200 -0.100000
v 0.052300 -0.300000 -0.100000
v -0.052300 -0.300000 -0.100000
v -0.250000 0.227200 -0.100000
v -0.250000 0.600000 -0.100000
v -0.200000 0.600000 0.050000
v -0.200000 0.600000 -0.050000
v -0.250000 0.600000 0.100000
v -0.400000 0.600000 0.050000
v -0.350000 0.600000 0.100000
v 0.200000 0.600000 -0.050000
v 0.200000 0.236267 -0.050000
v 0.017650 -0.250000 -0.050000
v -0.017650 -0.250000 -0.050000
v -0.200000 0.236267 -0.050000
v 0.200000 0.600000 0.050000
v 0.200000 0.236267 0.050000
v 0.017650 -0.250000 0.050000
v -0.017650 -0.250000 0.050000
v -0.200000 0.236267 0.050000
v -0.250000 0.227200 0.100000
v -0.052300 -0.300000 0.100000
v 0.052300 -0.300000 0.100000
v 0.250000 0.227200 0.100000
v 0.250000 0.600000 0.100000
v 0.350000 0.600000 0.100000
v 0.350000 0.209067 0.100000
v 0.065350 -0.550000 0.100000
v -0.065350 -0.550000 0.100000
v -0.350000 0.209067 0.100000
v 0.400000 0.200000 0.050000
v 0.400000 0.600000 0.050000
v 0.100000 -0.600000 0.050000
v -0.100000 -0.600000 0.050000
v -0.400000 0.200000 0.050000
vt 0.018182 0.250059
vt 0.018182 0.032616
vt 0.040909 0.245130
vt 0.040909 0.032616
vt 0.154546 0.684943
vt 0.170296 0.657762
vt 0.248864 0.831716
vt 0.248864 0.722995
vt 0.271591 0.812880
vt 0.271591 0.741831
vt 0.245455 0.684943
vt 0.229705 0.657762
vt 0.381818 0.250058
vt 0.359091 0.245130
vt 0.359091 0.032616
vt 0.381818 0.032616
vt 0.313636 0.032616
vt 0.313636 0.235272
vt 0.223773 0.521861
vt 0.176227 0.521861
vt 0.086364 0.235272
vt 0.086364 0.032616
vt 0.072727 0.831716
vt 0.027273 0.722995
vt 0.095455 0.804536
vt 0.072727 0.722995
vt 0.095455 0.750175
vt 0.004545 0.750175
vt 0.027273 0.831716
vt 0.004545 0.804536
vt 0.872727 0.023103
vt 0.895454 0.023103
vt 0.872727 0.220830
vt 0.895454 0.225759
vt 0.290909 0.230344
vt 0.208023 0.494681
vt 0.293127 0.804536
vt 0.309173 0.804536
vt 0.277377 0.831716
vt 0.324923 0.831716
vt 0.109091 0.230344
vt 0.191977 0.494681
vt 0.109091 0.032616
vt 0.827273 0.023103
vt 0.827273 0.220830
vt 0.872727 0.485168
vt 0.827273 0.485168
vt 0.309173 0.750175
vt 0.293127 0.750175
vt 0.847727 0.530622
vt 0.847727 0.781320
vt 0.802273 0.530622
vt 0.802273 0.781320
vt 0.847727 0.977649
vt 0.802273 0.977649
vt 0.509091 0.684943
vt 0.486364 0.684943
vt 0.509091 0.487215
vt 0.486364 0.482287
vt 0.576227 0.195698
vt 0.591977 0.222878
vt 0.324923 0.722995
vt 0.277377 0.722995
vt 0.690909 0.487215
vt 0.608023 0.222878
vt 0.713636 0.482287
vt 0.623773 0.195698
vt 0.804545 0.225759
vt 0.804545 0.023103
vt 0.713636 0.684943
vt 0.759091 0.684943
vt 0.759091 0.472429
vt 0.629704 0.059797
vt 0.570295 0.059797
vt 0.440909 0.472429
vt 0.440909 0.684943
vt 0.781818 0.467500
vt 0.781818 0.684943
vt 0.645454 0.032616
vt 0.554545 0.032616
vt 0.418182 0.467501
vt 0.418182 0.684943
vt 0.902273 0.249258
vt 0.902273 0.033354
vt 0.947727 0.249258
vt 0.947727 0.033354
vt 0.902273 0.700429
vt 0.947727 0.700429
vt 0.203409 0.722995
vt 0.203409 0.831716
vt 0.997727 0.250058
vt 0.997727 0.684943
vt 0.952273 0.250058
vt 0.952273 0.684943
vt 0.997727 0.032616
vt 0.952273 0.032616
vt 0.195455 0.750175
vt 0.195455 0.804536
vt 0.172727 0.722995
vt 0.127273 0.722995
vt 0.172727 0.831716
vt 0.104545 0.750175
vt 0.127273 0.831716
vt 0.104545 0.804536
vn -0.7071 0.0000 -0.7071
vn -0.6621 -0.2483 -0.7071
vn 0.0000 -0.7071 -0.7071
vn 0.6621 -0.2483 -0.7071
vn 0.7071 0.0000 -0.7071
vn 0.0000 0.0000 -1.0000
vn 0.0000 1.0000 0.0000
vn -0.6621 0.2483 -0.7071
vn 0.0000 0.7071 -0.7071
vn 0.6621 0.2483 -0.7071
vn -1.0000 0.0000 0.0000
vn -0.9363 0.3511 0.0000
vn 0.9363 0.3511 0.0000
vn 1.0000 0.0000 0.0000
vn 0.7071 -0.0000 0.7071
vn 0.6621 0.2483 0.7071
vn 0.0000 0.7071 0.7071
vn -0.6621 0.2483 0.7071
vn -0.7071 0.0000 0.7071
vn 0.0000 -0.0000 1.0000
vn 0.6621 -0.2483 0.7071
vn 0.0000 -0.7071 0.7071
vn -0.6621 -0.2483 0.7071
vn 0.9363 -0.3511 0.0000
vn 0.0000 -1.0000 0.0000
vn -0.9363 -0.3511 0.0000
usemtl Steel_-_Satin.032
s 1
f 1/1/1 2/2/1 3/3/1
f 3/3/1 2/2/1 4/4/1
f 5/5/2 1/1/2 6/6/2
f 6/6/2 1/1/2 3/3/2
f 7/7/3 5/8/3 8/9/3
f 8/9/3 5/8/3 6/10/3
f 7/11/4 8/12/4 9/13/4
f 9/13/4 8/12/4 10/14/4
f 11/15/5 12/16/5 10/14/5
f 10/14/5 12/16/5 9/13/5
f 13/17/6 11/15/6 14/18/6
f 14/18/6 11/15/6 10/14/6
f 14/18/6 10/14/6 15/19/6
f 15/19/6 10/14/6 8/12/6
f 15/19/6 8/12/6 6/6/6
f 15/19/6 6/6/6 16/20/6
f 16/20/6 6/6/6 3/3/6
f 16/20/6 3/3/6 17/21/6
f 17/21/6 3/3/6 4/4/6
f 17/21/6 4/4/6 18/22/6
f 2/23/7 19/24/7 4/25/7
f 4/25/7 19/24/7 20/26/7
f 4/25/7 20/26/7 18/27/7
f 19/24/7 2/23/7 21/28/7
f 21/28/7 2/23/7 22/29/7
f 21/28/7 22/29/7 23/30/7
f 24/31/1 13/32/1 25/33/1
f 25/33/1 13/32/1 14/34/1
f 25/35/8 14/18/8 26/36/8
f 26/36/8 14/18/8 15/19/8
f 27/37/9 26/38/9 16/39/9
f 16/39/9 26/38/9 15/40/9
f 28/41/10 27/42/10 17/21/10
f 17/21/10 27/42/10 16/20/10
f 17/21/5 18/22/5 28/41/5
f 28/41/5 18/22/5 20/43/5
f 24/31/11 25/33/11 29/44/11
f 29/44/11 25/33/11 30/45/11
f 25/33/12 26/46/12 30/45/12
f 30/45/12 26/46/12 31/47/12
f 26/38/7 27/37/7 31/48/7
f 31/48/7 27/37/7 32/49/7
f 27/50/13 28/51/13 32/52/13
f 32/52/13 28/51/13 33/53/13
f 28/51/14 20/54/14 33/53/14
f 33/53/14 20/54/14 19/55/14
f 19/56/15 21/57/15 33/58/15
f 33/58/15 21/57/15 34/59/15
f 35/60/16 32/61/16 34/59/16
f 34/59/16 32/61/16 33/58/16
f 31/48/17 32/49/17 36/62/17
f 36/62/17 32/49/17 35/63/17
f 30/64/18 31/65/18 37/66/18
f 37/66/18 31/65/18 36/67/18
f 37/68/19 38/69/19 30/45/19
f 30/45/19 38/69/19 29/44/19
f 38/70/20 37/66/20 39/71/20
f 39/71/20 37/66/20 40/72/20
f 40/72/20 37/66/20 36/67/20
f 40/72/20 36/67/20 41/73/20
f 41/73/20 36/67/20 35/60/20
f 41/73/20 35/60/20 42/74/20
f 42/74/20 35/60/20 43/75/20
f 43/75/20 35/60/20 34/59/20
f 43/75/20 34/59/20 23/76/20
f 23/76/20 34/59/20 21/57/20
f 44/77/15 45/78/15 40/72/15
f 40/72/15 45/78/15 39/71/15
f 40/72/21 41/73/21 44/77/21
f 44/77/21 41/73/21 46/79/21
f 41/73/22 42/74/22 46/79/22
f 46/79/22 42/74/22 47/80/22
f 43/75/23 48/81/23 42/74/23
f 42/74/23 48/81/23 47/80/23
f 23/76/19 22/82/19 43/75/19
f 43/75/19 22/82/19 48/81/19
f 9/83/14 12/84/14 44/85/14
f 44/85/14 12/84/14 45/86/14
f 7/87/24 9/83/24 46/88/24
f 46/88/24 9/83/24 44/85/24
f 5/8/25 7/7/25 47/89/25
f 47/89/25 7/7/25 46/90/25
f 1/91/26 5/92/26 48/93/26
f 48/93/26 5/92/26 47/94/26
f 2/95/11 1/91/11 22/96/11
f 22/96/11 1/91/11 48/93/11
f 11/97/7 13/98/7 12/99/7
f 12/99/7 13/98/7 45/100/7
f 45/100/7 13/98/7 24/101/7
f 45/100/7 24/101/7 39/102/7
f 39/102/7 24/101/7 29/103/7
f 39/102/7 29/103/7 38/104/7
